<?xml version="1.0" encoding="UTF-8"?>
<svg xmlns="http://www.w3.org/2000/svg" xmlns:xlink="http://www.w3.org/1999/xlink" width="25pt" height="16pt" viewBox="0 0 25 16" version="1.1">
<g id="surface1">
<path style=" stroke:none;fill-rule:nonzero;fill:rgb(100%,100%,100%);fill-opacity:1;" d="M 0 0 L 24.621094 0 L 24.621094 16.191406 L 0 16.191406 Z M 0 0 "/>
<path style=" stroke:none;fill-rule:nonzero;fill:rgb(78.431373%,6.27451%,18.039216%);fill-opacity:1;" d="M 0 0 L 0 1.257812 L 6.292969 5.398438 L 8.207031 5.398438 Z M 10.835938 0 L 10.835938 6.476562 L 0 6.476562 L 0 9.710938 L 10.835938 9.710938 L 10.835938 16.191406 L 13.785156 16.191406 L 13.785156 9.710938 L 24.621094 9.710938 L 24.621094 6.476562 L 13.785156 6.476562 L 13.785156 0 Z M 22.703125 0 L 14.769531 5.214844 L 14.769531 5.398438 L 16.414062 5.398438 L 24.621094 0 Z M 8.1875 10.792969 L 0 16.191406 L 1.914062 16.191406 L 9.847656 10.972656 L 9.847656 10.792969 Z M 16.414062 10.792969 L 24.621094 16.191406 L 24.621094 14.933594 L 18.328125 10.792969 Z M 16.414062 10.792969 "/>
<path style=" stroke:none;fill-rule:nonzero;fill:rgb(0.392157%,12.941176%,41.176471%);fill-opacity:1;" d="M 2.882812 0 L 9.847656 4.585938 L 9.847656 0 Z M 14.773438 0 L 14.773438 4.585938 L 21.75 0 Z M 0 1.890625 L 0 5.398438 L 5.335938 5.398438 Z M 24.621094 1.890625 L 19.289062 5.398438 L 24.621094 5.398438 Z M 0 10.792969 L 0 14.304688 L 5.335938 10.792969 Z M 19.289062 10.792969 L 24.621094 14.339844 L 24.621094 10.792969 Z M 14.773438 11.601562 L 14.773438 16.191406 L 21.75 16.191406 Z M 9.847656 11.601562 L 2.871094 16.191406 L 9.847656 16.191406 Z M 9.847656 11.601562 "/>
</g>
</svg>
