<?xml version="1.0" encoding="UTF-8"?>
<svg xmlns="http://www.w3.org/2000/svg" xmlns:xlink="http://www.w3.org/1999/xlink" width="100pt" height="35pt" viewBox="0 0 100 35" version="1.1">
<g id="surface1">
<path style=" stroke:none;fill-rule:evenodd;fill:rgb(98.431373%,97.647059%,97.647059%);fill-opacity:1;" d="M 20.667969 5.746094 C 20.71875 5.792969 20.820312 5.800781 21.113281 5.804688 C 21.320312 5.804688 21.589844 5.824219 21.714844 5.84375 C 21.832031 5.859375 22.082031 5.886719 22.261719 5.902344 C 22.652344 5.9375 23.039062 5.992188 23.648438 6.089844 C 24.492188 6.238281 25.433594 6.332031 25.476562 6.289062 C 25.570312 6.179688 26.007812 6.179688 59.199219 6.179688 L 92.613281 6.179688 L 92.980469 6.292969 C 93.589844 6.484375 93.996094 6.859375 94.09375 7.304688 C 94.15625 7.585938 94.15625 26.355469 94.09375 26.636719 C 94.039062 26.921875 93.851562 27.171875 93.558594 27.382812 C 93.328125 27.546875 93.210938 27.59375 92.78125 27.710938 C 92.484375 27.792969 25.828125 27.792969 25.605469 27.710938 C 25.425781 27.648438 25.03125 27.667969 24.320312 27.765625 C 24.070312 27.800781 23.527344 27.878906 23.097656 27.933594 C 22.679688 27.988281 22.234375 28.054688 22.109375 28.082031 C 21.988281 28.097656 21.734375 28.125 21.546875 28.140625 C 21.316406 28.148438 21.191406 28.171875 21.175781 28.203125 C 21.148438 28.253906 22.304688 28.234375 22.875 28.171875 C 23.042969 28.15625 23.335938 28.125 23.53125 28.109375 C 23.773438 28.085938 35.070312 28.074219 58.511719 28.074219 C 92.292969 28.074219 93.152344 28.074219 93.441406 28.007812 C 94.058594 27.878906 94.386719 27.679688 94.652344 27.289062 L 94.808594 27.070312 L 94.808594 6.875 L 94.675781 6.679688 C 94.40625 6.28125 94.046875 6.0625 93.457031 5.941406 C 93.144531 5.875 92.855469 5.875 58.4375 5.875 C 35.570312 5.875 23.625 5.859375 23.394531 5.835938 C 23.207031 5.824219 22.898438 5.792969 22.71875 5.773438 C 22 5.703125 20.589844 5.683594 20.667969 5.746094 M 18.367188 6.949219 C 18.257812 6.953125 18.128906 6.972656 18.070312 6.992188 C 18.015625 7.011719 17.847656 7.03125 17.703125 7.039062 C 17.339844 7.0625 16.84375 7.128906 16.785156 7.167969 C 16.753906 7.183594 16.65625 7.195312 16.550781 7.195312 C 16.449219 7.195312 16.351562 7.210938 16.339844 7.226562 C 16.324219 7.242188 16.203125 7.261719 16.078125 7.28125 C 15.945312 7.292969 15.816406 7.316406 15.789062 7.332031 C 15.761719 7.347656 15.683594 7.367188 15.617188 7.375 C 15.429688 7.402344 14.390625 7.660156 14.082031 7.761719 C 13.28125 8.015625 12.820312 8.183594 12.402344 8.355469 C 12.148438 8.46875 11.933594 8.550781 11.914062 8.550781 C 11.890625 8.550781 11.34375 8.824219 11.304688 8.859375 C 11.292969 8.867188 11.1875 8.917969 11.078125 8.96875 C 10.972656 9.023438 10.808594 9.101562 10.714844 9.148438 C 10.515625 9.25 9.566406 9.84375 9.351562 10.011719 C 9.265625 10.074219 9.058594 10.226562 8.886719 10.351562 C 8.71875 10.472656 8.507812 10.644531 8.414062 10.730469 C 8.324219 10.808594 8.195312 10.929688 8.121094 10.992188 C 7.90625 11.1875 7.355469 11.75 7.253906 11.878906 C 7.207031 11.945312 7.117188 12.046875 7.0625 12.101562 C 6.96875 12.195312 6.6875 12.574219 6.34375 13.089844 C 6.269531 13.195312 6.132812 13.433594 6.046875 13.609375 C 5.957031 13.789062 5.871094 13.945312 5.851562 13.96875 C 5.832031 13.988281 5.796875 14.050781 5.785156 14.105469 C 5.773438 14.15625 5.722656 14.296875 5.679688 14.410156 C 5.507812 14.828125 5.355469 15.34375 5.300781 15.652344 C 5.277344 15.789062 5.230469 16.046875 5.203125 16.230469 C 5.128906 16.671875 5.15625 18.238281 5.242188 18.253906 C 5.277344 18.261719 5.300781 18.28125 5.300781 18.304688 C 5.300781 18.316406 5.277344 18.320312 5.242188 18.308594 C 5.195312 18.285156 5.195312 18.296875 5.234375 18.332031 C 5.269531 18.359375 5.304688 18.496094 5.320312 18.636719 C 5.347656 18.925781 5.429688 19.261719 5.503906 19.371094 C 5.523438 19.402344 5.554688 19.488281 5.566406 19.550781 C 5.597656 19.679688 5.6875 19.9375 5.746094 20.042969 C 5.769531 20.082031 5.828125 20.199219 5.871094 20.300781 C 5.921875 20.398438 5.976562 20.515625 6 20.554688 C 6.019531 20.589844 6.078125 20.695312 6.125 20.792969 C 6.277344 21.105469 6.378906 21.269531 6.691406 21.691406 C 6.835938 21.882812 6.988281 22.074219 7.027344 22.109375 C 7.074219 22.140625 7.113281 22.195312 7.117188 22.222656 C 7.136719 22.292969 7.679688 22.882812 7.796875 22.953125 C 7.855469 22.992188 7.878906 23.015625 7.859375 23.015625 C 7.832031 23.015625 7.871094 23.054688 7.941406 23.105469 C 8.007812 23.15625 8.109375 23.246094 8.160156 23.304688 C 8.519531 23.699219 10.019531 24.761719 10.808594 25.164062 C 11.066406 25.292969 11.292969 25.414062 11.304688 25.429688 C 11.316406 25.441406 11.359375 25.460938 11.398438 25.464844 C 11.429688 25.46875 11.53125 25.519531 11.617188 25.566406 C 11.699219 25.621094 11.785156 25.648438 11.808594 25.644531 C 11.832031 25.628906 11.863281 25.648438 11.882812 25.675781 C 11.894531 25.707031 11.929688 25.71875 11.949219 25.710938 C 11.972656 25.703125 12.011719 25.714844 12.03125 25.742188 C 12.078125 25.796875 12.464844 25.9375 12.511719 25.914062 C 12.527344 25.910156 12.53125 25.910156 12.519531 25.921875 C 12.496094 25.941406 13.152344 26.242188 13.226562 26.242188 C 13.246094 26.242188 13.378906 26.28125 13.527344 26.332031 C 13.679688 26.375 13.933594 26.453125 14.082031 26.503906 C 14.230469 26.550781 14.410156 26.605469 14.476562 26.628906 C 14.542969 26.652344 14.703125 26.6875 14.820312 26.710938 C 14.945312 26.738281 15.105469 26.773438 15.167969 26.796875 C 15.234375 26.816406 15.394531 26.859375 15.519531 26.886719 C 15.636719 26.902344 15.804688 26.949219 15.886719 26.96875 C 15.964844 26.996094 16.109375 27.015625 16.203125 27.015625 C 16.292969 27.019531 16.394531 27.035156 16.425781 27.050781 C 16.453125 27.074219 16.570312 27.085938 16.6875 27.085938 C 16.800781 27.085938 16.90625 27.101562 16.917969 27.128906 C 16.933594 27.167969 17.378906 27.214844 18.015625 27.246094 C 18.210938 27.257812 18.398438 27.28125 18.441406 27.304688 C 18.542969 27.363281 21.636719 27.355469 21.722656 27.304688 C 21.753906 27.277344 21.914062 27.257812 22.117188 27.257812 C 22.300781 27.257812 22.464844 27.242188 22.480469 27.222656 C 22.496094 27.203125 22.636719 27.191406 22.789062 27.191406 C 22.941406 27.191406 23.128906 27.171875 23.21875 27.140625 C 23.300781 27.113281 23.449219 27.082031 23.550781 27.074219 C 23.960938 27.035156 24.253906 26.988281 24.320312 26.949219 C 24.355469 26.925781 24.4375 26.902344 24.5 26.898438 C 24.652344 26.886719 24.894531 26.835938 25.015625 26.789062 C 25.070312 26.769531 25.246094 26.726562 25.417969 26.6875 C 25.585938 26.660156 25.730469 26.621094 25.730469 26.605469 C 25.730469 26.59375 25.761719 26.578125 25.796875 26.578125 C 25.867188 26.578125 26.132812 26.503906 26.273438 26.445312 C 26.316406 26.425781 26.453125 26.386719 26.585938 26.355469 C 26.714844 26.320312 26.820312 26.277344 26.820312 26.265625 C 26.820312 26.246094 26.851562 26.242188 26.890625 26.242188 C 26.933594 26.242188 27.113281 26.175781 27.289062 26.105469 C 27.472656 26.027344 27.636719 25.96875 27.664062 25.96875 C 27.691406 25.96875 27.714844 25.957031 27.714844 25.941406 C 27.714844 25.929688 27.804688 25.886719 27.910156 25.855469 C 28.019531 25.816406 28.105469 25.777344 28.105469 25.761719 C 28.105469 25.75 28.160156 25.726562 28.222656 25.714844 C 28.277344 25.707031 28.410156 25.648438 28.503906 25.59375 C 28.597656 25.535156 28.695312 25.492188 28.71875 25.492188 C 28.734375 25.492188 28.816406 25.445312 28.894531 25.390625 C 28.972656 25.339844 29.070312 25.289062 29.117188 25.289062 C 29.15625 25.289062 29.199219 25.273438 29.207031 25.261719 C 29.21875 25.246094 29.394531 25.144531 29.597656 25.03125 C 30.027344 24.796875 31.230469 23.988281 31.480469 23.757812 C 31.578125 23.679688 31.722656 23.550781 31.808594 23.488281 C 32.117188 23.261719 32.6875 22.667969 33.167969 22.09375 C 33.414062 21.804688 33.859375 21.164062 33.859375 21.109375 C 33.859375 21.078125 33.878906 21.039062 33.90625 21.03125 C 33.929688 21.019531 33.988281 20.925781 34.03125 20.816406 C 34.078125 20.710938 34.144531 20.585938 34.175781 20.535156 C 34.207031 20.488281 34.265625 20.382812 34.304688 20.300781 C 34.339844 20.210938 34.398438 20.097656 34.433594 20.039062 C 34.472656 19.976562 34.507812 19.886719 34.507812 19.832031 C 34.507812 19.769531 34.523438 19.714844 34.554688 19.703125 C 34.582031 19.695312 34.601562 19.625 34.601562 19.554688 C 34.601562 19.488281 34.625 19.414062 34.65625 19.390625 C 34.71875 19.351562 34.796875 19.050781 34.832031 18.71875 C 34.84375 18.609375 34.882812 18.484375 34.914062 18.433594 C 35 18.3125 35 15.90625 34.910156 15.847656 C 34.875 15.820312 34.851562 15.710938 34.851562 15.578125 C 34.851562 15.453125 34.832031 15.339844 34.800781 15.328125 C 34.773438 15.3125 34.75 15.242188 34.75 15.164062 C 34.75 15.085938 34.71875 14.976562 34.675781 14.925781 C 34.640625 14.871094 34.601562 14.773438 34.601562 14.710938 C 34.601562 14.648438 34.574219 14.574219 34.535156 14.554688 C 34.503906 14.53125 34.484375 14.480469 34.492188 14.441406 C 34.507812 14.394531 34.480469 14.308594 34.433594 14.257812 C 34.390625 14.195312 34.355469 14.109375 34.355469 14.066406 C 34.355469 14.023438 34.335938 13.976562 34.308594 13.96875 C 34.277344 13.949219 34.253906 13.917969 34.253906 13.890625 C 34.253906 13.871094 34.226562 13.792969 34.1875 13.734375 C 34.152344 13.675781 34.089844 13.558594 34.054688 13.472656 C 34.019531 13.394531 33.960938 13.285156 33.929688 13.238281 C 33.78125 13.042969 33.460938 12.550781 33.460938 12.519531 C 33.460938 12.507812 33.441406 12.492188 33.414062 12.492188 C 33.386719 12.492188 33.363281 12.472656 33.363281 12.441406 C 33.363281 12.386719 32.972656 11.9375 32.910156 11.921875 C 32.890625 11.914062 32.867188 11.878906 32.867188 11.847656 C 32.867188 11.816406 32.839844 11.769531 32.792969 11.746094 C 32.75 11.71875 32.714844 11.6875 32.714844 11.667969 C 32.714844 11.648438 32.664062 11.585938 32.597656 11.527344 C 32.527344 11.453125 32.472656 11.402344 32.472656 11.390625 C 32.472656 11.375 31.980469 10.902344 31.929688 10.859375 C 31.910156 10.855469 31.804688 10.757812 31.675781 10.660156 C 31.117188 10.1875 29.6875 9.214844 29.476562 9.171875 C 29.449219 9.160156 29.367188 9.121094 29.296875 9.085938 C 29.121094 8.972656 28.265625 8.550781 28.226562 8.550781 C 28.210938 8.550781 28.121094 8.519531 28.03125 8.472656 C 27.9375 8.421875 27.855469 8.386719 27.835938 8.386719 C 27.8125 8.386719 27.480469 8.253906 27.1875 8.117188 C 27.136719 8.101562 27.054688 8.066406 27.019531 8.054688 C 26.972656 8.046875 26.71875 7.96875 26.449219 7.875 C 26.179688 7.789062 25.84375 7.679688 25.703125 7.648438 C 25.566406 7.613281 25.4375 7.582031 25.40625 7.570312 C 25.378906 7.554688 25.300781 7.539062 25.234375 7.527344 C 25.125 7.511719 24.613281 7.394531 24.363281 7.332031 C 24.207031 7.289062 23.835938 7.226562 23.648438 7.203125 C 23.550781 7.199219 23.425781 7.171875 23.375 7.160156 C 23.222656 7.121094 22.769531 7.054688 22.4375 7.039062 C 22.269531 7.023438 22.105469 6.996094 22.066406 6.980469 C 21.996094 6.9375 18.847656 6.914062 18.367188 6.949219 M 91.316406 9.046875 C 91.277344 9.066406 90.9375 9.152344 90.574219 9.25 C 89.847656 9.445312 89.617188 9.484375 88.863281 9.539062 C 87.878906 9.609375 87.835938 9.679688 88.546875 10.007812 C 89.164062 10.285156 89.214844 10.421875 88.992188 11.03125 C 88.835938 11.449219 88.792969 11.550781 88.527344 12.152344 C 88.429688 12.363281 88.253906 12.75 88.148438 13 C 88.035156 13.25 87.875 13.636719 87.792969 13.847656 C 87.710938 14.066406 87.59375 14.351562 87.542969 14.492188 C 87.453125 14.730469 87.261719 15.214844 86.976562 15.96875 C 86.855469 16.289062 86.65625 16.789062 86.527344 17.113281 C 86.480469 17.210938 86.425781 17.339844 86.40625 17.394531 C 86.382812 17.449219 86.300781 17.65625 86.226562 17.855469 C 86.074219 18.210938 85.796875 18.925781 85.628906 19.371094 C 85.207031 20.515625 86.335938 20.859375 87.984375 20.089844 C 89.289062 19.472656 89.539062 18.890625 88.402344 19.089844 C 88.074219 19.152344 87.871094 19.136719 87.539062 19.019531 C 87.089844 18.867188 87.089844 18.878906 87.621094 17.53125 C 87.984375 16.617188 88.054688 16.429688 88.125 16.257812 C 88.164062 16.15625 88.253906 15.925781 88.320312 15.75 C 88.453125 15.414062 88.804688 14.523438 88.882812 14.324219 C 88.914062 14.261719 88.96875 14.121094 89.011719 14.023438 C 89.054688 13.914062 89.246094 13.441406 89.4375 12.964844 C 89.902344 11.816406 89.921875 11.769531 90.289062 10.882812 C 90.492188 10.378906 90.484375 10.394531 91.007812 9.910156 C 91.796875 9.191406 91.894531 8.910156 91.316406 9.046875 M 14.972656 9.808594 C 16.839844 10.070312 18.242188 10.636719 19.695312 11.699219 C 20.085938 11.988281 20.042969 11.996094 20.523438 11.617188 C 21.585938 10.792969 23.296875 10.085938 24.789062 9.863281 C 24.992188 9.832031 25.25 9.796875 25.367188 9.777344 C 25.480469 9.757812 25.9375 9.742188 26.386719 9.742188 C 33.085938 9.742188 35.746094 14.375 31.628906 18.863281 C 29.351562 21.34375 24.890625 24.300781 20.867188 25.980469 C 20.003906 26.351562 20.085938 26.355469 18.820312 25.804688 C 14.84375 24.085938 10.230469 20.925781 8.230469 18.570312 C 5.101562 14.882812 6.414062 11.054688 11.152344 10.003906 C 11.484375 9.929688 11.816406 9.875 12.617188 9.78125 C 13.097656 9.71875 14.460938 9.738281 14.972656 9.808594 M 42.265625 12.054688 C 39.085938 12.550781 38.113281 14.730469 40.515625 15.96875 C 40.789062 16.117188 41.332031 16.308594 42.953125 16.832031 C 44.6875 17.398438 45.085938 17.5625 45.503906 17.875 C 46.105469 18.320312 46.25 18.875 45.894531 19.3125 C 44.796875 20.652344 40.277344 20.410156 39.980469 18.996094 C 39.921875 18.691406 39.503906 18.582031 39.320312 18.824219 C 39.234375 18.941406 39.246094 19.703125 39.332031 19.820312 C 39.53125 20.082031 40.390625 20.394531 41.324219 20.542969 C 44.941406 21.132812 47.953125 19.902344 47.445312 18.042969 C 47.226562 17.226562 46.574219 16.839844 44.050781 16.046875 C 41.800781 15.335938 41.347656 15.136719 40.917969 14.679688 C 39.910156 13.601562 41.371094 12.398438 43.625 12.464844 C 45.078125 12.511719 45.929688 12.917969 46.175781 13.683594 C 46.234375 13.882812 46.609375 13.933594 46.777344 13.769531 C 46.882812 13.664062 46.878906 12.742188 46.769531 12.636719 C 46.320312 12.195312 43.59375 11.839844 42.265625 12.054688 M 73.875 12.832031 C 73.140625 12.984375 72.988281 13.820312 73.65625 14.027344 C 74.363281 14.242188 75.066406 13.957031 75.097656 13.445312 C 75.125 12.949219 74.597656 12.683594 73.875 12.832031 M 51.902344 13.941406 C 51.664062 14 51.582031 14.117188 51.320312 14.789062 C 51.25 14.953125 51.082031 15.0625 50.519531 15.308594 C 49.988281 15.546875 50.003906 15.609375 50.621094 15.730469 C 50.773438 15.761719 50.941406 15.816406 50.992188 15.859375 C 51.09375 15.933594 51.113281 15.878906 50.539062 17.308594 C 50.503906 17.414062 50.355469 17.78125 50.21875 18.125 C 50.078125 18.46875 49.953125 18.808594 49.921875 18.871094 C 49.894531 18.9375 49.839844 19.078125 49.800781 19.179688 C 49.675781 19.472656 49.394531 20.183594 49.273438 20.484375 C 49.21875 20.632812 49.144531 20.832031 49.101562 20.925781 C 49.066406 21.019531 48.988281 21.210938 48.929688 21.347656 C 48.617188 22.125 48.296875 22.882812 48.132812 23.21875 C 47.847656 23.832031 47.660156 23.992188 47.054688 24.195312 C 46.230469 24.464844 46.542969 24.578125 48.152344 24.578125 C 49.25 24.578125 49.371094 24.582031 49.910156 24.664062 C 50.636719 24.78125 51.1875 24.789062 51.289062 24.691406 C 51.480469 24.519531 51.324219 24.375 50.808594 24.277344 C 50.023438 24.113281 49.941406 24.097656 49.785156 24.027344 C 49.351562 23.859375 49.320312 23.386719 49.671875 22.5 C 49.699219 22.421875 49.742188 22.320312 49.769531 22.261719 C 49.789062 22.199219 49.898438 21.964844 50.003906 21.738281 C 50.921875 19.894531 51.03125 19.8125 52.476562 19.757812 C 53.710938 19.707031 54.496094 19.417969 55.277344 18.707031 C 56.28125 17.792969 56.691406 16.1875 56.101562 15.480469 C 55.621094 14.902344 55.152344 14.792969 53.9375 14.960938 C 53 15.101562 52.726562 14.972656 52.871094 14.480469 C 52.96875 14.125 52.929688 14.011719 52.683594 13.949219 C 52.527344 13.914062 52.035156 13.910156 51.902344 13.941406 M 83.132812 14.621094 C 82.851562 14.746094 82.664062 14.796875 82.410156 14.828125 C 81.003906 15.007812 80.59375 15.109375 79.855469 15.445312 C 77.9375 16.316406 76.214844 18.152344 76.109375 19.425781 L 76.082031 19.824219 L 76.242188 20.042969 C 76.425781 20.296875 76.613281 20.410156 76.957031 20.476562 C 77.519531 20.574219 78.046875 20.351562 79.492188 19.382812 C 80.289062 18.847656 80.582031 18.667969 80.65625 18.667969 C 80.859375 18.667969 80.902344 18.902344 80.785156 19.28125 C 80.476562 20.222656 81.132812 20.71875 82.195312 20.332031 C 82.816406 20.109375 83.976562 19.230469 84.171875 18.839844 C 84.390625 18.398438 84.15625 18.433594 83.386719 18.953125 C 82.65625 19.445312 82.488281 19.5 82.164062 19.390625 C 81.882812 19.300781 81.773438 19.148438 81.777344 18.855469 C 81.785156 18.300781 81.921875 18.011719 83.515625 15.214844 C 83.925781 14.492188 83.816406 14.328125 83.132812 14.621094 M 60.390625 14.953125 C 59.242188 15.160156 58.257812 15.746094 57.628906 16.59375 C 56.710938 17.851562 56.824219 19.523438 57.871094 20.152344 C 58.980469 20.816406 61.101562 20.484375 62.179688 19.472656 C 62.863281 18.824219 62.585938 18.507812 61.75 18.960938 C 59.765625 20.035156 58.175781 19.878906 58.179688 18.613281 C 58.179688 17.839844 58.523438 17.542969 59.363281 17.601562 C 60.574219 17.6875 61.222656 17.59375 62.0625 17.203125 C 64.1875 16.203125 62.921875 14.496094 60.390625 14.953125 M 67.109375 14.953125 C 64.9375 15.363281 63.496094 16.769531 63.496094 18.480469 C 63.496094 19.59375 64.058594 20.25 65.203125 20.449219 C 66.492188 20.691406 68.757812 19.953125 68.542969 19.371094 C 68.453125 19.117188 68.070312 19.117188 67.28125 19.367188 C 66.035156 19.742188 65.339844 19.746094 64.851562 19.371094 C 64.214844 18.867188 64.53125 17.523438 65.515625 16.582031 C 66.355469 15.773438 67.753906 15.394531 68.589844 15.734375 C 69.316406 16.039062 69.410156 16.054688 69.738281 15.953125 C 70.335938 15.769531 70.175781 15.253906 69.464844 15.066406 C 68.640625 14.855469 67.828125 14.820312 67.109375 14.953125 M 73.679688 14.953125 C 73.152344 15.125 72.078125 15.675781 71.664062 15.996094 C 71.347656 16.230469 71.367188 16.292969 71.769531 16.359375 C 72.53125 16.5 72.527344 16.589844 71.652344 18.082031 C 70.796875 19.554688 70.734375 20.203125 71.441406 20.449219 C 72.117188 20.695312 74.351562 19.792969 74.175781 19.347656 C 74.140625 19.253906 73.949219 19.230469 73.753906 19.292969 C 72.976562 19.574219 72.476562 19.414062 72.546875 18.90625 C 72.652344 18.21875 73.414062 16.722656 74.003906 16.054688 C 74.40625 15.601562 74.59375 15.347656 74.632812 15.199219 C 74.714844 14.917969 74.203125 14.777344 73.679688 14.953125 M 54.390625 15.429688 C 55.535156 15.824219 55.441406 17.054688 54.15625 18.378906 C 53.359375 19.210938 52.09375 19.5 51.519531 18.984375 C 51.117188 18.617188 51.945312 16.25 52.679688 15.652344 C 53.070312 15.328125 53.816406 15.238281 54.390625 15.429688 M 61.421875 15.730469 C 62.203125 16.101562 61.984375 16.695312 60.9375 17.035156 C 59.78125 17.410156 58.925781 17.035156 59.390625 16.367188 C 59.824219 15.734375 60.792969 15.433594 61.421875 15.730469 M 81.542969 15.773438 C 82.457031 15.898438 81.589844 17.289062 79.746094 18.625 C 77.449219 20.296875 76.199219 19.0625 78.28125 17.1875 C 79.460938 16.121094 80.578125 15.636719 81.542969 15.773438 "/>
<path style=" stroke:none;fill-rule:evenodd;fill:rgb(89.411765%,1.568627%,1.568627%);fill-opacity:1;" d="M 18.144531 4.25 C 17.96875 4.269531 17.632812 4.296875 17.402344 4.308594 C 17.171875 4.320312 16.800781 4.367188 16.582031 4.398438 C 16.363281 4.425781 16.085938 4.460938 15.960938 4.476562 C 15.523438 4.539062 15.246094 4.589844 15.199219 4.625 C 15.171875 4.636719 15.101562 4.65625 15.03125 4.65625 C 14.90625 4.65625 14.457031 4.734375 14.316406 4.785156 C 14.265625 4.804688 14.1875 4.820312 14.136719 4.820312 C 14.082031 4.820312 13.980469 4.84375 13.898438 4.871094 C 13.824219 4.898438 13.722656 4.921875 13.675781 4.921875 C 13.628906 4.921875 13.578125 4.9375 13.558594 4.957031 C 13.539062 4.972656 13.484375 4.988281 13.429688 4.988281 C 13.371094 4.988281 13.265625 5.011719 13.199219 5.035156 C 13.125 5.0625 13 5.101562 12.914062 5.121094 C 12.566406 5.222656 11.710938 5.492188 11.605469 5.539062 C 11.53125 5.5625 11.292969 5.644531 11.152344 5.679688 C 11.113281 5.695312 10.96875 5.746094 10.832031 5.800781 C 10.691406 5.855469 10.492188 5.9375 10.378906 5.980469 C 10.257812 6.023438 10.164062 6.066406 10.164062 6.085938 C 10.164062 6.09375 10.140625 6.113281 10.109375 6.113281 C 10.054688 6.113281 9.449219 6.386719 9.429688 6.421875 C 9.417969 6.441406 9.386719 6.449219 9.359375 6.449219 C 9.285156 6.449219 8.695312 6.746094 8.207031 7.019531 C 8.039062 7.125 7.8125 7.246094 7.703125 7.304688 C 7.367188 7.480469 5.90625 8.507812 5.558594 8.804688 C 5.386719 8.957031 5.21875 9.101562 5.1875 9.132812 C 5.132812 9.179688 4.671875 9.601562 4.425781 9.832031 C 4.367188 9.890625 4.316406 9.957031 4.316406 9.976562 C 4.316406 10.003906 4.296875 10.015625 4.269531 10.015625 C 4.246094 10.015625 4.1875 10.070312 4.136719 10.136719 C 4.082031 10.207031 4.03125 10.277344 4.011719 10.285156 C 3.996094 10.292969 3.917969 10.382812 3.835938 10.488281 C 3.757812 10.589844 3.664062 10.699219 3.632812 10.722656 C 3.597656 10.742188 3.566406 10.785156 3.566406 10.8125 C 3.566406 10.839844 3.550781 10.859375 3.519531 10.859375 C 3.492188 10.859375 3.472656 10.886719 3.472656 10.925781 C 3.472656 10.957031 3.453125 10.996094 3.425781 11.015625 C 3.382812 11.050781 3.082031 11.453125 2.847656 11.792969 C 2.773438 11.90625 2.683594 12.039062 2.648438 12.089844 C 2.609375 12.136719 2.578125 12.207031 2.578125 12.234375 C 2.578125 12.253906 2.519531 12.355469 2.453125 12.453125 C 2.386719 12.542969 2.332031 12.644531 2.332031 12.671875 C 2.332031 12.699219 2.273438 12.808594 2.207031 12.933594 C 2.136719 13.046875 2.082031 13.183594 2.082031 13.21875 C 2.082031 13.257812 2.0625 13.308594 2.039062 13.324219 C 1.996094 13.363281 1.910156 13.554688 1.835938 13.800781 C 1.808594 13.871094 1.757812 14.03125 1.707031 14.152344 C 1.65625 14.277344 1.617188 14.453125 1.605469 14.542969 C 1.59375 14.640625 1.558594 14.746094 1.53125 14.78125 C 1.46875 14.882812 1.382812 15.308594 1.335938 15.835938 C 1.3125 16.074219 1.277344 16.382812 1.25 16.519531 C 1.230469 16.648438 1.234375 16.8125 1.253906 16.875 C 1.28125 16.941406 1.320312 17.308594 1.335938 17.703125 C 1.382812 18.445312 1.457031 18.972656 1.539062 19.078125 C 1.5625 19.109375 1.582031 19.222656 1.582031 19.324219 C 1.582031 19.429688 1.609375 19.523438 1.628906 19.527344 C 1.65625 19.539062 1.691406 19.636719 1.707031 19.734375 C 1.726562 19.835938 1.765625 19.933594 1.785156 19.941406 C 1.8125 19.953125 1.835938 20.023438 1.835938 20.09375 C 1.835938 20.164062 1.855469 20.230469 1.878906 20.246094 C 1.898438 20.257812 1.9375 20.332031 1.953125 20.414062 C 1.972656 20.5 2.011719 20.578125 2.039062 20.589844 C 2.0625 20.597656 2.085938 20.636719 2.085938 20.679688 C 2.089844 20.765625 2.246094 21.097656 2.296875 21.136719 C 2.3125 21.152344 2.332031 21.1875 2.332031 21.210938 C 2.332031 21.242188 2.390625 21.367188 2.460938 21.488281 C 2.53125 21.609375 2.621094 21.765625 2.667969 21.84375 C 2.757812 22.003906 3.625 23.230469 3.660156 23.25 C 3.679688 23.261719 3.730469 23.3125 3.769531 23.367188 C 3.886719 23.519531 3.988281 23.636719 4.011719 23.65625 C 4.03125 23.667969 4.085938 23.726562 4.140625 23.800781 C 4.238281 23.921875 4.671875 24.375 4.792969 24.472656 C 4.824219 24.5 5.046875 24.691406 5.285156 24.898438 C 5.523438 25.105469 5.746094 25.285156 5.777344 25.304688 C 5.804688 25.324219 5.886719 25.390625 5.957031 25.460938 C 6.183594 25.671875 7.390625 26.476562 7.886719 26.753906 C 8.003906 26.816406 8.183594 26.921875 8.277344 26.980469 C 8.371094 27.039062 8.46875 27.082031 8.492188 27.082031 C 8.515625 27.082031 8.589844 27.128906 8.65625 27.171875 C 8.726562 27.222656 8.84375 27.28125 8.917969 27.316406 C 9.035156 27.367188 9.425781 27.558594 9.542969 27.621094 C 9.574219 27.640625 9.671875 27.679688 9.765625 27.71875 C 9.863281 27.75 9.949219 27.789062 9.960938 27.800781 C 10.035156 27.855469 10.667969 28.109375 10.726562 28.109375 C 10.765625 28.109375 10.808594 28.117188 10.816406 28.128906 C 10.84375 28.175781 12.082031 28.613281 12.1875 28.613281 C 12.222656 28.613281 12.285156 28.632812 12.316406 28.65625 C 12.359375 28.683594 12.488281 28.730469 12.613281 28.757812 C 12.742188 28.78125 12.84375 28.808594 12.84375 28.828125 C 12.84375 28.835938 12.921875 28.859375 13.015625 28.871094 C 13.109375 28.886719 13.199219 28.910156 13.214844 28.921875 C 13.230469 28.941406 13.292969 28.957031 13.363281 28.957031 C 13.429688 28.957031 13.484375 28.96875 13.484375 28.988281 C 13.484375 29.007812 13.574219 29.03125 13.679688 29.046875 C 13.789062 29.054688 13.898438 29.074219 13.910156 29.09375 C 13.925781 29.109375 13.996094 29.125 14.070312 29.125 C 14.140625 29.125 14.246094 29.148438 14.300781 29.179688 C 14.351562 29.199219 14.460938 29.226562 14.535156 29.226562 C 14.605469 29.226562 14.683594 29.242188 14.703125 29.257812 C 14.71875 29.28125 14.785156 29.292969 14.84375 29.292969 C 14.90625 29.292969 15.023438 29.3125 15.105469 29.339844 C 15.179688 29.371094 15.324219 29.394531 15.429688 29.394531 C 15.527344 29.394531 15.625 29.40625 15.640625 29.429688 C 15.652344 29.449219 15.78125 29.460938 15.90625 29.460938 C 16.042969 29.460938 16.164062 29.480469 16.171875 29.503906 C 16.183594 29.519531 16.339844 29.542969 16.523438 29.554688 C 16.703125 29.566406 16.867188 29.589844 16.878906 29.601562 C 16.898438 29.621094 17.105469 29.636719 17.351562 29.636719 C 17.65625 29.636719 17.796875 29.644531 17.8125 29.671875 C 17.84375 29.746094 96.09375 29.753906 96.191406 29.6875 C 96.234375 29.65625 96.296875 29.636719 96.339844 29.636719 C 96.859375 29.636719 97.808594 28.828125 97.808594 28.382812 C 97.808594 28.292969 97.832031 28.203125 97.855469 28.1875 C 97.929688 28.164062 97.929688 5.851562 97.855469 5.824219 C 97.832031 5.808594 97.808594 5.71875 97.808594 5.621094 C 97.808594 5.199219 97.042969 4.410156 96.628906 4.410156 C 96.605469 4.410156 96.554688 4.390625 96.523438 4.367188 C 96.488281 4.332031 96.410156 4.308594 96.351562 4.308594 C 96.292969 4.308594 96.214844 4.296875 96.183594 4.269531 C 96.109375 4.214844 18.695312 4.199219 18.144531 4.25 M 22.234375 5.71875 C 23.253906 5.761719 28.402344 5.769531 58.152344 5.773438 C 82.191406 5.773438 92.980469 5.777344 93.199219 5.804688 C 94.058594 5.902344 94.714844 6.3125 94.910156 6.886719 C 95.015625 7.167969 95.015625 26.773438 94.914062 27.050781 C 94.75 27.523438 94.34375 27.855469 93.714844 28.039062 L 93.324219 28.15625 L 58.027344 28.175781 C 30.503906 28.1875 22.601562 28.203125 22.160156 28.234375 C 21.214844 28.304688 19.554688 28.269531 19.554688 28.1875 C 19.554688 28.125 19.601562 28.121094 20.449219 28.097656 C 21.023438 28.085938 21.449219 28.058594 21.636719 28.023438 C 21.800781 27.992188 21.992188 27.96875 22.074219 27.96875 C 22.152344 27.96875 22.308594 27.957031 22.425781 27.9375 C 22.539062 27.925781 22.816406 27.878906 23.050781 27.851562 C 23.28125 27.820312 23.605469 27.777344 23.769531 27.75 C 24.074219 27.703125 25.136719 27.644531 25.40625 27.664062 C 25.980469 27.699219 92.269531 27.699219 92.5 27.664062 C 93.226562 27.554688 93.71875 27.257812 93.917969 26.789062 C 94.023438 26.550781 94.027344 7.460938 93.921875 7.183594 C 93.746094 6.71875 93.316406 6.429688 92.582031 6.292969 C 92.210938 6.21875 25.792969 6.21875 25.585938 6.292969 C 25.476562 6.332031 25.378906 6.332031 24.960938 6.292969 C 24.6875 6.265625 24.335938 6.246094 24.183594 6.246094 C 24.027344 6.242188 23.835938 6.230469 23.761719 6.210938 C 23.46875 6.128906 22.476562 6.007812 21.84375 5.976562 C 21.546875 5.953125 21.226562 5.925781 21.125 5.910156 C 21.023438 5.886719 20.632812 5.863281 20.242188 5.851562 C 19.621094 5.832031 19.539062 5.824219 19.519531 5.769531 C 19.472656 5.648438 20.269531 5.640625 22.234375 5.71875 M 18.972656 5.730469 C 18.847656 5.734375 18.632812 5.734375 18.5 5.730469 C 18.371094 5.71875 18.480469 5.714844 18.742188 5.714844 C 18.996094 5.714844 19.105469 5.71875 18.972656 5.730469 M 17.660156 5.824219 C 17.601562 5.835938 17.488281 5.835938 17.414062 5.824219 C 17.339844 5.824219 17.390625 5.816406 17.523438 5.816406 C 17.660156 5.816406 17.726562 5.824219 17.660156 5.824219 M 16.894531 5.894531 C 16.84375 5.902344 16.769531 5.902344 16.71875 5.894531 C 16.671875 5.886719 16.710938 5.878906 16.808594 5.878906 C 16.902344 5.878906 16.941406 5.886719 16.894531 5.894531 M 16.292969 6 C 16.25 6.007812 16.171875 6.007812 16.125 6 C 16.078125 5.992188 16.109375 5.980469 16.210938 5.980469 C 16.304688 5.980469 16.34375 5.992188 16.292969 6 M 20.996094 6.367188 C 21.457031 6.382812 21.847656 6.398438 21.867188 6.421875 C 21.890625 6.449219 22.390625 6.5 23.027344 6.539062 C 23.191406 6.550781 23.339844 6.574219 23.355469 6.59375 C 23.375 6.617188 23.5 6.640625 23.628906 6.65625 C 24.140625 6.714844 24.222656 6.726562 24.363281 6.773438 C 24.445312 6.789062 24.613281 6.835938 24.738281 6.863281 C 24.859375 6.886719 25.074219 6.9375 25.21875 6.980469 C 25.359375 7.019531 25.523438 7.0625 25.578125 7.0625 C 25.632812 7.0625 25.679688 7.074219 25.679688 7.09375 C 25.679688 7.109375 25.746094 7.132812 25.824219 7.144531 C 25.90625 7.15625 25.984375 7.175781 26.007812 7.199219 C 26.019531 7.214844 26.070312 7.226562 26.113281 7.226562 C 26.207031 7.226562 27.078125 7.53125 27.644531 7.757812 C 27.832031 7.828125 28.007812 7.902344 28.03125 7.902344 C 28.058594 7.910156 28.09375 7.925781 28.105469 7.945312 C 28.125 7.957031 28.226562 8.003906 28.335938 8.050781 C 29.421875 8.472656 31.28125 9.605469 32 10.265625 C 32.082031 10.339844 32.160156 10.414062 32.175781 10.421875 C 32.3125 10.511719 33.214844 11.414062 33.214844 11.460938 C 33.214844 11.480469 33.246094 11.507812 33.277344 11.535156 C 33.507812 11.691406 34.324219 12.871094 34.601562 13.441406 C 34.664062 13.5625 34.726562 13.691406 34.75 13.730469 C 34.800781 13.808594 34.84375 13.9375 34.886719 14.121094 C 34.898438 14.183594 34.941406 14.265625 34.972656 14.289062 C 35.007812 14.316406 35.050781 14.402344 35.066406 14.476562 C 35.078125 14.554688 35.128906 14.730469 35.171875 14.863281 C 35.222656 15.007812 35.269531 15.226562 35.28125 15.363281 C 35.296875 15.488281 35.324219 15.613281 35.34375 15.632812 C 35.371094 15.652344 35.398438 15.875 35.417969 16.128906 C 35.433594 16.382812 35.476562 16.640625 35.5 16.699219 C 35.5625 16.8125 35.542969 17.082031 35.421875 17.890625 C 35.378906 18.171875 35.328125 18.511719 35.316406 18.613281 C 35.304688 18.726562 35.269531 18.847656 35.246094 18.890625 C 35.222656 18.929688 35.179688 19.050781 35.148438 19.164062 C 35.066406 19.476562 35.015625 19.621094 34.925781 19.824219 C 34.878906 19.921875 34.832031 20.054688 34.816406 20.113281 C 34.800781 20.164062 34.769531 20.230469 34.75 20.25 C 34.734375 20.269531 34.675781 20.363281 34.625 20.472656 C 34.582031 20.570312 34.488281 20.738281 34.421875 20.832031 C 34.359375 20.933594 34.308594 21.023438 34.308594 21.035156 C 34.308594 21.1875 32.875 22.976562 32.671875 23.082031 C 32.65625 23.089844 32.488281 23.242188 32.296875 23.421875 C 31.867188 23.832031 31.722656 23.945312 30.839844 24.542969 C 29.703125 25.3125 29.21875 25.5625 27.613281 26.238281 C 27.234375 26.398438 25.859375 26.832031 25.40625 26.933594 C 25.273438 26.96875 25.117188 27.007812 25.058594 27.019531 C 25.003906 27.035156 24.828125 27.074219 24.664062 27.105469 C 24.5 27.140625 24.34375 27.183594 24.320312 27.195312 C 24.289062 27.214844 24.230469 27.222656 24.171875 27.222656 C 24.0625 27.222656 23.566406 27.316406 23.4375 27.363281 C 23.386719 27.378906 23.25 27.394531 23.128906 27.394531 C 23.007812 27.394531 22.894531 27.410156 22.882812 27.421875 C 22.871094 27.4375 22.707031 27.460938 22.523438 27.472656 C 22.335938 27.488281 22.164062 27.511719 22.136719 27.523438 C 21.914062 27.652344 18.53125 27.617188 17.503906 27.480469 C 17.265625 27.445312 16.976562 27.414062 16.855469 27.410156 C 16.734375 27.398438 16.589844 27.371094 16.535156 27.355469 C 16.433594 27.324219 16.15625 27.277344 15.789062 27.226562 C 15.488281 27.183594 15.199219 27.117188 15.148438 27.082031 C 15.125 27.066406 15.050781 27.050781 14.984375 27.050781 C 14.921875 27.050781 14.828125 27.039062 14.785156 27.023438 C 14.738281 27.007812 14.589844 26.96875 14.449219 26.933594 C 13.933594 26.8125 12.847656 26.449219 12.097656 26.136719 C 11.972656 26.089844 11.789062 26.015625 11.691406 25.988281 C 11.585938 25.957031 11.492188 25.914062 11.476562 25.894531 C 11.457031 25.882812 11.347656 25.828125 11.238281 25.773438 C 10.0625 25.269531 7.925781 23.847656 7.359375 23.191406 C 7.308594 23.128906 7.25 23.082031 7.226562 23.082031 C 7.207031 23.082031 7.1875 23.058594 7.1875 23.035156 C 7.1875 23.007812 7.171875 22.980469 7.152344 22.976562 C 7.007812 22.9375 5.703125 21.3125 5.703125 21.1875 C 5.703125 21.164062 5.683594 21.152344 5.664062 21.152344 C 5.640625 21.152344 5.597656 21.074219 5.554688 20.984375 C 5.523438 20.894531 5.464844 20.796875 5.429688 20.757812 C 5.398438 20.71875 5.328125 20.597656 5.28125 20.484375 C 5.226562 20.371094 5.175781 20.269531 5.148438 20.25 C 5.125 20.230469 5.105469 20.175781 5.105469 20.121094 C 5.105469 20.070312 5.082031 20.023438 5.054688 20.007812 C 5.027344 19.996094 5.011719 19.945312 5.011719 19.902344 C 5.011719 19.859375 4.972656 19.765625 4.9375 19.707031 C 4.867188 19.605469 4.835938 19.507812 4.765625 19.171875 C 4.738281 19.058594 4.699219 18.953125 4.667969 18.929688 C 4.644531 18.90625 4.609375 18.78125 4.589844 18.652344 C 4.574219 18.519531 4.542969 18.199219 4.511719 17.945312 C 4.484375 17.6875 4.441406 17.449219 4.414062 17.414062 C 4.34375 17.324219 4.347656 16.253906 4.414062 16.203125 C 4.445312 16.179688 4.492188 15.996094 4.519531 15.785156 C 4.609375 15.050781 4.621094 14.984375 4.667969 14.949219 C 4.695312 14.925781 4.734375 14.824219 4.765625 14.722656 C 4.851562 14.351562 4.867188 14.304688 4.9375 14.203125 C 4.972656 14.140625 5.011719 14.054688 5.011719 14.007812 C 5.011719 13.957031 5.027344 13.910156 5.054688 13.898438 C 5.082031 13.890625 5.105469 13.839844 5.105469 13.78125 C 5.105469 13.726562 5.125 13.671875 5.148438 13.664062 C 5.179688 13.652344 5.230469 13.554688 5.28125 13.453125 C 5.328125 13.34375 5.382812 13.238281 5.402344 13.21875 C 5.425781 13.203125 5.472656 13.113281 5.523438 13.015625 C 5.664062 12.753906 6.257812 11.898438 6.476562 11.671875 C 6.539062 11.597656 6.59375 11.527344 6.59375 11.507812 C 6.59375 11.484375 6.609375 11.472656 6.636719 11.472656 C 6.660156 11.472656 6.722656 11.414062 6.769531 11.351562 C 6.824219 11.273438 6.878906 11.210938 6.898438 11.199219 C 6.914062 11.195312 6.984375 11.125 7.058594 11.046875 C 7.441406 10.648438 7.832031 10.292969 8.128906 10.078125 C 8.242188 10.003906 8.464844 9.832031 8.617188 9.710938 C 9 9.425781 9.097656 9.355469 9.496094 9.117188 C 9.683594 9.003906 9.882812 8.882812 9.9375 8.847656 C 9.996094 8.804688 10.175781 8.707031 10.339844 8.625 C 10.503906 8.539062 10.644531 8.460938 10.648438 8.445312 C 10.660156 8.433594 10.691406 8.417969 10.726562 8.417969 C 10.757812 8.417969 10.839844 8.386719 10.90625 8.34375 C 10.972656 8.296875 11.183594 8.199219 11.378906 8.113281 C 11.570312 8.03125 11.730469 7.953125 11.738281 7.941406 C 11.75 7.925781 11.785156 7.90625 11.808594 7.90625 C 11.835938 7.90625 12.007812 7.847656 12.175781 7.769531 C 12.347656 7.695312 12.515625 7.636719 12.542969 7.636719 C 12.566406 7.636719 12.59375 7.617188 12.59375 7.605469 C 12.59375 7.585938 12.621094 7.570312 12.667969 7.570312 C 12.746094 7.570312 13.050781 7.460938 13.078125 7.425781 C 13.089844 7.410156 13.125 7.398438 13.164062 7.398438 C 13.199219 7.398438 13.347656 7.359375 13.492188 7.308594 C 13.640625 7.257812 13.8125 7.203125 13.882812 7.191406 C 13.949219 7.171875 14.066406 7.132812 14.144531 7.105469 C 14.222656 7.082031 14.316406 7.0625 14.355469 7.0625 C 14.425781 7.0625 14.464844 7.050781 14.765625 6.949219 C 14.855469 6.914062 14.980469 6.890625 15.046875 6.890625 C 15.113281 6.890625 15.179688 6.875 15.199219 6.859375 C 15.214844 6.839844 15.277344 6.824219 15.332031 6.824219 C 15.394531 6.824219 15.507812 6.796875 15.578125 6.773438 C 15.660156 6.742188 15.789062 6.722656 15.867188 6.722656 C 15.945312 6.722656 16.019531 6.707031 16.035156 6.683594 C 16.054688 6.667969 16.136719 6.65625 16.21875 6.65625 C 16.300781 6.65625 16.441406 6.628906 16.527344 6.601562 C 16.679688 6.550781 16.773438 6.546875 17.578125 6.484375 C 17.800781 6.472656 18.023438 6.445312 18.085938 6.421875 C 18.144531 6.394531 18.480469 6.382812 18.917969 6.378906 C 19.324219 6.378906 19.710938 6.359375 19.78125 6.347656 C 19.847656 6.332031 19.957031 6.328125 20.027344 6.335938 C 20.097656 6.347656 20.53125 6.363281 20.996094 6.367188 M 91.820312 9.042969 C 91.894531 9.160156 91.652344 9.507812 91.253906 9.84375 C 90.632812 10.375 90.582031 10.449219 90.175781 11.484375 C 90.125 11.613281 90.054688 11.792969 89.707031 12.636719 C 89.554688 13.007812 89.386719 13.425781 89.332031 13.574219 C 89.273438 13.710938 89.195312 13.910156 89.160156 14 C 89.121094 14.09375 89.03125 14.316406 88.960938 14.492188 C 88.890625 14.671875 88.800781 14.902344 88.757812 15.003906 C 88.578125 15.453125 88.460938 15.753906 88.25 16.292969 C 88.167969 16.507812 88.050781 16.800781 87.996094 16.941406 C 87.941406 17.078125 87.839844 17.332031 87.777344 17.5 C 87.710938 17.664062 87.582031 17.984375 87.496094 18.210938 C 87.261719 18.804688 87.265625 18.757812 87.4375 18.863281 C 87.703125 19.03125 88.046875 19.078125 88.460938 18.992188 C 89.390625 18.796875 89.566406 19.230469 88.769531 19.765625 C 87.070312 20.917969 85.011719 20.804688 85.421875 19.59375 C 85.53125 19.277344 85.722656 18.75 85.789062 18.582031 C 85.828125 18.488281 85.910156 18.289062 85.964844 18.140625 C 86.066406 17.890625 86.125 17.734375 86.414062 17.035156 C 86.558594 16.683594 86.71875 16.285156 86.925781 15.730469 C 87.109375 15.253906 87.140625 15.183594 87.476562 14.308594 C 87.578125 14.046875 87.675781 13.78125 87.699219 13.710938 C 87.742188 13.582031 87.824219 13.378906 88.023438 12.964844 C 88.097656 12.804688 88.167969 12.628906 88.195312 12.574219 C 88.214844 12.519531 88.292969 12.339844 88.371094 12.1875 C 88.683594 11.496094 88.886719 10.972656 88.945312 10.71875 C 89.011719 10.394531 88.960938 10.324219 88.476562 10.085938 C 87.667969 9.691406 87.730469 9.507812 88.6875 9.457031 C 89.4375 9.421875 89.890625 9.351562 90.574219 9.152344 C 91.375 8.925781 91.71875 8.894531 91.820312 9.042969 M 12.863281 9.847656 C 12.582031 9.878906 11.777344 9.988281 11.402344 10.046875 C 11.105469 10.085938 10.191406 10.367188 9.796875 10.527344 C 7.503906 11.484375 6.457031 13.070312 6.71875 15.179688 C 6.753906 15.503906 6.804688 15.800781 6.816406 15.835938 C 6.828125 15.871094 6.882812 16.03125 6.9375 16.1875 C 7.566406 18.019531 9.449219 20.003906 12.617188 22.179688 C 13.878906 23.054688 14.375 23.355469 16.136719 24.351562 C 16.535156 24.582031 18.144531 25.40625 18.464844 25.539062 C 20.179688 26.296875 19.921875 26.273438 21.128906 25.757812 C 26.9375 23.28125 32.386719 18.910156 33.226562 16.054688 C 33.273438 15.917969 33.335938 15.710938 33.367188 15.601562 C 33.445312 15.332031 33.445312 14.03125 33.367188 13.765625 C 33.335938 13.652344 33.273438 13.445312 33.226562 13.308594 C 32.8125 11.886719 31.273438 10.691406 29.199219 10.175781 C 27.492188 9.75 26.113281 9.707031 24.414062 10.023438 C 23.144531 10.257812 21.644531 10.917969 20.582031 11.707031 C 20.015625 12.125 20.050781 12.125 19.515625 11.707031 C 17.800781 10.371094 15.074219 9.617188 12.863281 9.847656 M 44.125 11.914062 C 45.398438 12.027344 46.617188 12.324219 46.886719 12.59375 C 47.054688 12.761719 47.054688 13.644531 46.882812 13.820312 C 46.617188 14.089844 46.136719 13.976562 46.007812 13.609375 C 45.765625 12.921875 44.945312 12.582031 43.503906 12.578125 C 40.664062 12.574219 39.714844 14.277344 42.011719 15.257812 C 42.347656 15.398438 42.78125 15.546875 43.972656 15.921875 C 44.285156 16.019531 44.773438 16.171875 45.058594 16.261719 C 45.339844 16.355469 45.585938 16.429688 45.605469 16.429688 C 45.628906 16.429688 45.824219 16.507812 46.035156 16.605469 C 48.777344 17.824219 47.910156 20.152344 44.515625 20.6875 C 42.566406 20.984375 39.726562 20.539062 39.214844 19.859375 C 39.074219 19.675781 39.070312 18.902344 39.195312 18.773438 C 39.4375 18.535156 40.003906 18.59375 40.082031 18.863281 C 40.277344 19.523438 40.714844 19.796875 41.964844 20.035156 C 42.328125 20.097656 43.757812 20.09375 44.125 20.019531 C 45.34375 19.785156 45.925781 19.382812 45.925781 18.789062 C 45.933594 18.070312 45.375 17.71875 43.003906 16.953125 C 39.941406 15.960938 39.296875 15.582031 39.105469 14.660156 C 38.753906 12.941406 41.113281 11.652344 44.125 11.914062 M 74.613281 12.738281 C 75.539062 12.957031 75.46875 13.90625 74.515625 14.136719 C 73.546875 14.367188 72.761719 13.78125 73.195312 13.148438 C 73.453125 12.785156 74.074219 12.605469 74.613281 12.738281 M 52.785156 13.882812 C 53.109375 14.023438 53.132812 14.089844 52.996094 14.539062 C 52.890625 14.898438 53.320312 15.011719 54.109375 14.84375 C 55.636719 14.527344 56.820312 15.480469 56.488281 16.761719 C 56.417969 17.039062 56.386719 17.136719 56.234375 17.511719 C 55.835938 18.496094 55.050781 19.226562 53.984375 19.609375 C 53.527344 19.769531 53.394531 19.792969 52.503906 19.84375 C 51.269531 19.910156 51.082031 20.003906 50.636719 20.804688 C 49.375 23.105469 49.253906 23.914062 50.164062 24.054688 C 51.03125 24.1875 51.507812 24.351562 51.507812 24.519531 C 51.507812 24.898438 51.035156 24.945312 49.699219 24.722656 C 49.417969 24.671875 49.121094 24.664062 48.113281 24.664062 C 46.894531 24.660156 46.867188 24.660156 46.710938 24.582031 C 46.375 24.414062 46.445312 24.285156 46.945312 24.125 C 47.652344 23.902344 47.832031 23.695312 48.257812 22.625 C 48.304688 22.53125 48.363281 22.371094 48.410156 22.265625 C 48.535156 21.976562 48.566406 21.902344 48.703125 21.574219 C 48.902344 21.078125 49.101562 20.585938 49.269531 20.164062 C 49.347656 19.945312 49.457031 19.683594 49.492188 19.585938 C 49.539062 19.484375 49.628906 19.253906 49.699219 19.078125 C 49.769531 18.902344 49.859375 18.683594 49.894531 18.582031 C 49.933594 18.488281 50.003906 18.304688 50.0625 18.15625 C 50.226562 17.746094 50.308594 17.539062 50.386719 17.347656 C 50.988281 15.859375 50.980469 15.875 50.625 15.835938 C 49.859375 15.734375 49.808594 15.507812 50.484375 15.214844 C 50.992188 14.992188 51.136719 14.886719 51.207031 14.703125 C 51.46875 14.050781 51.539062 13.949219 51.824219 13.871094 C 52.066406 13.792969 52.585938 13.800781 52.785156 13.882812 M 83.8125 14.480469 C 83.972656 14.648438 83.914062 14.800781 83.164062 16.089844 C 81.960938 18.140625 81.691406 18.910156 82.046875 19.222656 C 82.300781 19.445312 82.621094 19.359375 83.304688 18.878906 C 84.011719 18.386719 84.214844 18.3125 84.328125 18.527344 C 84.621094 19.046875 82.554688 20.566406 81.550781 20.566406 C 80.796875 20.566406 80.457031 20.121094 80.628906 19.367188 C 80.792969 18.640625 80.792969 18.640625 79.644531 19.414062 C 78.046875 20.480469 77.34375 20.742188 76.714844 20.519531 C 74.332031 19.679688 77.925781 15.398438 81.449219 14.871094 C 81.710938 14.828125 82.019531 14.78125 82.132812 14.765625 C 82.253906 14.75 82.410156 14.730469 82.484375 14.730469 C 82.5625 14.730469 82.78125 14.664062 83.011719 14.5625 C 83.472656 14.359375 83.675781 14.335938 83.8125 14.480469 M 3.804688 14.753906 C 3.789062 14.792969 3.777344 14.765625 3.777344 14.695312 C 3.777344 14.628906 3.789062 14.601562 3.804688 14.640625 C 3.8125 14.671875 3.8125 14.722656 3.804688 14.753906 M 36.125 14.894531 C 36.113281 14.929688 36.101562 14.902344 36.101562 14.832031 C 36.101562 14.769531 36.113281 14.742188 36.125 14.773438 C 36.136719 14.804688 36.136719 14.859375 36.125 14.894531 M 61.636719 14.796875 C 63.453125 15.003906 63.835938 16.382812 62.308594 17.183594 C 61.382812 17.664062 60.722656 17.785156 59.363281 17.707031 C 58.613281 17.660156 58.339844 17.871094 58.304688 18.523438 C 58.25 19.746094 59.648438 19.9375 61.535156 18.953125 C 62.078125 18.671875 62.097656 18.664062 62.3125 18.683594 C 62.886719 18.722656 62.859375 19.046875 62.246094 19.566406 C 60.5625 20.976562 57.742188 20.921875 57.074219 19.46875 C 56.160156 17.449219 58.109375 15.015625 60.828125 14.800781 C 61.292969 14.765625 61.316406 14.765625 61.636719 14.796875 M 68.984375 14.871094 C 69.847656 15.011719 70.199219 15.21875 70.199219 15.554688 C 70.199219 16.089844 69.554688 16.25 68.753906 15.902344 C 68.207031 15.671875 67.796875 15.652344 67.136719 15.804688 C 65.117188 16.269531 63.765625 19.003906 65.3125 19.488281 C 65.761719 19.625 66.171875 19.582031 67.277344 19.261719 C 68.03125 19.042969 68.269531 19.027344 68.507812 19.164062 C 69.339844 19.644531 67.550781 20.566406 65.792969 20.566406 C 64.355469 20.566406 63.566406 20.007812 63.382812 18.851562 C 62.992188 16.4375 65.917969 14.355469 68.984375 14.871094 M 74.554688 14.859375 C 74.9375 15.042969 74.847656 15.304688 74.152344 16.0625 C 74.023438 16.210938 73.863281 16.410156 73.804688 16.496094 C 73.75 16.578125 73.675781 16.695312 73.640625 16.746094 C 73.222656 17.378906 72.675781 18.640625 72.675781 18.992188 C 72.675781 19.320312 73.078125 19.417969 73.640625 19.230469 C 73.949219 19.128906 74.0625 19.128906 74.203125 19.210938 C 74.890625 19.652344 72.277344 20.851562 71.347656 20.519531 C 70.578125 20.25 70.636719 19.582031 71.589844 17.953125 C 72.394531 16.5625 72.394531 16.535156 71.503906 16.410156 C 70.960938 16.339844 71.367188 15.941406 72.625 15.300781 C 73.636719 14.792969 74.15625 14.671875 74.554688 14.859375 M 3.65625 15.234375 C 3.640625 15.265625 3.632812 15.238281 3.632812 15.167969 C 3.632812 15.109375 3.640625 15.085938 3.65625 15.117188 C 3.664062 15.148438 3.664062 15.195312 3.65625 15.234375 M 36.273438 15.453125 C 36.261719 15.492188 36.25 15.457031 36.25 15.375 C 36.25 15.289062 36.261719 15.257812 36.273438 15.300781 C 36.285156 15.34375 36.285156 15.414062 36.273438 15.453125 M 53.21875 15.476562 C 52.648438 15.675781 52.1875 16.304688 51.851562 17.347656 C 51.832031 17.410156 51.765625 17.597656 51.714844 17.753906 C 51.464844 18.488281 51.445312 18.71875 51.605469 18.902344 C 51.816406 19.136719 52.355469 19.207031 52.875 19.074219 C 54.039062 18.773438 55.371094 16.894531 55.015625 16.070312 C 54.792969 15.570312 53.851562 15.257812 53.21875 15.476562 M 3.558594 15.894531 C 3.546875 15.953125 3.53125 15.917969 3.53125 15.804688 C 3.53125 15.6875 3.546875 15.636719 3.558594 15.6875 C 3.5625 15.742188 3.5625 15.835938 3.558594 15.894531 M 60.613281 15.71875 C 59.90625 15.832031 59.179688 16.566406 59.441406 16.910156 C 59.765625 17.320312 61.460938 16.964844 61.71875 16.4375 C 61.910156 16.039062 61.269531 15.621094 60.613281 15.71875 M 36.375 16.296875 C 36.363281 16.398438 36.359375 16.324219 36.359375 16.140625 C 36.359375 15.953125 36.363281 15.871094 36.375 15.960938 C 36.386719 16.050781 36.386719 16.203125 36.375 16.296875 M 80.710938 15.898438 C 79.023438 16.226562 76.703125 18.628906 77.503906 19.222656 C 78.105469 19.667969 80.113281 18.511719 81.316406 17.035156 C 82.09375 16.082031 81.871094 15.675781 80.710938 15.898438 M 36.375 18.066406 C 36.363281 18.148438 36.359375 18.082031 36.359375 17.921875 C 36.359375 17.761719 36.363281 17.695312 36.375 17.78125 C 36.386719 17.859375 36.386719 17.984375 36.375 18.066406 M 3.558594 18.066406 C 3.546875 18.148438 3.53125 18.089844 3.53125 17.941406 C 3.53125 17.792969 3.546875 17.722656 3.558594 17.796875 C 3.5625 17.863281 3.5625 17.984375 3.558594 18.066406 M 36.273438 18.714844 C 36.261719 18.75 36.25 18.71875 36.25 18.636719 C 36.25 18.550781 36.261719 18.515625 36.273438 18.558594 C 36.285156 18.597656 36.285156 18.667969 36.273438 18.714844 M 3.65625 18.746094 C 3.644531 18.789062 3.632812 18.75 3.632812 18.667969 C 3.632812 18.585938 3.644531 18.550781 3.65625 18.59375 C 3.664062 18.636719 3.664062 18.703125 3.65625 18.746094 M 3.804688 19.238281 C 3.789062 19.265625 3.777344 19.238281 3.777344 19.179688 C 3.777344 19.109375 3.789062 19.082031 3.804688 19.121094 C 3.8125 19.152344 3.8125 19.207031 3.804688 19.238281 M 20.164062 27.6875 C 20.253906 27.699219 20.265625 27.71875 20.21875 27.75 C 20.148438 27.8125 19.78125 27.8125 19.78125 27.753906 C 19.78125 27.667969 19.917969 27.640625 20.164062 27.6875 M 16.917969 28.058594 C 16.855469 28.074219 16.753906 28.074219 16.691406 28.058594 C 16.632812 28.054688 16.683594 28.046875 16.808594 28.046875 C 16.929688 28.046875 16.976562 28.054688 16.917969 28.058594 M 17.609375 28.128906 C 17.554688 28.140625 17.449219 28.140625 17.390625 28.128906 C 17.328125 28.121094 17.378906 28.113281 17.503906 28.113281 C 17.625 28.113281 17.671875 28.121094 17.609375 28.128906 M 18.679688 28.230469 C 18.570312 28.238281 18.417969 28.238281 18.328125 28.230469 C 18.238281 28.226562 18.324219 28.214844 18.511719 28.214844 C 18.710938 28.214844 18.777344 28.226562 18.679688 28.230469 "/>
<path style=" stroke:none;fill-rule:evenodd;fill:rgb(92.941176%,29.803922%,29.803922%);fill-opacity:1;" d="M 19.550781 5.6875 C 19.523438 5.695312 19.503906 5.734375 19.519531 5.769531 C 19.539062 5.824219 19.621094 5.832031 20.242188 5.851562 C 20.632812 5.863281 21.023438 5.886719 21.125 5.910156 C 21.226562 5.925781 21.546875 5.953125 21.84375 5.976562 C 22.476562 6.007812 23.46875 6.128906 23.761719 6.210938 C 23.835938 6.230469 24.007812 6.242188 24.136719 6.242188 C 24.328125 6.238281 24.335938 6.234375 24.191406 6.21875 C 24.097656 6.214844 23.808594 6.175781 23.550781 6.128906 C 23.289062 6.085938 22.832031 6.023438 22.53125 5.992188 C 22.230469 5.957031 21.777344 5.910156 21.515625 5.886719 C 21.257812 5.859375 20.714844 5.828125 20.3125 5.820312 C 19.742188 5.800781 19.582031 5.789062 19.582031 5.753906 C 19.582031 5.714844 19.757812 5.703125 20.460938 5.695312 L 21.339844 5.683594 L 20.472656 5.675781 C 19.996094 5.671875 19.582031 5.679688 19.550781 5.6875 M 21.925781 5.730469 C 22 5.734375 22.109375 5.734375 22.171875 5.730469 C 22.234375 5.71875 22.167969 5.714844 22.035156 5.714844 C 21.898438 5.714844 21.847656 5.71875 21.925781 5.730469 M 22.84375 5.761719 C 22.902344 5.769531 22.996094 5.769531 23.039062 5.761719 C 23.089844 5.753906 23.039062 5.746094 22.929688 5.746094 C 22.816406 5.746094 22.78125 5.753906 22.84375 5.761719 M 23.222656 5.796875 C 23.246094 5.808594 39.042969 5.824219 58.339844 5.835938 L 93.421875 5.851562 L 93.765625 5.96875 C 94.398438 6.175781 94.78125 6.539062 94.882812 7.039062 C 94.957031 7.410156 94.957031 26.535156 94.882812 26.902344 C 94.761719 27.480469 94.328125 27.847656 93.519531 28.054688 C 93.277344 28.121094 92.648438 28.121094 58.324219 28.140625 L 23.375 28.15625 L 93.324219 28.15625 L 93.714844 28.039062 C 94.34375 27.855469 94.75 27.523438 94.914062 27.050781 C 95.015625 26.773438 95.015625 7.167969 94.910156 6.886719 C 94.714844 6.3125 94.058594 5.902344 93.199219 5.804688 C 92.824219 5.765625 23.164062 5.757812 23.222656 5.796875 M 59.113281 6.242188 C 84.136719 6.261719 92.5625 6.269531 92.679688 6.300781 C 93.09375 6.414062 93.234375 6.46875 93.453125 6.625 C 93.738281 6.824219 93.828125 6.925781 93.921875 7.183594 C 94.027344 7.460938 94.023438 26.550781 93.917969 26.789062 C 93.820312 27.023438 93.71875 27.128906 93.453125 27.320312 C 93.234375 27.480469 93.09375 27.53125 92.679688 27.644531 C 92.5625 27.671875 84.136719 27.6875 59.113281 27.699219 L 25.703125 27.71875 L 92.628906 27.71875 L 92.949219 27.609375 C 93.453125 27.445312 93.820312 27.160156 93.972656 26.816406 C 94.082031 26.566406 94.074219 7.390625 93.964844 7.128906 C 93.785156 6.710938 93.308594 6.394531 92.660156 6.265625 C 92.464844 6.21875 87.566406 6.214844 59.066406 6.21875 L 25.703125 6.230469 L 59.113281 6.242188 M 24.648438 6.265625 C 24.695312 6.277344 24.777344 6.277344 24.824219 6.265625 C 24.871094 6.265625 24.832031 6.253906 24.738281 6.253906 C 24.640625 6.253906 24.601562 6.265625 24.648438 6.265625 M 90.574219 9.152344 C 89.890625 9.351562 89.4375 9.421875 88.6875 9.457031 C 87.730469 9.507812 87.667969 9.691406 88.476562 10.085938 C 88.960938 10.324219 89.011719 10.394531 88.945312 10.71875 C 88.886719 10.972656 88.683594 11.496094 88.371094 12.1875 C 88.292969 12.339844 88.214844 12.519531 88.195312 12.574219 C 88.167969 12.628906 88.097656 12.804688 88.023438 12.964844 C 87.824219 13.378906 87.742188 13.582031 87.699219 13.710938 C 87.675781 13.78125 87.578125 14.046875 87.476562 14.308594 C 87.140625 15.183594 87.109375 15.253906 86.925781 15.730469 C 86.71875 16.285156 86.558594 16.683594 86.414062 17.035156 C 86.125 17.734375 86.066406 17.890625 85.964844 18.140625 C 85.910156 18.289062 85.828125 18.488281 85.789062 18.582031 C 85.722656 18.75 85.53125 19.277344 85.421875 19.59375 C 85.011719 20.804688 87.070312 20.917969 88.769531 19.765625 C 89.566406 19.230469 89.390625 18.796875 88.460938 18.992188 C 88.046875 19.078125 87.703125 19.03125 87.4375 18.863281 C 87.265625 18.757812 87.261719 18.804688 87.496094 18.210938 C 87.582031 17.984375 87.710938 17.664062 87.777344 17.5 C 87.839844 17.332031 87.941406 17.078125 87.996094 16.941406 C 88.050781 16.800781 88.167969 16.507812 88.25 16.292969 C 88.460938 15.753906 88.578125 15.453125 88.757812 15.003906 C 88.800781 14.902344 88.890625 14.671875 88.960938 14.492188 C 89.03125 14.316406 89.121094 14.09375 89.160156 14 C 89.195312 13.910156 89.273438 13.710938 89.332031 13.574219 C 89.386719 13.425781 89.554688 13.007812 89.707031 12.636719 C 90.054688 11.792969 90.125 11.613281 90.175781 11.484375 C 90.582031 10.449219 90.632812 10.375 91.253906 9.84375 C 92.230469 9.007812 91.980469 8.757812 90.574219 9.152344 M 91.734375 9.148438 C 91.726562 9.300781 91.542969 9.535156 91.140625 9.875 C 90.585938 10.351562 90.5625 10.394531 90.167969 11.351562 C 90.140625 11.425781 90.082031 11.558594 90.050781 11.640625 C 90.011719 11.722656 89.792969 12.269531 89.5625 12.847656 C 89.328125 13.425781 89.101562 13.988281 89.058594 14.085938 C 88.859375 14.59375 88.386719 15.773438 88.273438 16.089844 C 88.195312 16.285156 88.105469 16.515625 88.070312 16.59375 C 88.035156 16.683594 87.917969 16.964844 87.820312 17.226562 C 87.71875 17.488281 87.609375 17.769531 87.570312 17.855469 C 87.183594 18.765625 87.1875 18.84375 87.601562 18.988281 C 87.902344 19.085938 88.148438 19.101562 88.515625 19.023438 C 89.363281 18.847656 89.445312 19.296875 88.652344 19.785156 C 87.203125 20.679688 85.710938 20.796875 85.472656 20.035156 C 85.398438 19.792969 85.628906 19.0625 86.234375 17.632812 C 86.417969 17.191406 86.683594 16.515625 86.976562 15.769531 C 87.078125 15.503906 87.195312 15.1875 87.25 15.050781 C 87.304688 14.925781 87.414062 14.628906 87.5 14.410156 C 87.582031 14.179688 87.699219 13.886719 87.753906 13.742188 C 87.855469 13.476562 88.128906 12.847656 88.515625 12 C 88.636719 11.714844 88.761719 11.433594 88.785156 11.375 C 88.8125 11.304688 88.867188 11.171875 88.914062 11.0625 C 89.15625 10.480469 89.082031 10.320312 88.394531 9.996094 C 87.792969 9.707031 87.894531 9.507812 88.640625 9.507812 C 89.136719 9.507812 89.949219 9.382812 90.550781 9.203125 C 90.878906 9.117188 91.171875 9.027344 91.21875 9.015625 C 91.257812 9.003906 91.390625 9.003906 91.515625 9.003906 L 91.738281 9.011719 L 91.734375 9.148438 M 12.792969 9.816406 C 11.570312 9.949219 11.15625 10.027344 10.238281 10.316406 C 6.476562 11.496094 5.507812 14.828125 7.964844 18.125 C 9.765625 20.535156 14.664062 23.957031 18.957031 25.804688 C 20.121094 26.308594 19.972656 26.308594 21.15625 25.800781 C 25.28125 24.039062 29.964844 20.816406 31.988281 18.347656 C 34.109375 15.757812 34.007812 12.898438 31.738281 11.265625 C 28.789062 9.136719 23.703125 9.3125 20.582031 11.65625 C 20.046875 12.054688 20.0625 12.054688 19.503906 11.632812 C 17.703125 10.289062 15.023438 9.566406 12.792969 9.816406 M 14.574219 9.859375 C 16.472656 10.050781 18.21875 10.703125 19.515625 11.707031 C 20.050781 12.125 20.015625 12.125 20.582031 11.707031 C 21.644531 10.917969 23.144531 10.257812 24.414062 10.023438 C 25.765625 9.769531 26.554688 9.75 27.984375 9.929688 C 30.664062 10.28125 32.730469 11.613281 33.226562 13.308594 C 33.273438 13.445312 33.335938 13.652344 33.367188 13.765625 C 33.445312 14.03125 33.445312 15.332031 33.367188 15.601562 C 33.335938 15.710938 33.273438 15.917969 33.226562 16.054688 C 32.386719 18.910156 26.9375 23.28125 21.128906 25.757812 C 19.921875 26.273438 20.179688 26.296875 18.464844 25.539062 C 18.144531 25.40625 16.535156 24.582031 16.136719 24.351562 C 14.375 23.355469 13.878906 23.054688 12.617188 22.179688 C 9.449219 20.003906 7.566406 18.019531 6.9375 16.1875 C 6.882812 16.03125 6.828125 15.871094 6.816406 15.835938 C 6.804688 15.800781 6.753906 15.503906 6.71875 15.179688 C 6.457031 13.070312 7.503906 11.484375 9.796875 10.527344 C 10.191406 10.367188 11.105469 10.085938 11.402344 10.046875 C 12.941406 9.8125 13.667969 9.769531 14.574219 9.859375 M 42.609375 11.917969 C 39.175781 12.226562 37.84375 14.628906 40.347656 15.996094 C 40.703125 16.1875 41.175781 16.359375 43.003906 16.953125 C 45.375 17.71875 45.933594 18.070312 45.925781 18.789062 C 45.925781 19.382812 45.34375 19.785156 44.125 20.019531 C 43.757812 20.09375 42.328125 20.097656 41.964844 20.035156 C 40.714844 19.796875 40.277344 19.523438 40.082031 18.863281 C 40.003906 18.59375 39.4375 18.535156 39.195312 18.773438 C 39.070312 18.902344 39.074219 19.675781 39.214844 19.859375 C 39.726562 20.539062 42.566406 20.984375 44.515625 20.6875 C 47.910156 20.152344 48.777344 17.824219 46.035156 16.605469 C 45.824219 16.507812 45.628906 16.429688 45.605469 16.429688 C 45.585938 16.429688 45.339844 16.355469 45.058594 16.261719 C 44.773438 16.171875 44.285156 16.019531 43.972656 15.921875 C 42.78125 15.546875 42.347656 15.398438 42.011719 15.257812 C 39.714844 14.277344 40.664062 12.574219 43.503906 12.578125 C 44.945312 12.582031 45.765625 12.921875 46.007812 13.609375 C 46.105469 13.886719 46.210938 13.949219 46.527344 13.945312 C 46.933594 13.929688 46.992188 13.828125 46.992188 13.203125 C 46.992188 12.535156 46.890625 12.441406 45.925781 12.207031 C 44.804688 11.929688 43.574219 11.828125 42.609375 11.917969 M 44.640625 12.019531 C 45.875 12.203125 46.59375 12.390625 46.816406 12.601562 C 46.988281 12.757812 46.976562 13.703125 46.796875 13.828125 C 46.542969 14.023438 46.15625 13.910156 46.082031 13.625 C 45.792969 12.441406 42.71875 12.097656 41.222656 13.089844 C 40.261719 13.71875 40.550781 14.640625 41.910156 15.257812 C 42.261719 15.417969 42.5625 15.523438 43.503906 15.816406 C 46.070312 16.621094 46.078125 16.625 46.617188 16.972656 C 47.601562 17.601562 47.851562 18.507812 47.269531 19.328125 C 46.414062 20.546875 43.597656 21.070312 40.902344 20.515625 C 40.070312 20.339844 39.382812 20.054688 39.234375 19.800781 C 39.136719 19.644531 39.144531 18.9375 39.234375 18.808594 C 39.4375 18.542969 40.054688 18.660156 40.054688 18.964844 C 40.054688 19.964844 43.027344 20.511719 44.929688 19.855469 C 46.152344 19.429688 46.363281 18.535156 45.398438 17.871094 C 44.96875 17.578125 44.320312 17.316406 43.132812 16.945312 C 43.003906 16.90625 42.507812 16.742188 42.019531 16.585938 C 41.53125 16.425781 41.121094 16.292969 41.109375 16.292969 C 40.796875 16.292969 39.695312 15.554688 39.414062 15.160156 C 38.085938 13.3125 41.09375 11.503906 44.640625 12.019531 M 73.820312 12.753906 C 72.867188 13.027344 72.824219 13.96875 73.746094 14.148438 C 74.757812 14.34375 75.59375 13.691406 75.152344 13.054688 C 74.9375 12.746094 74.316406 12.601562 73.820312 12.753906 M 74.597656 12.78125 C 75.03125 12.871094 75.246094 13.136719 75.191406 13.5 C 75.070312 14.265625 73.40625 14.394531 73.164062 13.664062 C 72.980469 13.089844 73.75 12.605469 74.597656 12.78125 M 51.824219 13.871094 C 51.539062 13.949219 51.46875 14.050781 51.207031 14.703125 C 51.136719 14.886719 50.992188 14.992188 50.484375 15.214844 C 49.808594 15.507812 49.859375 15.734375 50.625 15.835938 C 50.980469 15.875 50.988281 15.859375 50.386719 17.347656 C 50.308594 17.539062 50.226562 17.746094 50.0625 18.15625 C 50.003906 18.304688 49.933594 18.488281 49.894531 18.582031 C 49.859375 18.683594 49.769531 18.902344 49.699219 19.078125 C 49.628906 19.253906 49.539062 19.484375 49.492188 19.585938 C 49.457031 19.683594 49.347656 19.945312 49.269531 20.164062 C 49.101562 20.585938 48.902344 21.078125 48.703125 21.574219 C 48.566406 21.902344 48.535156 21.976562 48.410156 22.265625 C 48.363281 22.371094 48.304688 22.53125 48.257812 22.625 C 47.832031 23.695312 47.652344 23.902344 46.945312 24.125 C 46.445312 24.285156 46.375 24.414062 46.710938 24.582031 C 46.867188 24.660156 46.894531 24.660156 48.113281 24.664062 C 49.121094 24.664062 49.417969 24.671875 49.699219 24.722656 C 51.035156 24.945312 51.507812 24.898438 51.507812 24.519531 C 51.507812 24.351562 51.03125 24.1875 50.164062 24.054688 C 49.316406 23.921875 49.371094 23.214844 50.371094 21.3125 C 51.089844 19.949219 51.140625 19.917969 52.503906 19.84375 C 53.394531 19.792969 53.527344 19.769531 53.984375 19.609375 C 55.050781 19.226562 55.835938 18.496094 56.234375 17.511719 C 56.386719 17.136719 56.417969 17.039062 56.488281 16.761719 C 56.820312 15.480469 55.636719 14.527344 54.109375 14.84375 C 53.320312 15.011719 52.890625 14.898438 52.996094 14.539062 C 53.132812 14.089844 53.109375 14.023438 52.785156 13.882812 C 52.585938 13.800781 52.066406 13.792969 51.824219 13.871094 M 52.703125 13.90625 C 53.007812 13.992188 53.066406 14.105469 52.957031 14.457031 C 52.808594 14.957031 53.125 15.066406 54.183594 14.882812 C 55.621094 14.621094 56.707031 15.476562 56.441406 16.667969 C 56 18.625 54.675781 19.707031 52.597656 19.792969 C 51.082031 19.855469 50.917969 19.992188 50.003906 21.910156 C 49.269531 23.457031 49.316406 23.914062 50.230469 24.101562 C 51.300781 24.320312 51.457031 24.378906 51.457031 24.554688 C 51.457031 24.847656 51.015625 24.878906 49.65625 24.679688 C 49.230469 24.617188 49.027344 24.609375 48.042969 24.617188 C 46.839844 24.628906 46.738281 24.613281 46.601562 24.441406 C 46.519531 24.339844 46.585938 24.285156 46.960938 24.164062 C 47.800781 23.898438 47.859375 23.816406 48.859375 21.335938 C 48.980469 21.035156 49.101562 20.742188 49.125 20.667969 C 49.15625 20.605469 49.320312 20.183594 49.496094 19.738281 C 49.671875 19.289062 49.847656 18.871094 49.875 18.804688 C 49.898438 18.742188 50.03125 18.402344 50.167969 18.0625 C 50.304688 17.710938 50.449219 17.347656 50.488281 17.242188 C 50.535156 17.140625 50.644531 16.855469 50.738281 16.617188 C 51.046875 15.863281 51.046875 15.867188 50.539062 15.769531 C 49.894531 15.640625 49.898438 15.523438 50.5625 15.222656 C 51.070312 15.003906 51.226562 14.882812 51.289062 14.683594 C 51.507812 13.9375 51.949219 13.695312 52.703125 13.90625 M 83.011719 14.5625 C 82.78125 14.664062 82.5625 14.730469 82.484375 14.730469 C 82.410156 14.730469 82.253906 14.75 82.132812 14.765625 C 82.019531 14.78125 81.710938 14.828125 81.449219 14.871094 C 77.925781 15.398438 74.332031 19.679688 76.714844 20.519531 C 77.34375 20.742188 78.046875 20.480469 79.644531 19.414062 C 80.792969 18.640625 80.792969 18.640625 80.628906 19.367188 C 80.457031 20.121094 80.796875 20.566406 81.550781 20.566406 C 82.554688 20.566406 84.621094 19.046875 84.328125 18.527344 C 84.214844 18.3125 84.011719 18.386719 83.304688 18.878906 C 82.621094 19.359375 82.300781 19.445312 82.046875 19.222656 C 81.691406 18.910156 81.960938 18.140625 83.164062 16.089844 C 83.914062 14.800781 83.972656 14.648438 83.8125 14.480469 C 83.675781 14.335938 83.472656 14.359375 83.011719 14.5625 M 83.757812 14.484375 C 83.933594 14.601562 83.882812 14.722656 82.777344 16.648438 C 81.753906 18.421875 81.59375 19.210938 82.210938 19.359375 C 82.519531 19.429688 82.667969 19.371094 83.363281 18.90625 C 84.046875 18.445312 84.191406 18.390625 84.277344 18.546875 C 84.503906 18.972656 82.757812 20.359375 81.808594 20.5 C 80.925781 20.628906 80.507812 20.21875 80.679688 19.402344 C 80.859375 18.570312 80.820312 18.570312 79.609375 19.371094 C 77.925781 20.496094 77.390625 20.691406 76.707031 20.46875 C 75.46875 20.054688 75.894531 18.488281 77.667969 16.851562 C 79.03125 15.605469 80.15625 15.078125 81.96875 14.835938 C 82.695312 14.738281 82.78125 14.71875 83.105469 14.574219 C 83.476562 14.414062 83.625 14.390625 83.757812 14.484375 M 60.828125 14.800781 C 58.109375 15.015625 56.160156 17.449219 57.074219 19.46875 C 57.742188 20.921875 60.5625 20.976562 62.246094 19.566406 C 62.859375 19.046875 62.886719 18.722656 62.3125 18.683594 C 62.097656 18.664062 62.078125 18.671875 61.535156 18.953125 C 59.648438 19.9375 58.25 19.746094 58.304688 18.523438 C 58.339844 17.871094 58.613281 17.660156 59.363281 17.707031 C 60.722656 17.785156 61.382812 17.664062 62.308594 17.183594 C 63.835938 16.382812 63.453125 15.003906 61.636719 14.796875 C 61.316406 14.765625 61.292969 14.765625 60.828125 14.800781 M 67.480469 14.800781 C 66.460938 14.894531 65.320312 15.371094 64.53125 16.039062 C 62.960938 17.367188 62.957031 19.703125 64.53125 20.367188 C 65.851562 20.929688 68.914062 20.191406 68.691406 19.371094 C 68.597656 19.027344 68.199219 18.996094 67.277344 19.261719 C 66.171875 19.582031 65.761719 19.625 65.3125 19.488281 C 63.765625 19.003906 65.117188 16.269531 67.136719 15.804688 C 67.796875 15.652344 68.207031 15.671875 68.753906 15.902344 C 69.554688 16.25 70.199219 16.089844 70.199219 15.554688 C 70.199219 15.046875 68.84375 14.675781 67.480469 14.800781 M 73.890625 14.796875 C 73.292969 14.898438 71.613281 15.78125 71.335938 16.136719 C 71.203125 16.3125 71.238281 16.375 71.503906 16.410156 C 72.394531 16.535156 72.394531 16.5625 71.589844 17.953125 C 70.636719 19.582031 70.578125 20.25 71.347656 20.519531 C 72.277344 20.851562 74.890625 19.652344 74.203125 19.210938 C 74.0625 19.128906 73.949219 19.128906 73.640625 19.230469 C 73.078125 19.417969 72.675781 19.320312 72.675781 18.992188 C 72.675781 18.640625 73.222656 17.378906 73.640625 16.746094 C 73.675781 16.695312 73.75 16.578125 73.804688 16.496094 C 73.863281 16.410156 74.023438 16.210938 74.152344 16.0625 C 74.703125 15.472656 74.867188 15.164062 74.75 15.007812 C 74.609375 14.828125 74.230469 14.738281 73.890625 14.796875 M 62.175781 14.957031 C 63.324219 15.347656 63.554688 16.234375 62.683594 16.90625 C 61.992188 17.421875 60.695312 17.785156 59.828125 17.6875 C 58.65625 17.558594 58.296875 17.746094 58.257812 18.527344 C 58.21875 19.285156 58.609375 19.605469 59.585938 19.605469 C 60.253906 19.597656 60.628906 19.476562 61.601562 18.972656 C 62.136719 18.695312 62.195312 18.683594 62.457031 18.746094 C 62.761719 18.816406 62.730469 18.996094 62.332031 19.40625 C 61.039062 20.742188 58.265625 20.953125 57.359375 19.785156 C 56.179688 18.273438 57.445312 15.773438 59.75 15.039062 C 60.527344 14.796875 61.585938 14.761719 62.175781 14.957031 M 68.964844 14.917969 C 69.824219 15.0625 70.148438 15.242188 70.148438 15.554688 C 70.148438 16.015625 69.554688 16.191406 68.929688 15.929688 C 68.210938 15.628906 68.089844 15.605469 67.476562 15.695312 C 66.144531 15.894531 64.984375 16.875 64.667969 18.074219 C 64.304688 19.460938 65.261719 19.941406 67.167969 19.339844 C 68.105469 19.046875 68.492188 19.042969 68.601562 19.320312 C 68.730469 19.65625 68.355469 19.976562 67.507812 20.25 C 65.554688 20.863281 64.097656 20.519531 63.546875 19.316406 C 63.414062 19.003906 63.378906 18.019531 63.496094 17.683594 C 64.203125 15.675781 66.546875 14.496094 68.964844 14.917969 M 74.507812 14.882812 C 74.859375 15.007812 74.785156 15.265625 74.191406 15.941406 C 73.425781 16.804688 72.628906 18.363281 72.628906 18.992188 C 72.625 19.371094 72.988281 19.472656 73.605469 19.28125 C 74.703125 18.953125 74.351562 19.714844 73.183594 20.191406 C 71.761719 20.773438 70.890625 20.605469 70.890625 19.753906 C 70.890625 19.371094 71.03125 19.03125 71.609375 18.019531 C 72.472656 16.523438 72.472656 16.503906 71.542969 16.378906 C 71.089844 16.316406 71.503906 15.921875 72.652344 15.34375 C 73.578125 14.871094 74.101562 14.742188 74.507812 14.882812 M 53.109375 15.480469 C 52.519531 15.710938 52.085938 16.394531 51.632812 17.785156 C 51.589844 17.925781 51.527344 18.105469 51.507812 18.183594 C 51.09375 19.4375 52.945312 19.554688 54.105469 18.355469 C 54.964844 17.457031 55.34375 16.457031 55.011719 15.941406 C 54.6875 15.445312 53.773438 15.21875 53.109375 15.480469 M 54.351562 15.523438 C 55.394531 15.875 55.28125 17.007812 54.074219 18.304688 C 53.320312 19.109375 52.066406 19.414062 51.605469 18.902344 C 51.445312 18.71875 51.464844 18.488281 51.714844 17.753906 C 51.765625 17.597656 51.832031 17.410156 51.851562 17.347656 C 52.382812 15.710938 53.175781 15.132812 54.351562 15.523438 M 60.503906 15.6875 C 59.894531 15.839844 59.179688 16.519531 59.324219 16.820312 C 59.578125 17.347656 61.269531 17.140625 61.722656 16.527344 C 62.074219 16.054688 61.273438 15.503906 60.503906 15.6875 M 61.265625 15.777344 C 61.992188 16.007812 61.859375 16.613281 61.019531 16.90625 C 59.617188 17.394531 58.816406 16.828125 59.84375 16.074219 C 60.320312 15.714844 60.777344 15.625 61.265625 15.777344 M 80.523438 15.898438 C 78.285156 16.492188 76.0625 19.613281 78.066406 19.351562 C 79.425781 19.171875 82.121094 16.761719 81.832031 15.972656 C 81.765625 15.800781 81.074219 15.757812 80.523438 15.898438 M 81.59375 15.890625 C 82.503906 16.105469 79.976562 18.75 78.382812 19.234375 C 77.03125 19.652344 77.011719 18.511719 78.359375 17.265625 C 79.515625 16.203125 80.734375 15.683594 81.59375 15.890625 M 19.8125 27.6875 C 19.71875 27.75 19.792969 27.800781 19.972656 27.800781 C 20.203125 27.800781 20.34375 27.722656 20.164062 27.6875 C 20.015625 27.660156 19.855469 27.660156 19.8125 27.6875 M 23.84375 27.734375 C 23.753906 27.75 23.4375 27.796875 23.144531 27.828125 C 22.867188 27.878906 22.539062 27.917969 22.425781 27.9375 C 22.308594 27.957031 22.152344 27.96875 22.074219 27.96875 C 21.992188 27.96875 21.800781 27.992188 21.636719 28.023438 C 21.449219 28.058594 21.023438 28.085938 20.449219 28.097656 C 19.601562 28.121094 19.554688 28.125 19.554688 28.1875 C 19.554688 28.253906 19.59375 28.257812 20.375 28.257812 L 21.191406 28.261719 L 20.414062 28.246094 C 19.539062 28.238281 19.304688 28.171875 20.132812 28.171875 C 20.667969 28.171875 21.332031 28.125 21.714844 28.066406 C 21.832031 28.039062 22.050781 28.015625 22.1875 28 C 22.597656 27.957031 23.253906 27.875 23.625 27.8125 C 23.8125 27.785156 24.09375 27.75 24.242188 27.734375 L 24.515625 27.707031 L 24.265625 27.703125 C 24.132812 27.703125 23.9375 27.722656 23.84375 27.734375 M 22.992188 28.195312 C 23.050781 28.207031 23.148438 28.207031 23.210938 28.195312 C 23.273438 28.1875 23.222656 28.183594 23.097656 28.183594 C 22.976562 28.183594 22.929688 28.1875 22.992188 28.195312 M 22.222656 28.230469 C 22.300781 28.238281 22.410156 28.238281 22.46875 28.230469 C 22.53125 28.222656 22.46875 28.214844 22.332031 28.214844 C 22.195312 28.214844 22.144531 28.222656 22.222656 28.230469 M 21.675781 28.265625 C 21.722656 28.269531 21.804688 28.269531 21.847656 28.265625 C 21.898438 28.253906 21.859375 28.246094 21.761719 28.246094 C 21.667969 28.246094 21.628906 28.253906 21.675781 28.265625 "/>
<path style=" stroke:none;fill-rule:evenodd;fill:rgb(95.686275%,48.627451%,48.627451%);fill-opacity:1;" d="M 19.582031 5.753906 C 19.582031 5.789062 19.730469 5.800781 20.3125 5.820312 C 20.714844 5.828125 21.257812 5.859375 21.515625 5.886719 C 21.777344 5.910156 22.242188 5.964844 22.554688 5.996094 C 22.871094 6.027344 23.328125 6.085938 23.566406 6.128906 C 23.808594 6.179688 24.074219 6.210938 24.15625 6.210938 C 24.253906 6.207031 24.277344 6.203125 24.21875 6.1875 C 24.160156 6.183594 23.90625 6.132812 23.648438 6.09375 C 23.042969 5.992188 22.660156 5.9375 22.261719 5.902344 C 22.082031 5.886719 21.832031 5.859375 21.714844 5.84375 C 21.589844 5.824219 21.320312 5.804688 21.113281 5.804688 C 20.839844 5.800781 20.71875 5.792969 20.671875 5.757812 C 20.582031 5.679688 19.582031 5.675781 19.582031 5.753906 M 22.890625 5.796875 C 22.953125 5.800781 23.050781 5.800781 23.113281 5.796875 C 23.175781 5.789062 23.125 5.777344 23.003906 5.777344 C 22.878906 5.777344 22.832031 5.789062 22.890625 5.796875 M 23.480469 5.847656 C 23.585938 5.855469 39.300781 5.867188 58.40625 5.867188 C 92.855469 5.875 93.144531 5.875 93.457031 5.941406 C 94.046875 6.0625 94.40625 6.28125 94.675781 6.679688 L 94.808594 6.875 L 94.808594 27.070312 L 94.652344 27.289062 C 94.386719 27.679688 94.058594 27.878906 93.441406 28.007812 C 93.152344 28.074219 92.289062 28.074219 58.484375 28.078125 C 39.414062 28.078125 23.730469 28.085938 23.625 28.105469 C 23.515625 28.121094 39.144531 28.128906 58.351562 28.125 C 92.675781 28.121094 93.277344 28.121094 93.519531 28.054688 C 94.328125 27.847656 94.761719 27.480469 94.882812 26.902344 C 94.957031 26.535156 94.957031 7.410156 94.882812 7.039062 C 94.78125 6.539062 94.398438 6.175781 93.765625 5.96875 L 93.421875 5.851562 L 83.679688 5.847656 C 58.484375 5.824219 23.304688 5.824219 23.480469 5.847656 M 25.617188 6.21875 C 25.542969 6.238281 25.480469 6.265625 25.480469 6.28125 C 25.480469 6.292969 25.542969 6.289062 25.617188 6.265625 C 25.820312 6.1875 92.308594 6.1875 92.660156 6.265625 C 93.308594 6.394531 93.785156 6.710938 93.964844 7.128906 C 94.074219 7.390625 94.082031 26.566406 93.972656 26.816406 C 93.820312 27.160156 93.453125 27.445312 92.949219 27.609375 L 92.628906 27.71875 L 59.21875 27.722656 C 36.308594 27.726562 25.753906 27.722656 25.65625 27.699219 C 25.535156 27.671875 25.523438 27.671875 25.570312 27.703125 C 25.65625 27.765625 92.503906 27.789062 92.726562 27.726562 C 93.167969 27.609375 93.335938 27.542969 93.554688 27.382812 C 93.851562 27.171875 94.03125 26.921875 94.09375 26.636719 C 94.15625 26.355469 94.15625 7.585938 94.09375 7.304688 C 93.996094 6.859375 93.589844 6.484375 92.980469 6.292969 L 92.613281 6.179688 L 59.183594 6.179688 C 36.933594 6.183594 25.710938 6.199219 25.617188 6.21875 M 91.21875 9.015625 C 91.171875 9.027344 90.878906 9.117188 90.550781 9.203125 C 89.949219 9.382812 89.136719 9.507812 88.640625 9.507812 C 87.894531 9.507812 87.792969 9.707031 88.394531 9.996094 C 89.082031 10.320312 89.15625 10.480469 88.914062 11.0625 C 88.867188 11.171875 88.8125 11.304688 88.785156 11.375 C 88.761719 11.433594 88.636719 11.714844 88.515625 12 C 88.128906 12.847656 87.855469 13.476562 87.753906 13.742188 C 87.699219 13.886719 87.582031 14.179688 87.5 14.410156 C 87.414062 14.628906 87.304688 14.925781 87.25 15.050781 C 87.195312 15.1875 87.078125 15.503906 86.976562 15.769531 C 86.683594 16.515625 86.417969 17.191406 86.234375 17.632812 C 85.628906 19.0625 85.398438 19.792969 85.472656 20.035156 C 85.710938 20.796875 87.203125 20.679688 88.652344 19.785156 C 89.445312 19.296875 89.363281 18.847656 88.515625 19.023438 C 88.148438 19.101562 87.902344 19.085938 87.601562 18.988281 C 87.1875 18.84375 87.183594 18.765625 87.570312 17.855469 C 87.609375 17.769531 87.71875 17.488281 87.820312 17.226562 C 87.917969 16.964844 88.035156 16.683594 88.070312 16.59375 C 88.105469 16.515625 88.195312 16.285156 88.273438 16.089844 C 88.386719 15.773438 88.859375 14.59375 89.058594 14.085938 C 89.101562 13.988281 89.328125 13.425781 89.5625 12.847656 C 89.792969 12.269531 90.011719 11.722656 90.050781 11.640625 C 90.082031 11.558594 90.140625 11.425781 90.167969 11.351562 C 90.5625 10.394531 90.585938 10.351562 91.140625 9.875 C 91.542969 9.535156 91.726562 9.300781 91.734375 9.148438 L 91.738281 9.011719 L 91.515625 9.003906 C 91.390625 9.003906 91.257812 9.003906 91.21875 9.015625 M 91.699219 9.089844 C 91.742188 9.171875 91.496094 9.46875 91.007812 9.910156 C 90.484375 10.394531 90.492188 10.378906 90.289062 10.882812 C 89.921875 11.769531 89.902344 11.816406 89.4375 12.964844 C 89.246094 13.441406 89.054688 13.914062 89.011719 14.023438 C 88.96875 14.121094 88.914062 14.261719 88.882812 14.324219 C 88.804688 14.523438 88.453125 15.414062 88.320312 15.75 C 88.253906 15.925781 88.164062 16.15625 88.125 16.257812 C 88.054688 16.429688 87.984375 16.617188 87.621094 17.53125 C 87.089844 18.878906 87.089844 18.867188 87.539062 19.019531 C 87.871094 19.136719 88.074219 19.152344 88.402344 19.089844 C 88.816406 19.019531 89.019531 19.027344 89.089844 19.117188 C 89.359375 19.460938 87.574219 20.460938 86.632812 20.496094 C 85.699219 20.527344 85.347656 20.125 85.628906 19.371094 C 85.796875 18.925781 86.074219 18.210938 86.226562 17.855469 C 86.300781 17.65625 86.382812 17.449219 86.40625 17.394531 C 86.425781 17.339844 86.480469 17.210938 86.527344 17.113281 C 86.65625 16.789062 86.855469 16.289062 86.976562 15.96875 C 87.261719 15.214844 87.453125 14.730469 87.542969 14.492188 C 87.59375 14.351562 87.710938 14.066406 87.792969 13.847656 C 87.875 13.636719 88.035156 13.25 88.148438 13 C 88.253906 12.75 88.429688 12.363281 88.527344 12.152344 C 89.289062 10.433594 89.289062 10.347656 88.546875 10.007812 C 87.835938 9.679688 87.878906 9.609375 88.863281 9.539062 C 89.617188 9.484375 89.847656 9.445312 90.574219 9.25 C 91.425781 9.015625 91.367188 9.035156 91.527344 9.03125 C 91.613281 9.027344 91.679688 9.042969 91.699219 9.089844 M 12.617188 9.78125 C 11.359375 9.933594 11.019531 10.007812 10.238281 10.265625 C 8.632812 10.8125 7.492188 11.675781 6.972656 12.742188 C 5.839844 15.039062 6.878906 17.648438 9.988281 20.320312 C 12.308594 22.308594 15.921875 24.550781 18.820312 25.804688 C 20.085938 26.355469 20.003906 26.351562 20.867188 25.980469 C 24.890625 24.300781 29.351562 21.34375 31.628906 18.863281 C 35.746094 14.375 33.085938 9.742188 26.386719 9.742188 C 25.9375 9.742188 25.480469 9.757812 25.367188 9.777344 C 25.25 9.796875 24.992188 9.832031 24.789062 9.863281 C 23.296875 10.085938 21.585938 10.792969 20.523438 11.617188 C 20.042969 11.996094 20.085938 11.988281 19.695312 11.699219 C 17.886719 10.367188 15.933594 9.738281 13.679688 9.746094 C 13.234375 9.75 12.753906 9.765625 12.617188 9.78125 M 14.703125 9.820312 C 16.609375 10.058594 18.175781 10.648438 19.503906 11.632812 C 20.0625 12.054688 20.046875 12.054688 20.582031 11.65625 C 22.722656 10.046875 25.609375 9.445312 28.5625 9.976562 C 33.421875 10.859375 34.988281 14.6875 31.988281 18.347656 C 30.222656 20.503906 26.921875 22.90625 22.90625 24.964844 C 21.941406 25.464844 20.59375 26.066406 20.238281 26.164062 C 19.566406 26.355469 14.988281 23.945312 12.144531 21.910156 C 7.945312 18.910156 6.199219 16.355469 6.667969 13.882812 C 7.097656 11.570312 9.140625 10.21875 12.792969 9.816406 C 13.226562 9.769531 14.261719 9.773438 14.703125 9.820312 M 42.734375 11.945312 C 39.121094 12.207031 37.828125 14.808594 40.675781 16.105469 C 40.902344 16.203125 41.09375 16.292969 41.109375 16.292969 C 41.121094 16.292969 41.53125 16.425781 42.019531 16.585938 C 42.507812 16.742188 43.003906 16.90625 43.132812 16.945312 C 44.320312 17.316406 44.96875 17.578125 45.398438 17.871094 C 46.363281 18.535156 46.152344 19.429688 44.929688 19.855469 C 43.027344 20.511719 40.054688 19.964844 40.054688 18.964844 C 40.054688 18.660156 39.4375 18.542969 39.234375 18.808594 C 39.144531 18.9375 39.136719 19.644531 39.234375 19.800781 C 39.636719 20.472656 42.699219 20.953125 44.535156 20.644531 C 46.605469 20.296875 47.789062 19.316406 47.546875 18.164062 C 47.363281 17.289062 46.695312 16.824219 44.722656 16.203125 C 44.160156 16.023438 43.613281 15.851562 43.503906 15.816406 C 42.5625 15.523438 42.261719 15.417969 41.910156 15.257812 C 40.550781 14.640625 40.261719 13.71875 41.222656 13.089844 C 42.71875 12.097656 45.792969 12.441406 46.082031 13.625 C 46.15625 13.910156 46.542969 14.023438 46.796875 13.828125 C 46.976562 13.703125 46.988281 12.757812 46.816406 12.601562 C 46.398438 12.214844 44.113281 11.847656 42.734375 11.945312 M 44.476562 12.054688 C 45.703125 12.207031 46.554688 12.425781 46.769531 12.636719 C 46.878906 12.742188 46.882812 13.664062 46.777344 13.769531 C 46.609375 13.933594 46.234375 13.882812 46.175781 13.683594 C 45.929688 12.917969 45.078125 12.511719 43.625 12.464844 C 41.371094 12.398438 39.910156 13.601562 40.917969 14.679688 C 41.347656 15.136719 41.800781 15.335938 44.050781 16.046875 C 46.574219 16.839844 47.226562 17.226562 47.445312 18.042969 C 47.859375 19.550781 45.992188 20.679688 43.078125 20.6875 C 41.433594 20.691406 39.6875 20.28125 39.332031 19.820312 C 39.246094 19.703125 39.234375 18.941406 39.320312 18.824219 C 39.503906 18.582031 39.921875 18.691406 39.980469 18.996094 C 40.277344 20.410156 44.796875 20.652344 45.894531 19.3125 C 46.25 18.875 46.105469 18.320312 45.503906 17.875 C 45.085938 17.5625 44.6875 17.398438 42.953125 16.832031 C 40.71875 16.105469 40.460938 16.007812 39.957031 15.628906 C 38.863281 14.800781 38.964844 13.535156 40.1875 12.761719 C 41.242188 12.101562 42.828125 11.835938 44.476562 12.054688 M 73.867188 12.792969 C 72.914062 13.019531 72.886719 13.988281 73.824219 14.117188 C 74.535156 14.21875 75.121094 13.949219 75.191406 13.5 C 75.273438 12.933594 74.664062 12.605469 73.867188 12.792969 M 74.761719 12.890625 C 75.136719 13.039062 75.238281 13.558594 74.9375 13.824219 C 74.539062 14.183594 73.585938 14.175781 73.328125 13.8125 C 72.890625 13.191406 73.902344 12.542969 74.761719 12.890625 M 51.875 13.890625 C 51.601562 13.976562 51.425781 14.214844 51.289062 14.683594 C 51.226562 14.882812 51.070312 15.003906 50.5625 15.222656 C 49.898438 15.523438 49.894531 15.640625 50.539062 15.769531 C 51.046875 15.867188 51.046875 15.863281 50.738281 16.617188 C 50.644531 16.855469 50.535156 17.140625 50.488281 17.242188 C 50.449219 17.347656 50.304688 17.710938 50.167969 18.0625 C 50.03125 18.402344 49.898438 18.742188 49.875 18.804688 C 49.847656 18.871094 49.671875 19.289062 49.496094 19.738281 C 49.320312 20.183594 49.15625 20.605469 49.125 20.667969 C 49.101562 20.742188 48.980469 21.035156 48.859375 21.335938 C 47.859375 23.816406 47.800781 23.898438 46.960938 24.164062 C 46.585938 24.285156 46.519531 24.339844 46.601562 24.441406 C 46.738281 24.613281 46.839844 24.628906 48.042969 24.617188 C 49.027344 24.609375 49.230469 24.617188 49.65625 24.679688 C 51.015625 24.878906 51.457031 24.847656 51.457031 24.554688 C 51.457031 24.378906 51.300781 24.320312 50.230469 24.101562 C 49.316406 23.914062 49.269531 23.457031 50.003906 21.910156 C 50.917969 19.992188 51.082031 19.855469 52.597656 19.792969 C 54.675781 19.707031 56 18.625 56.441406 16.667969 C 56.707031 15.476562 55.621094 14.621094 54.183594 14.882812 C 53.125 15.066406 52.808594 14.957031 52.957031 14.457031 C 53.03125 14.21875 53.03125 14.160156 52.972656 14.070312 C 52.863281 13.878906 52.257812 13.785156 51.875 13.890625 M 52.683594 13.949219 C 52.929688 14.011719 52.96875 14.125 52.871094 14.480469 C 52.726562 14.972656 53 15.101562 53.9375 14.960938 C 55.152344 14.792969 55.621094 14.902344 56.101562 15.480469 C 56.691406 16.1875 56.28125 17.792969 55.277344 18.707031 C 54.496094 19.417969 53.710938 19.707031 52.476562 19.757812 C 51.03125 19.8125 50.921875 19.894531 50.003906 21.738281 C 49.898438 21.964844 49.789062 22.199219 49.769531 22.261719 C 49.742188 22.320312 49.699219 22.421875 49.671875 22.5 C 49.320312 23.386719 49.351562 23.859375 49.785156 24.027344 C 49.941406 24.097656 50.023438 24.113281 50.808594 24.277344 C 51.324219 24.375 51.480469 24.519531 51.289062 24.691406 C 51.1875 24.789062 50.636719 24.78125 49.910156 24.664062 C 49.371094 24.582031 49.25 24.578125 48.152344 24.578125 C 46.542969 24.578125 46.230469 24.464844 47.054688 24.195312 C 47.660156 23.992188 47.847656 23.832031 48.132812 23.21875 C 48.296875 22.882812 48.617188 22.125 48.929688 21.347656 C 48.988281 21.210938 49.066406 21.019531 49.101562 20.925781 C 49.144531 20.832031 49.21875 20.632812 49.273438 20.484375 C 49.394531 20.183594 49.675781 19.472656 49.800781 19.179688 C 49.839844 19.078125 49.894531 18.9375 49.921875 18.871094 C 49.953125 18.808594 50.078125 18.46875 50.21875 18.125 C 50.355469 17.78125 50.503906 17.414062 50.539062 17.308594 C 51.113281 15.878906 51.09375 15.933594 50.992188 15.859375 C 50.941406 15.816406 50.773438 15.761719 50.621094 15.730469 C 50.003906 15.609375 49.988281 15.546875 50.519531 15.308594 C 51.082031 15.0625 51.25 14.953125 51.320312 14.789062 C 51.644531 13.964844 51.6875 13.921875 52.257812 13.917969 C 52.410156 13.917969 52.601562 13.933594 52.683594 13.949219 M 83.105469 14.574219 C 82.78125 14.71875 82.695312 14.738281 81.96875 14.835938 C 80.15625 15.078125 79.03125 15.605469 77.667969 16.851562 C 75.894531 18.488281 75.46875 20.054688 76.707031 20.46875 C 77.390625 20.691406 77.925781 20.496094 79.609375 19.371094 C 80.820312 18.570312 80.859375 18.570312 80.679688 19.402344 C 80.507812 20.21875 80.925781 20.628906 81.808594 20.5 C 82.757812 20.359375 84.503906 18.972656 84.277344 18.546875 C 84.191406 18.390625 84.046875 18.445312 83.363281 18.90625 C 82.667969 19.371094 82.519531 19.429688 82.210938 19.359375 C 81.59375 19.210938 81.753906 18.421875 82.777344 16.648438 C 83.882812 14.722656 83.933594 14.601562 83.757812 14.484375 C 83.625 14.390625 83.476562 14.414062 83.105469 14.574219 M 83.6875 14.515625 C 83.796875 14.601562 83.746094 14.804688 83.515625 15.214844 C 81.921875 18.011719 81.785156 18.300781 81.777344 18.855469 C 81.773438 19.148438 81.882812 19.300781 82.164062 19.390625 C 82.488281 19.5 82.65625 19.445312 83.386719 18.953125 C 84.15625 18.433594 84.390625 18.398438 84.171875 18.839844 C 83.976562 19.230469 82.816406 20.109375 82.195312 20.332031 C 81.132812 20.71875 80.476562 20.222656 80.785156 19.28125 C 80.902344 18.902344 80.859375 18.667969 80.65625 18.667969 C 80.582031 18.667969 80.289062 18.847656 79.492188 19.382812 C 78.046875 20.351562 77.519531 20.574219 76.957031 20.476562 C 76.613281 20.410156 76.425781 20.296875 76.242188 20.042969 L 76.082031 19.824219 L 76.109375 19.425781 C 76.214844 18.152344 77.9375 16.316406 79.855469 15.445312 C 80.59375 15.109375 81.003906 15.007812 82.410156 14.828125 C 82.664062 14.796875 82.851562 14.746094 83.132812 14.621094 C 83.542969 14.441406 83.589844 14.441406 83.6875 14.515625 M 60.335938 14.902344 C 58.511719 15.242188 57.195312 16.484375 56.953125 18.074219 C 56.664062 19.964844 58.324219 21.003906 60.632812 20.363281 C 61.875 20.027344 63.140625 18.90625 62.457031 18.746094 C 62.195312 18.683594 62.136719 18.695312 61.601562 18.972656 C 60.628906 19.476562 60.253906 19.597656 59.585938 19.605469 C 58.609375 19.605469 58.21875 19.285156 58.257812 18.527344 C 58.296875 17.746094 58.65625 17.558594 59.828125 17.6875 C 60.695312 17.785156 61.992188 17.421875 62.683594 16.90625 C 64.097656 15.820312 62.535156 14.492188 60.335938 14.902344 M 67 14.921875 C 65.257812 15.273438 63.996094 16.265625 63.496094 17.683594 C 63.378906 18.019531 63.414062 19.003906 63.546875 19.316406 C 64.097656 20.519531 65.554688 20.863281 67.507812 20.25 C 68.355469 19.976562 68.730469 19.65625 68.601562 19.320312 C 68.492188 19.042969 68.105469 19.046875 67.167969 19.339844 C 65.261719 19.941406 64.304688 19.460938 64.667969 18.074219 C 64.984375 16.875 66.144531 15.894531 67.476562 15.695312 C 68.089844 15.605469 68.210938 15.628906 68.929688 15.929688 C 69.554688 16.191406 70.148438 16.015625 70.148438 15.554688 C 70.148438 15.003906 68.359375 14.640625 67 14.921875 M 73.476562 14.972656 C 72.101562 15.480469 70.984375 16.296875 71.542969 16.378906 C 72.472656 16.503906 72.472656 16.523438 71.609375 18.019531 C 71.03125 19.03125 70.890625 19.371094 70.890625 19.753906 C 70.890625 20.605469 71.761719 20.773438 73.183594 20.191406 C 74.351562 19.714844 74.703125 18.953125 73.605469 19.28125 C 72.988281 19.472656 72.625 19.371094 72.628906 18.992188 C 72.628906 18.363281 73.425781 16.804688 74.191406 15.941406 C 74.785156 15.265625 74.859375 15.007812 74.507812 14.882812 C 74.242188 14.789062 73.882812 14.820312 73.476562 14.972656 M 62.023438 14.960938 C 63.257812 15.296875 63.511719 16.253906 62.535156 16.921875 C 61.679688 17.511719 60.777344 17.707031 59.363281 17.601562 C 58.523438 17.542969 58.179688 17.839844 58.179688 18.613281 C 58.175781 19.878906 59.765625 20.035156 61.75 18.960938 C 62.585938 18.507812 62.863281 18.824219 62.179688 19.472656 C 61.101562 20.484375 58.980469 20.816406 57.871094 20.152344 C 56.824219 19.523438 56.710938 17.851562 57.628906 16.59375 C 58.570312 15.324219 60.570312 14.570312 62.023438 14.960938 M 68.761719 14.929688 C 69.410156 15.035156 69.722656 15.125 69.921875 15.273438 C 70.226562 15.503906 70.140625 15.835938 69.738281 15.953125 C 69.410156 16.054688 69.316406 16.039062 68.589844 15.734375 C 67.753906 15.394531 66.355469 15.773438 65.515625 16.582031 C 64.53125 17.523438 64.214844 18.867188 64.851562 19.371094 C 65.339844 19.746094 66.035156 19.742188 67.28125 19.367188 C 68.246094 19.058594 68.707031 19.148438 68.511719 19.59375 C 68.332031 20.019531 66.839844 20.503906 65.746094 20.503906 C 62.792969 20.5 62.683594 16.949219 65.589844 15.453125 C 66.535156 14.96875 67.714844 14.773438 68.761719 14.929688 M 74.550781 14.984375 C 74.742188 15.140625 74.648438 15.332031 74.003906 16.054688 C 73.414062 16.722656 72.652344 18.21875 72.546875 18.90625 C 72.476562 19.414062 72.976562 19.574219 73.753906 19.292969 C 73.949219 19.230469 74.140625 19.253906 74.175781 19.347656 C 74.351562 19.792969 72.117188 20.695312 71.441406 20.449219 C 70.734375 20.203125 70.796875 19.554688 71.652344 18.082031 C 72.527344 16.589844 72.53125 16.5 71.769531 16.359375 C 71.257812 16.277344 71.382812 16.101562 72.34375 15.570312 C 73.59375 14.886719 74.214844 14.722656 74.550781 14.984375 M 53.433594 15.34375 C 52.710938 15.433594 52.332031 15.835938 51.855469 16.988281 C 51.121094 18.796875 51.21875 19.210938 52.382812 19.210938 C 54.171875 19.210938 56.007812 16.488281 54.796875 15.632812 C 54.464844 15.398438 53.902344 15.277344 53.433594 15.34375 M 54.292969 15.457031 C 55.175781 15.726562 55.359375 16.382812 54.832031 17.375 C 54.253906 18.453125 53.347656 19.136719 52.441406 19.171875 C 51.625 19.207031 51.289062 18.847656 51.507812 18.183594 C 51.527344 18.105469 51.589844 17.925781 51.632812 17.785156 C 52.300781 15.726562 53.046875 15.070312 54.292969 15.457031 M 60.328125 15.683594 C 59.800781 15.871094 59.242188 16.402344 59.242188 16.722656 C 59.242188 17.292969 60.644531 17.320312 61.519531 16.785156 C 62.40625 16.230469 61.414062 15.3125 60.328125 15.683594 M 61.132812 15.6875 C 61.488281 15.757812 61.820312 16.054688 61.820312 16.296875 C 61.820312 16.847656 60.175781 17.363281 59.550781 17.019531 C 58.800781 16.59375 60.128906 15.480469 61.132812 15.6875 M 80.710938 15.808594 C 79.246094 16.074219 77.273438 17.792969 77.261719 18.804688 C 77.253906 20.066406 79.265625 19.347656 81.113281 17.425781 C 82.328125 16.175781 82.167969 15.535156 80.710938 15.808594 M 81.671875 15.859375 C 82.679688 16.167969 79.597656 19.152344 78.066406 19.351562 C 77.03125 19.484375 77.039062 18.519531 78.089844 17.453125 C 79.265625 16.257812 80.785156 15.578125 81.671875 15.859375 M 23.792969 27.785156 C 23.386719 27.855469 23.128906 27.890625 22.578125 27.957031 C 22.308594 27.980469 21.992188 28.027344 21.882812 28.046875 C 21.589844 28.105469 21.128906 28.140625 20.339844 28.164062 C 19.449219 28.1875 19.414062 28.242188 20.285156 28.242188 C 20.648438 28.242188 21.089844 28.242188 21.265625 28.253906 C 21.441406 28.261719 21.496094 28.257812 21.378906 28.253906 C 21.046875 28.230469 21.148438 28.164062 21.546875 28.140625 C 21.734375 28.125 21.988281 28.097656 22.109375 28.082031 C 22.234375 28.054688 22.691406 27.988281 23.125 27.933594 C 24.371094 27.761719 24.511719 27.738281 24.265625 27.738281 C 24.15625 27.738281 23.945312 27.757812 23.792969 27.785156 M 23.066406 28.164062 C 23.140625 28.171875 23.253906 28.171875 23.3125 28.164062 C 23.371094 28.15625 23.3125 28.148438 23.175781 28.148438 C 23.039062 28.148438 22.992188 28.15625 23.066406 28.164062 "/>
</g>
</svg>
