<?xml version="1.0" encoding="UTF-8"?>
<svg xmlns="http://www.w3.org/2000/svg" xmlns:xlink="http://www.w3.org/1999/xlink" width="22pt" height="22pt" viewBox="0 0 22 22" version="1.1">
<g id="surface1">
<path style=" stroke:none;fill-rule:nonzero;fill:rgb(55.686275%,14.117647%,66.666667%);fill-opacity:1;" d="M 20.996094 12.597656 C 21.644531 7.132812 20.683594 3.679688 18.953125 2.121094 C 16.15625 -0.542969 6.703125 -0.941406 3.355469 2.242188 C 1.851562 3.792969 1.324219 6.078125 1.265625 8.902344 C 1.207031 11.726562 1.136719 17.023438 6.070312 18.460938 L 6.074219 18.460938 L 6.070312 20.65625 C 6.070312 20.65625 6.039062 21.542969 6.605469 21.722656 C 7.253906 21.933594 7.546875 21.519531 9.566406 19.109375 C 12.945312 19.398438 15.539062 18.726562 15.832031 18.632812 C 16.515625 18.402344 20.375 17.894531 20.996094 12.597656 Z M 9.898438 17.566406 C 9.898438 17.566406 7.761719 20.230469 7.097656 20.921875 C 6.882812 21.148438 6.644531 21.128906 6.644531 20.679688 C 6.644531 20.386719 6.664062 17.039062 6.664062 17.039062 C 2.476562 15.835938 2.726562 11.332031 2.769531 8.972656 C 2.816406 6.609375 3.246094 4.679688 4.523438 3.378906 C 7.457031 0.625 15.746094 1.242188 17.855469 3.226562 C 20.4375 5.511719 19.519531 11.976562 19.523438 12.195312 C 18.992188 16.617188 15.863281 16.898438 15.289062 17.085938 C 15.046875 17.171875 12.765625 17.757812 9.898438 17.566406 Z M 9.898438 17.566406 "/>
<path style=" stroke:none;fill-rule:nonzero;fill:rgb(55.686275%,14.117647%,66.666667%);fill-opacity:1;" d="M 11.082031 3.898438 C 10.734375 3.898438 10.734375 4.441406 11.082031 4.445312 C 13.792969 4.464844 16.023438 6.355469 16.046875 9.816406 C 16.046875 10.183594 16.582031 10.179688 16.578125 9.8125 L 16.574219 9.8125 C 16.546875 6.082031 14.109375 3.914062 11.082031 3.898438 Z M 11.082031 3.898438 "/>
<path style=" stroke:none;fill-rule:nonzero;fill:rgb(55.686275%,14.117647%,66.666667%);fill-opacity:1;" d="M 14.644531 9.242188 C 14.640625 9.605469 15.171875 9.621094 15.175781 9.253906 C 15.222656 7.195312 13.953125 5.503906 11.566406 5.324219 C 11.21875 5.300781 11.179688 5.851562 11.53125 5.871094 C 13.597656 6.03125 14.6875 7.441406 14.644531 9.242188 Z M 14.644531 9.242188 "/>
<path style=" stroke:none;fill-rule:nonzero;fill:rgb(55.686275%,14.117647%,66.666667%);fill-opacity:1;" d="M 14.074219 11.585938 C 13.625 11.324219 13.171875 11.484375 12.980469 11.742188 L 12.585938 12.25 C 12.386719 12.507812 12.015625 12.476562 12.015625 12.476562 C 9.28125 11.753906 8.550781 8.894531 8.550781 8.894531 C 8.550781 8.894531 8.511719 8.503906 8.765625 8.296875 L 9.257812 7.890625 C 9.507812 7.695312 9.660156 7.222656 9.410156 6.761719 C 8.738281 5.546875 8.289062 5.128906 8.058594 4.808594 C 7.816406 4.507812 7.457031 4.4375 7.078125 4.644531 L 7.070312 4.644531 C 6.285156 5.101562 5.425781 5.960938 5.699219 6.84375 C 6.167969 7.777344 7.03125 10.746094 9.773438 12.992188 C 11.066406 14.054688 13.109375 15.144531 13.976562 15.394531 L 13.988281 15.40625 C 14.839844 15.691406 15.667969 14.800781 16.113281 13.988281 C 16.308594 13.59375 16.246094 13.226562 15.957031 12.980469 C 15.449219 12.484375 14.679688 11.9375 14.074219 11.585938 Z M 14.074219 11.585938 "/>
<path style=" stroke:none;fill-rule:nonzero;fill:rgb(55.686275%,14.117647%,66.666667%);fill-opacity:1;" d="M 11.941406 7.347656 C 12.8125 7.398438 13.234375 7.855469 13.28125 8.789062 C 13.296875 9.15625 13.828125 9.128906 13.8125 8.765625 C 13.753906 7.542969 13.117188 6.863281 11.972656 6.800781 C 11.621094 6.78125 11.585938 7.328125 11.941406 7.347656 Z M 11.941406 7.347656 "/>
</g>
</svg>
