<?xml version="1.0" encoding="UTF-8"?>
<svg xmlns="http://www.w3.org/2000/svg" xmlns:xlink="http://www.w3.org/1999/xlink" width="100pt" height="35pt" viewBox="0 0 100 35" version="1.1">
<g id="surface1">
<path style=" stroke:none;fill-rule:evenodd;fill:rgb(20.392157%,79.607843%,20.392157%);fill-opacity:1;" d="M 18.257812 4.230469 C 18.058594 4.242188 17.894531 4.253906 17.894531 4.269531 C 17.894531 4.296875 17.742188 4.3125 17.300781 4.320312 C 16.980469 4.335938 16.394531 4.40625 16.1875 4.457031 C 16.109375 4.476562 15.972656 4.492188 15.894531 4.484375 C 15.808594 4.476562 15.765625 4.488281 15.78125 4.507812 C 15.800781 4.523438 15.78125 4.539062 15.753906 4.539062 C 15.636719 4.527344 15.246094 4.589844 15.183594 4.628906 C 15.148438 4.640625 15.050781 4.660156 14.960938 4.667969 C 14.773438 4.683594 14.382812 4.757812 14.285156 4.796875 C 14.238281 4.820312 14.160156 4.839844 14.105469 4.839844 C 14 4.847656 13.722656 4.910156 13.570312 4.960938 C 13.527344 4.972656 13.453125 4.988281 13.410156 4.988281 C 13.367188 4.988281 13.335938 5.003906 13.335938 5.023438 C 13.335938 5.046875 13.320312 5.054688 13.296875 5.050781 C 13.226562 5.046875 12.992188 5.101562 12.941406 5.144531 C 12.90625 5.167969 12.851562 5.179688 12.8125 5.171875 C 12.777344 5.164062 12.640625 5.191406 12.511719 5.234375 C 12.378906 5.285156 11.894531 5.445312 11.429688 5.597656 C 10.972656 5.757812 10.585938 5.90625 10.570312 5.933594 C 10.5625 5.953125 10.53125 5.96875 10.507812 5.953125 C 10.492188 5.953125 10.390625 5.980469 10.289062 6.027344 C 10.1875 6.070312 10.097656 6.113281 10.082031 6.113281 C 10.066406 6.113281 9.902344 6.1875 9.710938 6.277344 C 9.527344 6.378906 9.355469 6.449219 9.339844 6.449219 C 9.304688 6.449219 8.621094 6.78125 8.574219 6.8125 C 8.566406 6.835938 8.464844 6.886719 8.359375 6.9375 C 8.070312 7.082031 7.65625 7.34375 7.667969 7.363281 C 7.679688 7.375 7.664062 7.378906 7.648438 7.378906 C 7.570312 7.378906 7.238281 7.582031 7.238281 7.628906 C 7.238281 7.65625 7.222656 7.667969 7.195312 7.660156 C 7.171875 7.644531 6.898438 7.820312 6.589844 8.035156 C 5.960938 8.472656 5.734375 8.652344 5.851562 8.601562 C 5.914062 8.578125 5.914062 8.582031 5.855469 8.628906 C 5.8125 8.667969 5.777344 8.683594 5.761719 8.675781 C 5.730469 8.652344 5.378906 8.96875 5.394531 9.003906 C 5.394531 9.015625 5.378906 9.027344 5.359375 9.027344 C 5.300781 9.027344 4.636719 9.625 4.664062 9.648438 C 4.671875 9.660156 4.640625 9.691406 4.574219 9.730469 C 4.460938 9.800781 4.257812 10.007812 4.34375 9.976562 C 4.386719 9.957031 4.394531 9.96875 4.375 10.019531 C 4.359375 10.058594 4.332031 10.074219 4.316406 10.046875 C 4.269531 10.003906 4.148438 10.113281 3.871094 10.460938 C 3.804688 10.542969 3.71875 10.640625 3.683594 10.675781 C 3.460938 10.929688 2.578125 12.195312 2.578125 12.269531 C 2.578125 12.296875 2.554688 12.324219 2.535156 12.335938 C 2.511719 12.34375 2.476562 12.386719 2.464844 12.433594 C 2.445312 12.476562 2.367188 12.640625 2.28125 12.792969 C 2.191406 12.957031 2.109375 13.140625 2.085938 13.203125 C 2.0625 13.273438 1.996094 13.425781 1.9375 13.542969 C 1.878906 13.660156 1.839844 13.78125 1.851562 13.800781 C 1.863281 13.820312 1.847656 13.878906 1.808594 13.921875 C 1.753906 14.003906 1.65625 14.296875 1.671875 14.382812 C 1.675781 14.40625 1.65625 14.414062 1.632812 14.40625 C 1.609375 14.394531 1.59375 14.464844 1.597656 14.554688 C 1.597656 14.648438 1.582031 14.746094 1.558594 14.769531 C 1.53125 14.796875 1.542969 14.800781 1.578125 14.78125 C 1.609375 14.773438 1.636719 14.777344 1.636719 14.796875 C 1.636719 14.820312 1.605469 14.832031 1.566406 14.832031 C 1.496094 14.832031 1.453125 15.011719 1.417969 15.347656 C 1.417969 15.402344 1.398438 15.445312 1.378906 15.445312 C 1.359375 15.445312 1.339844 15.59375 1.339844 15.777344 C 1.335938 15.957031 1.328125 16.304688 1.308594 16.542969 C 1.292969 16.78125 1.296875 16.972656 1.320312 16.972656 C 1.347656 16.972656 1.367188 17.292969 1.371094 17.675781 C 1.382812 18.433594 1.464844 19.042969 1.554688 19.042969 C 1.59375 19.042969 1.613281 19.128906 1.617188 19.269531 C 1.621094 19.503906 1.722656 19.855469 1.824219 19.980469 C 1.859375 20.023438 1.871094 20.074219 1.859375 20.101562 C 1.839844 20.132812 1.886719 20.269531 1.960938 20.410156 C 2.03125 20.539062 2.089844 20.691406 2.089844 20.734375 C 2.085938 20.773438 2.109375 20.804688 2.132812 20.804688 C 2.160156 20.804688 2.175781 20.824219 2.171875 20.832031 C 2.152344 20.875 2.28125 21.144531 2.332031 21.164062 C 2.355469 21.179688 2.363281 21.203125 2.347656 21.230469 C 2.335938 21.253906 2.355469 21.3125 2.390625 21.363281 C 2.433594 21.402344 2.484375 21.476562 2.5 21.527344 C 2.519531 21.582031 2.550781 21.628906 2.574219 21.628906 C 2.605469 21.628906 2.613281 21.644531 2.597656 21.667969 C 2.585938 21.695312 2.609375 21.734375 2.652344 21.765625 C 2.695312 21.804688 2.730469 21.835938 2.730469 21.84375 C 2.722656 21.863281 2.734375 21.898438 2.746094 21.941406 C 2.757812 21.964844 2.765625 21.996094 2.769531 22.019531 C 2.773438 22.046875 2.796875 22.0625 2.824219 22.046875 C 2.847656 22.042969 2.855469 22.058594 2.847656 22.089844 C 2.828125 22.125 2.851562 22.171875 2.898438 22.199219 C 2.941406 22.222656 2.976562 22.273438 2.976562 22.308594 C 2.976562 22.34375 3.007812 22.378906 3.046875 22.390625 C 3.085938 22.402344 3.109375 22.417969 3.097656 22.4375 C 3.082031 22.457031 3.191406 22.621094 3.339844 22.820312 C 3.773438 23.386719 3.898438 23.519531 3.933594 23.5 C 3.949219 23.488281 3.964844 23.507812 3.964844 23.546875 C 3.964844 23.578125 4.003906 23.640625 4.058594 23.679688 C 4.105469 23.714844 4.148438 23.753906 4.152344 23.769531 C 4.1875 23.902344 4.527344 24.199219 4.605469 24.164062 C 4.671875 24.121094 4.675781 24.125 4.621094 24.171875 C 4.558594 24.226562 4.75 24.441406 5.191406 24.8125 C 5.222656 24.84375 5.398438 24.996094 5.585938 25.152344 C 6.289062 25.75 8.039062 26.921875 8.148438 26.863281 C 8.160156 26.859375 8.164062 26.863281 8.15625 26.867188 C 8.132812 26.894531 8.316406 27.019531 8.371094 27.019531 C 8.398438 27.019531 8.46875 27.058594 8.8125 27.257812 C 8.871094 27.292969 8.941406 27.324219 8.960938 27.324219 C 8.980469 27.324219 9.054688 27.363281 9.125 27.402344 C 9.246094 27.480469 9.789062 27.734375 9.890625 27.761719 C 9.914062 27.769531 9.964844 27.796875 10.007812 27.820312 C 10.039062 27.851562 10.085938 27.859375 10.109375 27.851562 C 10.140625 27.84375 10.164062 27.855469 10.175781 27.878906 C 10.191406 27.90625 10.390625 27.988281 10.617188 28.074219 C 10.84375 28.148438 11.054688 28.230469 11.089844 28.246094 C 11.125 28.265625 11.171875 28.269531 11.199219 28.261719 C 11.222656 28.246094 11.253906 28.265625 11.277344 28.296875 C 11.292969 28.328125 11.320312 28.347656 11.332031 28.332031 C 11.347656 28.320312 11.40625 28.347656 11.464844 28.382812 C 11.527344 28.417969 11.601562 28.4375 11.632812 28.425781 C 11.660156 28.421875 11.707031 28.4375 11.714844 28.460938 C 11.730469 28.484375 11.824219 28.523438 11.914062 28.53125 C 12.015625 28.542969 12.097656 28.566406 12.097656 28.585938 C 12.097656 28.609375 12.121094 28.613281 12.15625 28.609375 C 12.191406 28.609375 12.285156 28.628906 12.355469 28.65625 C 12.429688 28.691406 12.507812 28.710938 12.539062 28.703125 C 12.558594 28.691406 12.59375 28.707031 12.613281 28.734375 C 12.625 28.761719 12.667969 28.789062 12.710938 28.789062 C 12.75 28.789062 12.855469 28.808594 12.945312 28.839844 C 13.246094 28.945312 13.28125 28.957031 13.351562 28.957031 C 13.394531 28.957031 13.488281 28.980469 13.566406 29.007812 C 13.644531 29.03125 13.746094 29.054688 13.785156 29.054688 C 13.835938 29.054688 13.886719 29.070312 13.90625 29.09375 C 13.921875 29.105469 13.984375 29.121094 14.046875 29.117188 C 14.105469 29.117188 14.222656 29.136719 14.300781 29.167969 C 14.386719 29.199219 14.5 29.226562 14.558594 29.226562 C 14.621094 29.226562 14.679688 29.242188 14.699219 29.253906 C 14.714844 29.273438 14.796875 29.285156 14.878906 29.285156 C 14.960938 29.28125 15.046875 29.300781 15.066406 29.316406 C 15.101562 29.359375 15.519531 29.425781 15.90625 29.449219 C 16.035156 29.457031 16.144531 29.480469 16.164062 29.496094 C 16.199219 29.539062 16.753906 29.59375 17.347656 29.621094 C 17.578125 29.628906 17.789062 29.644531 17.820312 29.667969 C 17.851562 29.6875 17.921875 29.699219 17.972656 29.703125 C 18.589844 29.746094 96.0625 29.726562 96.15625 29.6875 C 96.21875 29.65625 96.296875 29.636719 96.34375 29.636719 C 96.449219 29.636719 96.730469 29.523438 96.847656 29.441406 C 96.902344 29.394531 96.972656 29.359375 96.996094 29.359375 C 97.082031 29.359375 97.328125 29.164062 97.292969 29.125 C 97.277344 29.109375 97.285156 29.085938 97.324219 29.070312 C 97.359375 29.054688 97.363281 29.0625 97.34375 29.09375 C 97.324219 29.121094 97.351562 29.101562 97.414062 29.054688 C 97.523438 28.96875 97.632812 28.820312 97.621094 28.777344 C 97.613281 28.761719 97.632812 28.75 97.652344 28.75 C 97.714844 28.75 97.796875 28.550781 97.808594 28.378906 C 97.8125 28.292969 97.839844 28.210938 97.863281 28.1875 C 97.925781 28.148438 97.925781 5.863281 97.863281 5.824219 C 97.839844 5.800781 97.8125 5.714844 97.808594 5.617188 C 97.796875 5.433594 97.71875 5.226562 97.640625 5.179688 C 97.609375 5.171875 97.601562 5.160156 97.621094 5.160156 C 97.667969 5.160156 97.566406 5.035156 97.367188 4.847656 C 97.277344 4.757812 97.179688 4.695312 97.152344 4.707031 C 97.121094 4.71875 97.113281 4.714844 97.136719 4.695312 C 97.152344 4.671875 97.136719 4.640625 97.085938 4.617188 C 97.054688 4.597656 97.015625 4.585938 97.015625 4.601562 C 97.015625 4.613281 96.980469 4.589844 96.929688 4.550781 C 96.828125 4.46875 96.449219 4.320312 96.5 4.390625 C 96.515625 4.40625 96.5 4.402344 96.457031 4.371094 C 96.417969 4.339844 96.355469 4.308594 96.320312 4.308594 C 96.273438 4.308594 96.214844 4.296875 96.183594 4.269531 C 96.121094 4.230469 19.429688 4.195312 18.257812 4.230469 M 22.632812 5.65625 L 23.273438 5.753906 L 58.351562 5.773438 L 93.421875 5.789062 L 93.742188 5.890625 C 94.335938 6.085938 94.726562 6.402344 94.933594 6.863281 C 95.019531 7.0625 95 26.921875 94.910156 27.128906 C 94.671875 27.675781 94.003906 28.085938 93.234375 28.152344 C 93.097656 28.164062 77.394531 28.175781 58.332031 28.175781 C 30.273438 28.179688 23.578125 28.1875 23.175781 28.222656 C 21.378906 28.382812 21.390625 28.382812 19.804688 28.363281 C 18.960938 28.355469 18.132812 28.335938 17.972656 28.320312 C 17.808594 28.296875 17.496094 28.265625 17.273438 28.242188 C 16.945312 28.210938 15.789062 28.023438 15.199219 27.90625 C 14.082031 27.679688 12.429688 27.183594 11.625 26.835938 C 11.484375 26.773438 11.242188 26.671875 11.085938 26.613281 C 10.925781 26.558594 10.648438 26.425781 10.46875 26.332031 C 10.28125 26.234375 10.058594 26.117188 9.960938 26.066406 C 8.4375 25.289062 6.984375 24.203125 5.886719 23.03125 C 5.355469 22.449219 4.683594 21.523438 4.417969 20.992188 C 4.367188 20.882812 4.257812 20.667969 4.1875 20.535156 C 3.527344 19.257812 3.195312 17.0625 3.445312 15.652344 C 3.550781 15.0625 3.914062 13.871094 4.0625 13.625 C 4.085938 13.589844 4.148438 13.460938 4.207031 13.339844 C 4.386719 12.960938 4.648438 12.492188 4.886719 12.15625 C 5.015625 11.976562 5.152344 11.777344 5.203125 11.710938 C 5.246094 11.644531 5.316406 11.554688 5.359375 11.503906 C 5.402344 11.453125 5.621094 11.214844 5.84375 10.972656 C 7.476562 9.152344 10.015625 7.558594 12.667969 6.707031 C 13.511719 6.425781 13.796875 6.339844 13.933594 6.308594 C 13.996094 6.296875 14.242188 6.238281 14.476562 6.179688 C 14.84375 6.085938 15.886719 5.882812 16.410156 5.800781 C 17.980469 5.5625 18.417969 5.539062 20.449219 5.554688 C 21.902344 5.5625 22.023438 5.566406 22.632812 5.65625 M 26.078125 6.277344 C 26.078125 6.296875 26.117188 6.3125 26.171875 6.3125 C 26.265625 6.3125 26.441406 6.363281 27.5 6.707031 C 28.160156 6.917969 29.191406 7.347656 29.847656 7.675781 C 30.105469 7.8125 30.433594 7.984375 30.578125 8.054688 C 32.035156 8.804688 33.339844 9.867188 34.71875 11.421875 C 34.859375 11.585938 35.539062 12.554688 35.617188 12.710938 C 35.652344 12.78125 35.78125 13.023438 35.894531 13.238281 C 36.003906 13.453125 36.117188 13.679688 36.140625 13.742188 C 36.203125 13.933594 36.386719 14.4375 36.433594 14.542969 C 36.457031 14.597656 36.515625 14.800781 36.558594 14.984375 C 36.605469 15.167969 36.667969 15.414062 36.691406 15.511719 C 36.773438 15.8125 36.800781 17.535156 36.738281 18.007812 C 36.597656 18.992188 36.296875 19.933594 35.875 20.722656 C 35.773438 20.914062 35.644531 21.15625 35.582031 21.261719 C 35.113281 22.183594 33.789062 23.625 32.527344 24.585938 C 30.859375 25.863281 28.175781 27.148438 26.273438 27.582031 C 26.125 27.617188 25.980469 27.660156 25.953125 27.671875 C 25.878906 27.71875 92.152344 27.703125 92.457031 27.660156 C 93.214844 27.546875 93.738281 27.222656 93.917969 26.738281 C 94.023438 26.453125 94.023438 7.527344 93.917969 7.21875 C 93.773438 6.808594 93.351562 6.484375 92.769531 6.347656 L 92.433594 6.265625 L 59.253906 6.253906 C 37.078125 6.246094 26.078125 6.253906 26.078125 6.277344 M 10.414062 8.824219 C 10.339844 8.917969 10.347656 8.976562 10.464844 9.042969 C 10.667969 9.175781 10.984375 8.984375 10.824219 8.828125 C 10.726562 8.734375 10.488281 8.730469 10.414062 8.824219 M 10.730469 8.914062 C 10.730469 8.996094 10.714844 9.011719 10.609375 9.011719 C 10.46875 9.011719 10.414062 8.917969 10.515625 8.839844 C 10.613281 8.757812 10.730469 8.796875 10.730469 8.914062 M 16.667969 8.851562 C 16.71875 8.859375 16.792969 8.859375 16.84375 8.851562 C 16.894531 8.839844 16.847656 8.832031 16.753906 8.832031 C 16.664062 8.832031 16.621094 8.839844 16.667969 8.851562 M 16.570312 9.203125 C 16.46875 9.269531 16.496094 9.425781 16.613281 9.484375 C 16.84375 9.59375 17.121094 9.382812 16.929688 9.234375 C 16.828125 9.15625 16.660156 9.144531 16.570312 9.203125 M 16.871094 9.273438 C 16.917969 9.320312 16.917969 9.355469 16.871094 9.394531 C 16.789062 9.484375 16.664062 9.484375 16.601562 9.386719 C 16.496094 9.226562 16.742188 9.132812 16.871094 9.273438 M 10.941406 9.394531 C 10.824219 9.410156 10.757812 9.535156 10.757812 9.730469 C 10.757812 9.8125 10.734375 10.023438 10.710938 10.195312 C 10.679688 10.367188 10.628906 10.789062 10.582031 11.136719 C 10.542969 11.480469 10.492188 11.925781 10.460938 12.132812 C 10.433594 12.339844 10.390625 12.699219 10.359375 12.933594 C 10.265625 13.671875 10.378906 13.667969 8.617188 13.042969 C 7.710938 12.722656 7.484375 12.660156 7.484375 12.71875 C 7.484375 12.738281 8.148438 13.800781 8.332031 14.066406 C 8.382812 14.144531 8.511719 14.335938 8.613281 14.507812 C 8.84375 14.882812 8.875 14.882812 9 14.550781 C 9.140625 14.152344 9.234375 14.140625 9.847656 14.410156 C 10.265625 14.59375 10.28125 14.605469 10.203125 14.886719 C 10.117188 15.195312 10.144531 15.199219 10.808594 15.003906 C 11.644531 14.75 11.636719 14.769531 11.078125 14.515625 C 10.609375 14.308594 10.609375 14.308594 10.757812 13.796875 C 10.910156 13.246094 10.9375 13.234375 11.71875 13.5625 L 12.257812 13.792969 L 12.226562 14 C 12.210938 14.109375 12.183594 14.289062 12.160156 14.386719 L 12.132812 14.570312 L 12.261719 14.550781 C 12.488281 14.507812 13.554688 14.171875 13.554688 14.136719 C 13.558594 14.121094 13.378906 14.023438 13.164062 13.933594 C 12.945312 13.839844 12.691406 13.710938 12.601562 13.660156 L 12.433594 13.554688 L 12.566406 13.046875 C 12.765625 12.28125 12.753906 12.285156 13.640625 12.652344 C 14.460938 12.992188 14.460938 12.992188 14.300781 13.472656 C 14.136719 14.003906 14.152344 14.011719 15.160156 13.691406 C 15.363281 13.632812 15.546875 13.582031 15.566406 13.582031 C 15.710938 13.582031 15.570312 13.453125 15.28125 13.324219 C 14.808594 13.113281 14.75 13.066406 14.796875 12.894531 C 14.996094 11.972656 15.027344 11.953125 15.839844 12.324219 L 16.367188 12.566406 L 16.339844 12.789062 C 16.320312 12.917969 16.292969 13.078125 16.277344 13.160156 C 16.242188 13.363281 16.289062 13.363281 16.890625 13.175781 C 17.183594 13.085938 17.46875 13 17.515625 12.984375 C 17.652344 12.957031 17.597656 12.894531 17.285156 12.75 C 16.960938 12.597656 16.945312 12.542969 17.074219 12.101562 C 17.1875 11.742188 17.28125 11.71875 17.804688 11.9375 C 18.28125 12.128906 18.289062 12.144531 17.550781 11.015625 C 17.5 10.9375 17.332031 10.679688 17.175781 10.441406 C 16.738281 9.742188 16.800781 9.691406 16.238281 11.117188 C 15.988281 11.730469 15.890625 11.855469 15.6875 11.800781 C 15.628906 11.789062 14.179688 11.019531 11.8125 9.765625 C 11.140625 9.402344 11.070312 9.375 10.941406 9.394531 M 11.257812 9.550781 C 11.378906 9.609375 12.179688 10.035156 13.035156 10.488281 C 15.265625 11.667969 15.578125 11.832031 15.683594 11.855469 C 15.816406 11.894531 16 11.816406 16.078125 11.679688 C 16.144531 11.566406 16.203125 11.4375 16.535156 10.605469 C 16.769531 10.007812 16.789062 9.992188 16.953125 10.242188 C 17.425781 10.957031 18 11.890625 17.980469 11.898438 C 17.964844 11.914062 17.851562 11.882812 17.730469 11.832031 C 17.214844 11.628906 17.011719 11.761719 16.925781 12.363281 C 16.890625 12.605469 16.921875 12.652344 17.328125 12.847656 L 17.476562 12.925781 L 17.101562 13.042969 C 16.898438 13.113281 16.644531 13.1875 16.539062 13.21875 L 16.347656 13.273438 L 16.378906 13.113281 C 16.457031 12.726562 16.460938 12.574219 16.402344 12.519531 C 16.300781 12.449219 15.316406 12.015625 15.230469 12.015625 C 15.011719 12.015625 14.882812 12.136719 14.820312 12.398438 C 14.796875 12.492188 14.753906 12.671875 14.726562 12.78125 C 14.652344 13.070312 14.703125 13.140625 15.121094 13.324219 C 15.578125 13.53125 15.617188 13.492188 14.605469 13.800781 L 14.316406 13.886719 L 14.339844 13.738281 C 14.351562 13.660156 14.390625 13.46875 14.425781 13.316406 C 14.503906 12.949219 14.492188 12.9375 13.703125 12.609375 C 12.851562 12.257812 12.671875 12.269531 12.578125 12.664062 C 12.558594 12.726562 12.503906 12.953125 12.445312 13.164062 C 12.316406 13.632812 12.308594 13.617188 12.917969 13.886719 C 13.476562 14.128906 13.472656 14.125 13.074219 14.257812 C 12.132812 14.550781 12.1875 14.550781 12.277344 14.253906 C 12.417969 13.789062 12.402344 13.773438 11.699219 13.476562 C 10.855469 13.136719 10.808594 13.164062 10.585938 14.125 C 10.542969 14.320312 10.617188 14.402344 11 14.558594 C 11.441406 14.734375 11.4375 14.746094 10.96875 14.886719 C 10.757812 14.953125 10.542969 15.015625 10.496094 15.035156 C 10.273438 15.128906 10.238281 15.085938 10.3125 14.832031 C 10.371094 14.617188 10.3125 14.550781 9.847656 14.335938 C 9.242188 14.070312 9.078125 14.089844 8.925781 14.464844 L 8.839844 14.683594 L 8.652344 14.410156 C 8.367188 13.980469 8.300781 13.882812 8.15625 13.644531 C 8.082031 13.523438 7.976562 13.355469 7.921875 13.273438 C 7.699219 12.933594 7.632812 12.820312 7.65625 12.804688 C 7.671875 12.789062 8.199219 12.960938 8.820312 13.183594 C 9.445312 13.402344 10.011719 13.582031 10.078125 13.582031 C 10.324219 13.582031 10.460938 13.328125 10.460938 12.878906 C 10.460938 12.761719 10.492188 12.464844 10.53125 12.214844 C 10.566406 11.96875 10.628906 11.558594 10.652344 11.300781 C 10.683594 11.050781 10.746094 10.605469 10.785156 10.316406 C 10.824219 10.027344 10.851562 9.738281 10.851562 9.65625 C 10.851562 9.417969 10.957031 9.390625 11.257812 9.550781 M 15.167969 9.691406 C 15.117188 9.738281 15.121094 9.757812 15.1875 9.800781 C 15.28125 9.867188 15.386719 9.820312 15.363281 9.71875 C 15.335938 9.636719 15.25 9.625 15.167969 9.691406 M 56.015625 10.332031 C 56.199219 10.355469 56.554688 10.414062 56.8125 10.457031 C 57.390625 10.546875 57.9375 10.53125 58.839844 10.421875 C 59.824219 10.304688 60.289062 10.488281 60.160156 10.945312 C 60.109375 11.140625 59.90625 11.238281 58.996094 11.535156 C 58.113281 11.820312 58.035156 11.878906 57.507812 12.742188 C 57.316406 13.042969 57.011719 13.535156 56.8125 13.832031 C 56.617188 14.128906 56.394531 14.484375 56.320312 14.613281 C 56.238281 14.746094 56.042969 15.078125 55.875 15.363281 C 54.953125 16.886719 53.457031 19.578125 52.421875 21.558594 C 52.105469 22.171875 52.035156 22.296875 51.941406 22.460938 C 51.675781 22.921875 51.128906 23.105469 50.746094 22.878906 C 50.457031 22.707031 50.378906 22.558594 49.847656 21.253906 C 49.492188 20.382812 49.300781 19.996094 48.78125 19.128906 C 48.273438 18.277344 47.792969 17.425781 47.441406 16.769531 C 47.332031 16.554688 47.144531 16.203125 47.039062 16.007812 C 46.773438 15.507812 46.664062 15.304688 46.277344 14.5625 C 45.066406 12.25 44.722656 11.792969 44.042969 11.609375 C 43.9375 11.570312 43.699219 11.503906 43.515625 11.453125 C 42.875 11.277344 42.726562 10.902344 43.167969 10.574219 C 43.515625 10.332031 43.957031 10.289062 44.84375 10.441406 C 45.535156 10.546875 45.996094 10.546875 46.6875 10.4375 C 47.859375 10.242188 48.578125 10.335938 48.777344 10.703125 C 48.914062 10.945312 48.8125 11.039062 48.234375 11.226562 C 47.042969 11.609375 47.042969 11.949219 48.191406 13.949219 C 48.386719 14.277344 48.664062 14.769531 48.816406 15.035156 C 48.964844 15.304688 49.144531 15.632812 49.214844 15.746094 C 49.625 16.476562 49.953125 17.09375 50.335938 17.914062 C 51.214844 19.765625 51.65625 19.777344 53.03125 17.988281 C 53.308594 17.625 54.546875 15.527344 55.144531 14.410156 C 56.339844 12.15625 56.359375 11.769531 55.28125 11.316406 C 54.40625 10.941406 54.253906 10.78125 54.519531 10.496094 C 54.695312 10.3125 55.390625 10.242188 56.015625 10.332031 M 74.300781 10.335938 C 74.605469 10.363281 74.902344 10.394531 74.964844 10.402344 C 75.628906 10.503906 76.269531 10.519531 77.773438 10.46875 C 80.5 10.367188 81.59375 10.472656 82.746094 10.949219 C 84.132812 11.527344 84.703125 12.253906 84.695312 13.441406 C 84.683594 15.078125 83.515625 16.339844 81.328125 17.085938 C 80.203125 17.46875 78.640625 17.535156 78.433594 17.21875 C 78.308594 17.035156 78.519531 16.941406 79.574219 16.695312 C 81.460938 16.25 82.441406 15.238281 82.441406 13.734375 C 82.441406 12.175781 79.902344 10.851562 77.6875 11.246094 C 77.011719 11.375 76.984375 11.425781 76.933594 12.480469 C 76.914062 12.960938 76.867188 13.78125 76.832031 14.289062 C 76.726562 15.921875 76.800781 20.054688 76.941406 20.566406 C 77.0625 20.980469 77.359375 21.1875 78.300781 21.523438 C 79.316406 21.882812 79.464844 21.976562 79.464844 22.25 C 79.464844 22.585938 79.148438 22.617188 77.238281 22.449219 C 76.46875 22.382812 74.984375 22.398438 73.855469 22.488281 C 72.996094 22.554688 72.773438 22.539062 72.59375 22.417969 C 72.300781 22.222656 72.480469 22.042969 73.371094 21.640625 C 74.621094 21.074219 74.574219 21.171875 74.6875 18.636719 C 74.777344 16.609375 74.777344 16.476562 74.609375 13.21875 C 74.546875 11.945312 74.320312 11.574219 73.378906 11.175781 C 72.667969 10.882812 72.558594 10.726562 72.871094 10.472656 C 73.125 10.285156 73.417969 10.257812 74.300781 10.335938 M 15.199219 10.546875 C 15.148438 10.652344 15.085938 10.800781 15.054688 10.878906 L 14.996094 11.007812 L 15.246094 11.152344 C 15.75 11.453125 15.933594 11.144531 15.558594 10.609375 C 15.347656 10.3125 15.296875 10.304688 15.199219 10.546875 M 64.816406 10.441406 C 65.691406 10.496094 66.167969 10.496094 67.074219 10.441406 C 68.683594 10.332031 68.894531 10.367188 68.945312 10.800781 C 68.980469 11.09375 68.863281 11.183594 68.277344 11.320312 C 67.554688 11.480469 67.132812 11.792969 66.894531 12.316406 C 66.792969 12.550781 66.792969 19.921875 66.894531 20.300781 C 67.085938 20.960938 67.378906 21.25 68.125 21.5 C 68.652344 21.675781 68.8125 21.847656 68.707031 22.125 C 68.574219 22.527344 68.355469 22.558594 66.730469 22.417969 C 65.628906 22.324219 65.664062 22.324219 64.222656 22.4375 C 63.054688 22.535156 62.804688 22.507812 62.714844 22.230469 C 62.648438 22 62.886719 21.820312 63.554688 21.589844 C 64.785156 21.167969 64.792969 21.125 64.789062 16.171875 C 64.789062 11.539062 64.832031 11.703125 63.558594 11.238281 C 62.988281 11.03125 62.8125 10.910156 62.8125 10.75 C 62.8125 10.402344 63.292969 10.332031 64.816406 10.441406 M 15.535156 10.71875 C 15.800781 11.148438 15.652344 11.34375 15.25 11.085938 C 15.101562 10.988281 15.101562 10.949219 15.25 10.613281 C 15.347656 10.425781 15.363281 10.433594 15.535156 10.71875 M 8.265625 11.734375 C 8.203125 11.773438 8.230469 11.871094 8.300781 11.890625 C 8.410156 11.921875 8.5 11.824219 8.429688 11.765625 C 8.363281 11.703125 8.3125 11.699219 8.265625 11.734375 M 6.851562 11.800781 C 6.898438 11.816406 6.976562 11.816406 7.023438 11.800781 C 7.074219 11.792969 7.035156 11.792969 6.941406 11.792969 C 6.84375 11.792969 6.808594 11.792969 6.851562 11.800781 M 6.804688 12.125 C 6.675781 12.164062 6.644531 12.339844 6.75 12.417969 C 6.859375 12.492188 7.085938 12.464844 7.152344 12.367188 C 7.25 12.222656 7.015625 12.058594 6.804688 12.125 M 7.089844 12.285156 C 7.089844 12.433594 6.828125 12.453125 6.761719 12.308594 C 6.722656 12.21875 6.867188 12.136719 6.996094 12.1875 C 7.046875 12.210938 7.089844 12.253906 7.089844 12.285156 M 8.972656 12.316406 C 8.972656 12.769531 9.816406 13.253906 9.882812 12.847656 C 9.9375 12.578125 9.910156 12.554688 9.445312 12.394531 C 8.953125 12.234375 8.972656 12.234375 8.972656 12.316406 M 17.519531 12.335938 C 17.503906 12.367188 17.523438 12.417969 17.5625 12.449219 C 17.667969 12.519531 17.808594 12.476562 17.789062 12.382812 C 17.765625 12.285156 17.5625 12.253906 17.519531 12.335938 M 9.609375 12.519531 L 9.832031 12.597656 L 9.796875 12.769531 C 9.75 13.070312 9.476562 13.007812 9.226562 12.625 C 9.03125 12.316406 9.046875 12.3125 9.609375 12.519531 M 27.898438 12.382812 C 27.957031 12.386719 28.058594 12.386719 28.121094 12.382812 C 28.183594 12.367188 28.132812 12.363281 28.007812 12.363281 C 27.886719 12.363281 27.835938 12.367188 27.898438 12.382812 M 18.292969 12.476562 C 18.207031 12.628906 18.230469 12.738281 18.347656 12.722656 C 18.511719 12.703125 18.566406 12.621094 18.492188 12.492188 C 18.414062 12.363281 18.359375 12.363281 18.292969 12.476562 M 15.351562 12.671875 C 15.285156 12.832031 15.316406 12.929688 15.460938 12.996094 C 15.710938 13.117188 15.863281 13.046875 15.863281 12.808594 C 15.863281 12.652344 15.40625 12.519531 15.351562 12.671875 M 15.667969 12.722656 C 15.757812 12.773438 15.769531 12.804688 15.742188 12.894531 C 15.683594 13.078125 15.414062 12.988281 15.414062 12.78125 C 15.414062 12.644531 15.488281 12.625 15.667969 12.722656 M 26.890625 12.71875 C 24.429688 12.984375 22.496094 14.257812 21.953125 15.96875 C 21.828125 16.359375 21.5 16.308594 21.371094 15.878906 C 21.109375 15.035156 20.367188 14.179688 19.433594 13.660156 C 19.023438 13.425781 19.027344 13.425781 17.9375 13.753906 C 17.4375 13.902344 16.785156 14.097656 16.484375 14.183594 C 15.875 14.363281 14.300781 14.835938 12.070312 15.511719 C 11.253906 15.757812 10.425781 16.011719 10.238281 16.0625 C 9.738281 16.203125 9.71875 16.226562 9.683594 16.582031 C 9.625 17.1875 9.871094 17.941406 10.339844 18.566406 C 10.699219 19.054688 10.429688 18.839844 14.300781 21.640625 C 14.820312 22.015625 15.769531 22.703125 16.410156 23.171875 C 17.046875 23.632812 18.015625 24.335938 18.566406 24.730469 C 19.109375 25.121094 20.015625 25.777344 20.570312 26.179688 C 21.132812 26.582031 21.628906 26.917969 21.664062 26.917969 C 21.753906 26.917969 21.738281 26.925781 24.363281 25.03125 C 25.398438 24.289062 26.515625 23.484375 26.847656 23.25 C 27.96875 22.457031 32.058594 19.5 32.296875 19.316406 C 34.539062 17.570312 33.917969 14.640625 31.019531 13.363281 C 29.820312 12.832031 28.183594 12.574219 26.890625 12.71875 M 29.320312 12.894531 C 32.90625 13.636719 34.582031 16.253906 32.941406 18.550781 C 32.574219 19.058594 32.914062 18.796875 26.769531 23.222656 C 24.574219 24.796875 22.542969 26.261719 22.25 26.464844 C 21.960938 26.679688 21.707031 26.847656 21.679688 26.847656 C 21.621094 26.847656 21 26.414062 19.015625 24.96875 C 18.140625 24.332031 17.199219 23.652344 16.929688 23.457031 C 16.652344 23.261719 15.859375 22.683594 15.167969 22.179688 C 12.613281 20.328125 12.164062 20.003906 11.792969 19.738281 C 10.75 18.992188 10.554688 18.804688 10.226562 18.261719 C 9.835938 17.621094 9.628906 16.519531 9.855469 16.269531 C 9.882812 16.234375 10.644531 16 11.914062 15.628906 C 12.136719 15.5625 12.457031 15.460938 12.628906 15.40625 C 12.800781 15.355469 12.957031 15.304688 12.964844 15.304688 C 12.972656 15.304688 13.101562 15.269531 13.25 15.222656 C 13.628906 15.105469 14.875 14.730469 14.894531 14.730469 C 14.90625 14.730469 15.105469 14.671875 15.347656 14.59375 C 15.578125 14.523438 15.78125 14.464844 15.792969 14.464844 C 15.800781 14.464844 15.933594 14.417969 16.078125 14.375 C 16.449219 14.257812 17.703125 13.882812 17.726562 13.882812 C 17.730469 13.882812 17.914062 13.828125 18.128906 13.761719 C 18.335938 13.691406 18.625 13.609375 18.753906 13.574219 L 18.996094 13.503906 L 19.183594 13.59375 C 20.128906 14.046875 21.085938 15.105469 21.292969 15.933594 C 21.367188 16.230469 21.542969 16.335938 21.8125 16.257812 C 21.964844 16.21875 21.96875 16.210938 22.058594 15.921875 C 22.539062 14.4375 24.164062 13.265625 26.3125 12.871094 C 27.128906 12.71875 28.511719 12.726562 29.320312 12.894531 M 13.089844 12.980469 C 13.070312 13.019531 13.03125 13.140625 13.015625 13.246094 L 12.976562 13.4375 L 13.289062 13.578125 C 13.644531 13.734375 13.722656 13.738281 13.753906 13.636719 C 13.765625 13.59375 13.808594 13.476562 13.832031 13.378906 C 13.902344 13.171875 13.886719 13.160156 13.535156 13 C 13.253906 12.878906 13.152344 12.875 13.089844 12.980469 M 13.503906 13.058594 C 13.78125 13.175781 13.78125 13.175781 13.722656 13.425781 C 13.65625 13.679688 13.6875 13.667969 13.363281 13.535156 C 13.054688 13.414062 13.03125 13.363281 13.148438 13.097656 C 13.210938 12.9375 13.21875 12.9375 13.503906 13.058594 M 18.164062 13.167969 C 17.871094 13.253906 17.011719 13.511719 16.261719 13.738281 C 15.507812 13.964844 14.25 14.34375 13.457031 14.574219 C 12.667969 14.820312 11.933594 15.035156 11.824219 15.066406 C 11.714844 15.105469 11.175781 15.265625 10.636719 15.425781 C 9.628906 15.726562 9.519531 15.769531 9.519531 15.820312 C 9.519531 15.882812 9.707031 15.839844 11.039062 15.4375 C 13.175781 14.800781 13.539062 14.691406 14.550781 14.390625 C 15.070312 14.242188 15.605469 14.078125 15.738281 14.039062 C 15.875 13.996094 16.617188 13.773438 17.390625 13.546875 C 18.503906 13.214844 18.789062 13.113281 18.789062 13.066406 C 18.789062 12.984375 18.804688 12.980469 18.164062 13.167969 M 20.003906 13.609375 C 20.164062 13.722656 20.3125 13.816406 20.324219 13.816406 C 20.339844 13.816406 20.214844 13.722656 20.050781 13.609375 C 19.890625 13.496094 19.75 13.40625 19.730469 13.40625 C 19.71875 13.40625 19.84375 13.496094 20.003906 13.609375 M 32.171875 13.59375 C 32.269531 13.660156 32.355469 13.710938 32.363281 13.710938 C 32.382812 13.710938 32.3125 13.660156 32.222656 13.59375 C 32.132812 13.53125 32.042969 13.472656 32.035156 13.472656 C 32.011719 13.472656 32.082031 13.53125 32.171875 13.59375 M 23.222656 13.652344 L 23.078125 13.765625 L 23.242188 13.664062 C 23.386719 13.574219 23.425781 13.546875 23.382812 13.546875 C 23.375 13.546875 23.300781 13.59375 23.222656 13.652344 M 11.257812 13.875 C 11.121094 14.066406 11.148438 14.128906 11.386719 14.253906 C 11.613281 14.359375 11.746094 14.277344 11.75 14.027344 C 11.75 13.917969 11.328125 13.789062 11.257812 13.875 M 11.589844 13.996094 C 11.660156 14.054688 11.621094 14.226562 11.53125 14.226562 C 11.320312 14.226562 11.21875 14.054688 11.335938 13.910156 C 11.367188 13.875 11.511719 13.929688 11.589844 13.996094 M 9.453125 14.722656 C 9.402344 14.753906 9.414062 14.828125 9.496094 14.882812 C 9.585938 14.945312 9.71875 14.917969 9.71875 14.835938 C 9.71875 14.734375 9.542969 14.660156 9.453125 14.722656 M 9.078125 15.191406 C 9.078125 15.363281 9.324219 15.496094 9.457031 15.402344 C 9.550781 15.34375 9.53125 15.3125 9.355469 15.242188 C 9.203125 15.175781 9.078125 15.152344 9.078125 15.191406 M 9.359375 15.34375 C 9.371094 15.371094 9.351562 15.375 9.320312 15.371094 C 9.277344 15.363281 9.246094 15.335938 9.226562 15.308594 C 9.21875 15.28125 9.234375 15.269531 9.273438 15.277344 C 9.308594 15.285156 9.351562 15.3125 9.359375 15.34375 M 34.121094 16.769531 C 34.121094 16.890625 34.132812 16.941406 34.136719 16.878906 C 34.160156 16.820312 34.160156 16.722656 34.136719 16.652344 C 34.132812 16.59375 34.121094 16.644531 34.121094 16.769531 M 11.304688 19.941406 C 11.398438 20.007812 11.480469 20.0625 11.496094 20.0625 C 11.507812 20.0625 11.445312 20.007812 11.355469 19.941406 C 11.253906 19.878906 11.175781 19.824219 11.160156 19.824219 C 11.148438 19.824219 11.210938 19.878906 11.304688 19.941406 M 31.949219 20.035156 L 31.703125 20.210938 L 31.960938 20.042969 C 32.207031 19.886719 32.246094 19.859375 32.210938 19.859375 C 32.203125 19.859375 32.082031 19.941406 31.949219 20.035156 M 11.992188 20.449219 C 12.089844 20.515625 12.175781 20.566406 12.1875 20.566406 C 12.203125 20.566406 12.136719 20.515625 12.046875 20.449219 C 11.957031 20.386719 11.863281 20.332031 11.855469 20.332031 C 11.835938 20.332031 11.902344 20.386719 11.992188 20.449219 M 30.910156 20.78125 L 30.613281 20.992188 L 30.917969 20.792969 C 31.09375 20.679688 31.230469 20.585938 31.230469 20.578125 C 31.230469 20.558594 31.183594 20.585938 30.910156 20.78125 M 12.988281 21.160156 C 13.191406 21.304688 13.238281 21.332031 13.238281 21.308594 C 13.238281 21.300781 13.128906 21.226562 13 21.144531 L 12.765625 20.992188 L 12.988281 21.160156 M 29.917969 21.492188 L 29.671875 21.671875 L 29.929688 21.5 C 30.074219 21.410156 30.191406 21.332031 30.191406 21.328125 C 30.191406 21.300781 30.144531 21.332031 29.917969 21.492188 M 13.707031 21.691406 C 13.8125 21.761719 13.914062 21.824219 13.925781 21.824219 C 13.9375 21.824219 13.859375 21.761719 13.757812 21.691406 C 13.652344 21.617188 13.554688 21.550781 13.535156 21.550781 C 13.527344 21.550781 13.601562 21.617188 13.707031 21.691406 M 28.949219 22.191406 L 28.675781 22.382812 L 28.964844 22.199219 C 29.226562 22.027344 29.273438 21.996094 29.234375 21.996094 C 29.226562 21.996094 29.097656 22.085938 28.949219 22.191406 M 14.574219 22.320312 C 14.667969 22.382812 14.753906 22.4375 14.765625 22.4375 C 14.785156 22.4375 14.71875 22.382812 14.625 22.320312 C 14.535156 22.253906 14.441406 22.199219 14.429688 22.199219 C 14.414062 22.199219 14.484375 22.253906 14.574219 22.320312 M 27.882812 22.953125 L 27.734375 23.0625 L 27.898438 22.96875 C 27.984375 22.90625 28.058594 22.859375 28.058594 22.855469 C 28.058594 22.828125 28.019531 22.851562 27.882812 22.953125 M 16.210938 23.503906 C 16.304688 23.570312 16.386719 23.625 16.40625 23.625 C 16.417969 23.625 16.351562 23.570312 16.261719 23.503906 C 16.167969 23.441406 16.082031 23.390625 16.0625 23.390625 C 16.054688 23.390625 16.117188 23.441406 16.210938 23.503906 M 26.996094 23.597656 L 26.746094 23.777344 L 27.007812 23.609375 C 27.148438 23.515625 27.269531 23.441406 27.269531 23.4375 C 27.269531 23.410156 27.21875 23.4375 26.996094 23.597656 M 17.15625 24.1875 C 17.25 24.25 17.328125 24.304688 17.347656 24.304688 C 17.355469 24.304688 17.296875 24.25 17.199219 24.1875 C 17.105469 24.121094 17.023438 24.066406 17.011719 24.066406 C 16.996094 24.066406 17.0625 24.121094 17.15625 24.1875 M 25.925781 24.367188 L 25.753906 24.492188 L 25.9375 24.375 C 26.113281 24.265625 26.148438 24.230469 26.113281 24.230469 C 26.101562 24.230469 26.019531 24.300781 25.925781 24.367188 M 25.132812 24.941406 L 24.960938 25.066406 L 25.148438 24.953125 C 25.320312 24.84375 25.355469 24.8125 25.316406 24.8125 C 25.308594 24.8125 25.222656 24.871094 25.132812 24.941406 M 18.742188 25.339844 C 18.832031 25.40625 18.914062 25.460938 18.9375 25.460938 C 18.945312 25.460938 18.878906 25.40625 18.789062 25.339844 C 18.695312 25.269531 18.613281 25.222656 18.597656 25.222656 C 18.582031 25.222656 18.644531 25.269531 18.742188 25.339844 M 24.113281 25.671875 L 23.867188 25.851562 L 24.132812 25.679688 C 24.269531 25.585938 24.390625 25.507812 24.390625 25.5 C 24.390625 25.476562 24.34375 25.503906 24.113281 25.671875 M 23.175781 26.351562 L 23.027344 26.457031 L 23.1875 26.359375 C 23.339844 26.265625 23.371094 26.242188 23.332031 26.242188 C 23.328125 26.242188 23.253906 26.292969 23.175781 26.351562 M 20.277344 26.457031 C 20.367188 26.53125 20.453125 26.578125 20.472656 26.578125 C 20.484375 26.578125 20.417969 26.53125 20.328125 26.457031 C 20.234375 26.394531 20.148438 26.339844 20.132812 26.339844 C 20.117188 26.339844 20.183594 26.394531 20.277344 26.457031 M 22.285156 26.996094 L 22.035156 27.171875 L 22.296875 27 C 22.441406 26.90625 22.554688 26.832031 22.554688 26.828125 C 22.554688 26.800781 22.511719 26.828125 22.285156 26.996094 M 21.265625 27.167969 C 21.472656 27.3125 21.515625 27.339844 21.515625 27.3125 C 21.515625 27.308594 21.40625 27.234375 21.277344 27.15625 L 21.046875 27 L 21.265625 27.167969 "/>
<path style=" stroke:none;fill-rule:evenodd;fill:rgb(98.431373%,98.431373%,98.431373%);fill-opacity:1;" d="M 18.996094 5.597656 C 18.199219 5.625 17.871094 5.652344 17.078125 5.757812 C 16.542969 5.824219 15.359375 6.027344 14.992188 6.105469 C 14.621094 6.1875 13.738281 6.410156 13.605469 6.449219 C 10.871094 7.3125 9.351562 8.066406 7.390625 9.546875 C 7.269531 9.636719 7.023438 9.847656 6.835938 10.023438 C 6.648438 10.199219 6.460938 10.367188 6.417969 10.40625 C 6.351562 10.464844 6.113281 10.71875 5.785156 11.085938 C 5.753906 11.121094 5.6875 11.1875 5.648438 11.234375 C 5.507812 11.386719 5.242188 11.71875 5.070312 11.96875 C 4.976562 12.097656 4.886719 12.226562 4.867188 12.253906 C 4.816406 12.308594 4.589844 12.691406 4.441406 12.964844 C 3.152344 15.277344 3.070312 18.3125 4.222656 20.503906 C 4.300781 20.660156 4.386719 20.832031 4.398438 20.882812 C 4.414062 20.941406 4.445312 20.984375 4.46875 20.996094 C 4.492188 21.003906 4.511719 21.039062 4.511719 21.066406 C 4.511719 21.09375 4.566406 21.203125 4.636719 21.304688 C 4.703125 21.402344 4.757812 21.496094 4.757812 21.507812 C 4.757812 21.53125 5.378906 22.378906 5.496094 22.507812 C 5.554688 22.570312 5.613281 22.644531 5.632812 22.671875 C 6.066406 23.3125 8.003906 24.9375 9.078125 25.542969 C 9.703125 25.910156 10.878906 26.507812 11.078125 26.578125 C 11.160156 26.605469 11.296875 26.660156 11.378906 26.691406 C 11.460938 26.738281 11.570312 26.78125 11.625 26.800781 C 11.683594 26.816406 11.847656 26.886719 11.992188 26.945312 C 12.316406 27.066406 12.785156 27.226562 13.066406 27.308594 C 13.171875 27.339844 13.421875 27.414062 13.605469 27.480469 C 13.921875 27.574219 15.484375 27.933594 15.914062 28.003906 C 16.011719 28.019531 16.222656 28.054688 16.386719 28.085938 C 16.546875 28.113281 16.828125 28.152344 17.003906 28.171875 C 17.179688 28.1875 17.550781 28.230469 17.820312 28.265625 C 18.734375 28.375 21.617188 28.347656 22.632812 28.222656 L 23.425781 28.121094 L 58.351562 28.109375 C 90.765625 28.089844 93.289062 28.085938 93.503906 28.03125 C 94.28125 27.84375 94.726562 27.472656 94.832031 26.929688 C 94.941406 26.421875 94.882812 6.984375 94.78125 6.769531 C 94.585938 6.394531 94.089844 6.054688 93.519531 5.914062 C 93.285156 5.859375 91.542969 5.851562 58.324219 5.835938 C 32.761719 5.824219 23.296875 5.804688 23.097656 5.777344 C 22.179688 5.644531 21.960938 5.636719 20.230469 5.589844 C 19.996094 5.582031 19.441406 5.589844 18.996094 5.597656 M 92.796875 6.253906 C 93.324219 6.402344 93.664062 6.621094 93.910156 6.957031 L 94.066406 7.171875 L 94.082031 16.90625 C 94.089844 25.65625 94.085938 26.640625 94.011719 26.8125 C 93.828125 27.257812 93.351562 27.570312 92.65625 27.710938 C 92.382812 27.765625 26.09375 27.800781 25.792969 27.742188 C 25.613281 27.710938 25.65625 27.679688 26.015625 27.59375 C 29.96875 26.648438 34.121094 23.855469 35.488281 21.214844 C 35.542969 21.109375 35.675781 20.855469 35.785156 20.652344 C 35.988281 20.265625 36.363281 19.300781 36.441406 18.972656 C 36.953125 16.765625 36.671875 14.851562 35.535156 12.792969 C 34.75 11.375 33.0625 9.679688 31.410156 8.652344 C 29.855469 7.675781 27.832031 6.796875 26.207031 6.386719 C 25.746094 6.265625 25.683594 6.242188 25.804688 6.210938 C 26.042969 6.144531 92.5625 6.191406 92.796875 6.253906 M 11.082031 8.46875 C 11.28125 8.554688 11.402344 8.71875 11.402344 8.90625 C 11.402344 9.097656 11.226562 8.988281 13.035156 9.949219 C 13.808594 10.355469 14.480469 10.691406 14.515625 10.6875 C 14.566406 10.675781 14.628906 10.59375 14.683594 10.457031 C 14.796875 10.160156 14.796875 10.105469 14.667969 9.945312 C 14.3125 9.480469 15.15625 9.054688 15.738281 9.402344 C 15.960938 9.539062 16.007812 9.691406 15.886719 9.929688 C 15.816406 10.070312 15.8125 10.117188 15.859375 10.183594 C 15.953125 10.292969 16.027344 10.25 16.128906 10.003906 L 16.222656 9.78125 L 16.09375 9.660156 C 15.925781 9.507812 15.90625 9.222656 16.0625 9.042969 C 16.566406 8.472656 17.851562 8.941406 17.453125 9.5625 C 17.3125 9.78125 17.300781 9.738281 17.75 10.414062 C 17.832031 10.527344 17.894531 10.636719 17.894531 10.644531 C 17.894531 10.648438 17.953125 10.734375 18.015625 10.835938 C 18.082031 10.9375 18.292969 11.265625 18.488281 11.574219 C 18.6875 11.878906 18.894531 12.207031 18.949219 12.285156 C 19.351562 12.894531 19.480469 13.109375 19.480469 13.140625 C 19.480469 13.164062 19.710938 13.335938 19.992188 13.519531 C 20.730469 14.023438 21.113281 14.386719 21.492188 14.957031 C 21.65625 15.21875 21.707031 15.21875 21.832031 15.011719 C 23.386719 12.425781 28.261719 11.503906 31.574219 13.167969 C 34.699219 14.75 35.09375 17.84375 32.417969 19.777344 C 32.273438 19.886719 31.234375 20.628906 30.117188 21.4375 C 28.996094 22.238281 27.894531 23.03125 27.664062 23.203125 C 27.429688 23.367188 27.007812 23.675781 26.71875 23.878906 C 26.429688 24.085938 25.984375 24.40625 25.730469 24.589844 C 25.472656 24.78125 25.015625 25.105469 24.71875 25.320312 C 23.828125 25.957031 23.265625 26.363281 22.578125 26.863281 C 21.707031 27.5 21.636719 27.519531 21.242188 27.21875 C 21.140625 27.132812 20.699219 26.8125 20.277344 26.507812 C 19.851562 26.203125 18.925781 25.53125 18.21875 25.019531 C 17.515625 24.507812 16.746094 23.945312 16.515625 23.777344 C 16.277344 23.609375 15.375 22.949219 14.5 22.320312 C 13.628906 21.6875 12.335938 20.746094 11.625 20.230469 C 10.289062 19.265625 10.140625 19.140625 9.871094 18.78125 C 9.378906 18.109375 9.175781 17.511719 9.175781 16.753906 L 9.171875 16.28125 L 8.953125 15.953125 C 8.839844 15.78125 8.679688 15.542969 8.617188 15.425781 C 8.449219 15.164062 7.554688 13.773438 7.4375 13.59375 C 7.394531 13.519531 7.265625 13.324219 7.164062 13.160156 C 7.007812 12.917969 6.949219 12.863281 6.847656 12.839844 C 6.265625 12.75 5.972656 12.382812 6.214844 12.039062 C 6.542969 11.585938 7.597656 11.6875 7.714844 12.1875 C 7.746094 12.324219 8.15625 12.523438 8.398438 12.523438 C 8.550781 12.523438 8.386719 12.328125 8.191406 12.285156 C 7.347656 12.097656 7.625 11.238281 8.484375 11.375 C 8.738281 11.40625 8.949219 11.542969 9.03125 11.71875 C 9.089844 11.839844 9.140625 11.871094 9.453125 11.988281 C 9.9375 12.164062 9.921875 12.1875 10.011719 11.410156 C 10.160156 10.21875 10.210938 9.808594 10.238281 9.632812 C 10.269531 9.457031 10.261719 9.429688 10.152344 9.359375 C 9.375 8.867188 10.199219 8.074219 11.082031 8.46875 "/>
<path style=" stroke:none;fill-rule:evenodd;fill:rgb(2.352941%,3.137255%,2.352941%);fill-opacity:1;" d="M 10.273438 8.488281 C 9.859375 8.65625 9.789062 9.027344 10.140625 9.265625 L 10.328125 9.398438 L 10.296875 9.75 C 10.28125 9.9375 10.234375 10.355469 10.1875 10.675781 C 10.144531 10.992188 10.085938 11.441406 10.0625 11.675781 C 10.003906 12.226562 9.992188 12.234375 9.511719 12.070312 C 9.066406 11.914062 9.023438 11.886719 8.925781 11.703125 C 8.730469 11.351562 8.039062 11.300781 7.808594 11.628906 C 7.636719 11.871094 7.832031 12.144531 8.242188 12.234375 C 8.402344 12.273438 8.566406 12.441406 8.570312 12.566406 C 8.582031 12.75 7.738281 12.441406 7.652344 12.234375 C 7.53125 11.941406 7.304688 11.816406 6.902344 11.816406 C 6.074219 11.816406 5.960938 12.601562 6.769531 12.769531 C 7.074219 12.832031 6.910156 12.613281 8.105469 14.492188 C 8.3125 14.820312 8.539062 15.167969 8.601562 15.269531 C 8.671875 15.367188 8.726562 15.453125 8.726562 15.460938 C 8.726562 15.472656 8.839844 15.652344 8.976562 15.863281 L 9.230469 16.246094 L 9.222656 16.609375 C 9.199219 17.8125 9.757812 18.804688 10.949219 19.65625 C 11.238281 19.875 11.640625 20.164062 11.847656 20.320312 C 12.050781 20.46875 12.453125 20.753906 12.746094 20.960938 C 13.300781 21.363281 16.929688 23.992188 17.671875 24.542969 C 18.582031 25.207031 21.257812 27.140625 21.429688 27.257812 C 21.675781 27.410156 21.734375 27.382812 22.488281 26.847656 C 22.8125 26.613281 23.671875 26 24.394531 25.472656 C 28.03125 22.851562 30.796875 20.859375 31.640625 20.257812 C 33.597656 18.855469 34.085938 18.152344 34.082031 16.722656 C 34.066406 13.203125 28.535156 11.195312 24.191406 13.132812 C 23.203125 13.574219 22.179688 14.464844 21.796875 15.21875 C 21.730469 15.34375 21.589844 15.277344 21.464844 15.0625 C 21.15625 14.53125 20.679688 14.066406 19.953125 13.582031 C 19.503906 13.277344 19.453125 13.230469 19.28125 12.953125 C 19.109375 12.664062 18.992188 12.484375 18.710938 12.054688 C 18.640625 11.957031 18.589844 11.871094 18.589844 11.863281 C 18.589844 11.855469 18.511719 11.742188 18.417969 11.601562 C 18.332031 11.464844 18.117188 11.132812 17.941406 10.859375 C 17.777344 10.589844 17.574219 10.28125 17.503906 10.164062 C 17.230469 9.765625 17.226562 9.730469 17.34375 9.597656 C 17.636719 9.269531 17.304688 8.859375 16.742188 8.859375 C 16.164062 8.859375 15.835938 9.25 16.132812 9.589844 C 16.296875 9.773438 16.261719 10.117188 16.046875 10.34375 C 15.90625 10.492188 15.667969 10.128906 15.785156 9.957031 C 16 9.648438 15.738281 9.335938 15.28125 9.335938 C 14.785156 9.335938 14.5 9.683594 14.773438 9.960938 C 14.960938 10.15625 14.683594 10.882812 14.464844 10.769531 C 14.429688 10.753906 13.800781 10.421875 13.066406 10.027344 C 12.324219 9.636719 11.640625 9.273438 11.539062 9.222656 C 11.378906 9.136719 11.355469 9.105469 11.355469 8.984375 C 11.355469 8.5625 10.757812 8.285156 10.273438 8.488281 M 10.824219 8.828125 C 10.984375 8.984375 10.667969 9.175781 10.464844 9.042969 C 10.347656 8.976562 10.339844 8.917969 10.414062 8.824219 C 10.488281 8.730469 10.726562 8.734375 10.824219 8.828125 M 16.929688 9.234375 C 17.121094 9.382812 16.84375 9.59375 16.613281 9.484375 C 16.496094 9.425781 16.46875 9.269531 16.570312 9.203125 C 16.660156 9.144531 16.828125 9.15625 16.929688 9.234375 M 11.8125 9.765625 C 14.179688 11.019531 15.628906 11.789062 15.6875 11.800781 C 15.890625 11.855469 15.988281 11.730469 16.238281 11.117188 C 16.800781 9.691406 16.738281 9.742188 17.175781 10.441406 C 17.332031 10.679688 17.5 10.9375 17.550781 11.015625 C 18.289062 12.144531 18.28125 12.128906 17.804688 11.9375 C 17.28125 11.71875 17.1875 11.742188 17.074219 12.101562 C 16.945312 12.542969 16.960938 12.597656 17.285156 12.75 C 17.597656 12.894531 17.652344 12.957031 17.515625 12.984375 C 17.46875 13 17.183594 13.085938 16.890625 13.175781 C 16.289062 13.363281 16.242188 13.363281 16.277344 13.160156 C 16.292969 13.078125 16.320312 12.917969 16.339844 12.789062 L 16.367188 12.566406 L 15.839844 12.324219 C 15.027344 11.953125 14.996094 11.972656 14.796875 12.894531 C 14.75 13.066406 14.808594 13.113281 15.28125 13.324219 C 15.570312 13.453125 15.710938 13.582031 15.566406 13.582031 C 15.546875 13.582031 15.363281 13.632812 15.160156 13.691406 C 14.152344 14.011719 14.136719 14.003906 14.300781 13.472656 C 14.460938 12.992188 14.460938 12.992188 13.640625 12.652344 C 12.753906 12.285156 12.765625 12.28125 12.566406 13.046875 L 12.433594 13.554688 L 12.601562 13.660156 C 12.691406 13.710938 12.945312 13.839844 13.164062 13.933594 C 13.378906 14.023438 13.558594 14.121094 13.554688 14.136719 C 13.554688 14.171875 12.488281 14.507812 12.261719 14.550781 L 12.132812 14.570312 L 12.160156 14.386719 C 12.183594 14.289062 12.210938 14.109375 12.226562 14 L 12.257812 13.792969 L 11.71875 13.5625 C 10.9375 13.234375 10.910156 13.246094 10.757812 13.796875 C 10.609375 14.308594 10.609375 14.308594 11.078125 14.515625 C 11.636719 14.769531 11.644531 14.75 10.808594 15.003906 C 10.144531 15.199219 10.117188 15.195312 10.203125 14.886719 C 10.28125 14.605469 10.265625 14.59375 9.847656 14.410156 C 9.234375 14.140625 9.140625 14.152344 9 14.550781 C 8.875 14.882812 8.84375 14.882812 8.613281 14.507812 C 8.511719 14.335938 8.382812 14.144531 8.332031 14.066406 C 8.148438 13.800781 7.484375 12.738281 7.484375 12.71875 C 7.484375 12.660156 7.710938 12.722656 8.617188 13.042969 C 10.378906 13.667969 10.265625 13.671875 10.359375 12.933594 C 10.390625 12.699219 10.433594 12.339844 10.460938 12.132812 C 10.492188 11.925781 10.542969 11.480469 10.582031 11.136719 C 10.628906 10.789062 10.679688 10.367188 10.710938 10.195312 C 10.734375 10.023438 10.757812 9.8125 10.757812 9.730469 C 10.757812 9.269531 10.898438 9.273438 11.8125 9.765625 M 15.363281 9.71875 C 15.386719 9.820312 15.28125 9.867188 15.1875 9.800781 C 15.121094 9.757812 15.117188 9.738281 15.167969 9.691406 C 15.25 9.625 15.335938 9.636719 15.363281 9.71875 M 54.84375 10.351562 C 54.105469 10.550781 54.253906 10.882812 55.28125 11.316406 C 56.109375 11.660156 56.257812 12.074219 55.871094 12.953125 C 55.46875 13.847656 54.992188 14.730469 53.753906 16.851562 C 52.867188 18.375 52 19.316406 51.480469 19.316406 C 51.089844 19.316406 50.878906 19.058594 50.335938 17.914062 C 49.953125 17.09375 49.625 16.476562 49.214844 15.746094 C 49.144531 15.632812 48.964844 15.304688 48.816406 15.035156 C 48.664062 14.769531 48.386719 14.277344 48.191406 13.949219 C 47.042969 11.949219 47.042969 11.609375 48.234375 11.226562 C 48.8125 11.039062 48.914062 10.945312 48.777344 10.703125 C 48.578125 10.335938 47.859375 10.242188 46.6875 10.4375 C 45.996094 10.546875 45.535156 10.546875 44.84375 10.441406 C 43.957031 10.289062 43.515625 10.332031 43.167969 10.574219 C 42.726562 10.902344 42.875 11.277344 43.515625 11.453125 C 43.699219 11.503906 43.9375 11.570312 44.042969 11.609375 C 44.722656 11.792969 45.066406 12.25 46.277344 14.5625 C 46.664062 15.304688 46.773438 15.507812 47.039062 16.007812 C 47.144531 16.203125 47.332031 16.554688 47.441406 16.769531 C 47.792969 17.425781 48.273438 18.277344 48.78125 19.128906 C 49.300781 19.996094 49.492188 20.382812 49.847656 21.253906 C 50.378906 22.558594 50.457031 22.707031 50.746094 22.878906 C 51.128906 23.105469 51.675781 22.921875 51.941406 22.460938 C 52.035156 22.296875 52.105469 22.171875 52.421875 21.558594 C 52.90625 20.628906 54.066406 18.488281 54.585938 17.578125 C 55.058594 16.742188 55.519531 15.949219 55.875 15.363281 C 56.042969 15.078125 56.238281 14.746094 56.320312 14.613281 C 56.394531 14.484375 56.617188 14.128906 56.8125 13.832031 C 57.011719 13.535156 57.316406 13.042969 57.507812 12.742188 C 58.035156 11.878906 58.113281 11.820312 58.996094 11.535156 C 59.90625 11.238281 60.109375 11.140625 60.160156 10.945312 C 60.289062 10.488281 59.824219 10.304688 58.839844 10.421875 C 57.9375 10.53125 57.390625 10.546875 56.8125 10.457031 C 55.8125 10.300781 55.6875 10.285156 55.398438 10.285156 C 55.226562 10.285156 54.992188 10.3125 54.84375 10.351562 M 73.210938 10.324219 C 72.949219 10.371094 72.726562 10.550781 72.726562 10.722656 C 72.726562 10.878906 72.832031 10.949219 73.378906 11.175781 C 74.320312 11.574219 74.546875 11.945312 74.609375 13.21875 C 74.777344 16.476562 74.777344 16.609375 74.6875 18.636719 C 74.574219 21.171875 74.621094 21.074219 73.371094 21.640625 C 72.480469 22.042969 72.300781 22.222656 72.59375 22.417969 C 72.773438 22.539062 72.996094 22.554688 73.855469 22.488281 C 74.984375 22.398438 76.46875 22.382812 77.238281 22.449219 C 79.148438 22.617188 79.464844 22.585938 79.464844 22.25 C 79.464844 21.976562 79.316406 21.882812 78.300781 21.523438 C 77.359375 21.1875 77.0625 20.980469 76.941406 20.566406 C 76.800781 20.054688 76.726562 15.921875 76.832031 14.289062 C 76.867188 13.78125 76.914062 12.960938 76.933594 12.480469 C 76.984375 11.425781 77.011719 11.375 77.6875 11.246094 C 79.902344 10.851562 82.441406 12.175781 82.441406 13.734375 C 82.441406 15.238281 81.460938 16.25 79.574219 16.695312 C 78.519531 16.941406 78.308594 17.035156 78.433594 17.21875 C 78.640625 17.535156 80.203125 17.46875 81.328125 17.085938 C 83.515625 16.339844 84.683594 15.078125 84.695312 13.441406 C 84.703125 12.253906 84.132812 11.527344 82.746094 10.949219 C 81.59375 10.472656 80.5 10.367188 77.773438 10.46875 C 76.269531 10.519531 75.628906 10.503906 74.964844 10.402344 C 74.378906 10.3125 73.507812 10.273438 73.210938 10.324219 M 15.558594 10.609375 C 15.765625 10.90625 15.792969 11.015625 15.695312 11.175781 C 15.601562 11.34375 15.542969 11.335938 15.246094 11.152344 L 14.996094 11.007812 L 15.054688 10.878906 C 15.085938 10.800781 15.148438 10.652344 15.199219 10.546875 C 15.296875 10.304688 15.347656 10.3125 15.558594 10.609375 M 63.171875 10.425781 C 62.53125 10.550781 62.710938 10.929688 63.558594 11.238281 C 64.832031 11.703125 64.789062 11.539062 64.789062 16.171875 C 64.792969 21.125 64.785156 21.167969 63.554688 21.589844 C 62.886719 21.820312 62.648438 22 62.714844 22.230469 C 62.804688 22.507812 63.054688 22.535156 64.222656 22.4375 C 65.664062 22.324219 65.628906 22.324219 66.730469 22.417969 C 68.355469 22.558594 68.574219 22.527344 68.707031 22.125 C 68.8125 21.847656 68.652344 21.675781 68.125 21.5 C 67.378906 21.25 67.085938 20.960938 66.894531 20.300781 C 66.792969 19.921875 66.792969 12.550781 66.894531 12.316406 C 67.132812 11.792969 67.554688 11.480469 68.277344 11.320312 C 68.863281 11.183594 68.980469 11.09375 68.945312 10.800781 C 68.894531 10.367188 68.683594 10.332031 67.074219 10.441406 C 66.167969 10.496094 65.691406 10.496094 64.816406 10.441406 C 64.042969 10.378906 63.410156 10.375 63.171875 10.425781 M 8.429688 11.765625 C 8.472656 11.800781 8.472656 11.824219 8.433594 11.859375 C 8.359375 11.921875 8.230469 11.894531 8.230469 11.816406 C 8.230469 11.703125 8.324219 11.679688 8.429688 11.765625 M 7.15625 12.234375 C 7.242188 12.316406 7.117188 12.457031 6.949219 12.457031 C 6.769531 12.457031 6.691406 12.398438 6.691406 12.269531 C 6.691406 12.078125 6.996094 12.054688 7.15625 12.234375 M 9.445312 12.394531 C 9.910156 12.554688 9.9375 12.578125 9.882812 12.847656 C 9.832031 13.183594 9.429688 13.066406 9.144531 12.640625 C 8.859375 12.210938 8.871094 12.207031 9.445312 12.394531 M 17.789062 12.382812 C 17.808594 12.476562 17.667969 12.519531 17.5625 12.449219 C 17.460938 12.371094 17.519531 12.28125 17.660156 12.296875 C 17.730469 12.300781 17.785156 12.332031 17.789062 12.382812 M 18.492188 12.492188 C 18.566406 12.621094 18.511719 12.703125 18.347656 12.722656 C 18.230469 12.738281 18.207031 12.628906 18.292969 12.476562 C 18.359375 12.363281 18.414062 12.363281 18.492188 12.492188 M 15.703125 12.660156 C 15.875 12.730469 15.90625 12.816406 15.8125 12.984375 C 15.726562 13.140625 15.316406 13.019531 15.320312 12.835938 C 15.324219 12.589844 15.417969 12.542969 15.703125 12.660156 M 29.398438 12.847656 C 33.175781 13.617188 34.863281 16.671875 32.75 18.902344 C 32.460938 19.210938 30.421875 20.71875 26.847656 23.25 C 26.515625 23.484375 25.398438 24.289062 24.363281 25.03125 C 21.738281 26.925781 21.753906 26.917969 21.664062 26.917969 C 21.628906 26.917969 21.132812 26.582031 20.570312 26.179688 C 20.015625 25.777344 19.109375 25.121094 18.566406 24.730469 C 18.015625 24.335938 17.046875 23.632812 16.410156 23.171875 C 15.769531 22.703125 14.820312 22.015625 14.300781 21.640625 C 10.429688 18.839844 10.699219 19.054688 10.339844 18.566406 C 9.871094 17.941406 9.625 17.1875 9.683594 16.582031 C 9.71875 16.226562 9.738281 16.203125 10.238281 16.0625 C 10.425781 16.011719 11.253906 15.757812 12.070312 15.511719 C 14.300781 14.835938 15.875 14.363281 16.484375 14.183594 C 16.785156 14.097656 17.4375 13.902344 17.9375 13.753906 C 19.027344 13.425781 19.023438 13.425781 19.433594 13.660156 C 20.367188 14.179688 21.109375 15.035156 21.371094 15.878906 C 21.5 16.308594 21.828125 16.359375 21.953125 15.96875 C 22.707031 13.605469 26.105469 12.175781 29.398438 12.847656 M 13.535156 13 C 13.886719 13.160156 13.902344 13.171875 13.832031 13.378906 C 13.808594 13.476562 13.765625 13.59375 13.753906 13.636719 C 13.722656 13.738281 13.644531 13.734375 13.289062 13.578125 L 12.976562 13.4375 L 13.015625 13.246094 C 13.085938 12.867188 13.152344 12.832031 13.535156 13 M 18.789062 13.066406 C 18.789062 13.113281 18.503906 13.214844 17.390625 13.546875 C 16.617188 13.773438 15.875 13.996094 15.738281 14.039062 C 15.605469 14.078125 15.070312 14.242188 14.550781 14.390625 C 13.539062 14.691406 13.175781 14.800781 11.039062 15.4375 C 9.707031 15.839844 9.519531 15.882812 9.519531 15.820312 C 9.519531 15.769531 9.628906 15.726562 10.636719 15.425781 C 11.175781 15.265625 11.714844 15.105469 11.824219 15.066406 C 11.933594 15.035156 12.667969 14.820312 13.457031 14.574219 C 14.25 14.34375 15.507812 13.964844 16.261719 13.738281 C 19.046875 12.902344 18.789062 12.96875 18.789062 13.066406 M 11.5625 13.902344 C 11.769531 13.996094 11.773438 14.007812 11.699219 14.203125 C 11.636719 14.34375 11.59375 14.351562 11.386719 14.253906 C 11.148438 14.128906 11.121094 14.066406 11.257812 13.875 C 11.320312 13.796875 11.34375 13.800781 11.5625 13.902344 M 9.65625 14.738281 C 9.738281 14.796875 9.734375 14.890625 9.640625 14.914062 C 9.558594 14.929688 9.421875 14.855469 9.421875 14.78125 C 9.421875 14.695312 9.554688 14.671875 9.65625 14.738281 M 9.355469 15.242188 C 9.53125 15.3125 9.550781 15.34375 9.457031 15.402344 C 9.351562 15.480469 9.21875 15.453125 9.140625 15.328125 C 9.03125 15.140625 9.078125 15.128906 9.355469 15.242188 M 1.253906 16.648438 C 1.253906 16.832031 1.269531 16.910156 1.277344 16.804688 C 1.289062 16.710938 1.289062 16.558594 1.277344 16.472656 C 1.269531 16.382812 1.253906 16.464844 1.253906 16.648438 "/>
<path style=" stroke:none;fill-rule:evenodd;fill:rgb(48.235294%,85.882353%,32.54902%);fill-opacity:1;" d="M 18.464844 5.5625 C 17.871094 5.597656 17.316406 5.667969 16.410156 5.800781 C 15.886719 5.882812 14.84375 6.085938 14.476562 6.179688 C 14.242188 6.238281 13.996094 6.296875 13.933594 6.308594 C 12.84375 6.546875 10.796875 7.378906 9.429688 8.148438 C 8.234375 8.824219 6.273438 10.285156 6.429688 10.382812 C 6.445312 10.394531 6.464844 10.390625 6.476562 10.367188 C 6.511719 10.3125 7.171875 9.710938 7.390625 9.546875 C 9.351562 8.066406 10.871094 7.3125 13.605469 6.449219 C 13.738281 6.410156 14.621094 6.1875 14.992188 6.105469 C 15.601562 5.976562 16.945312 5.765625 17.820312 5.671875 C 19.148438 5.527344 21.675781 5.582031 23.097656 5.777344 C 23.296875 5.804688 32.75 5.824219 58.324219 5.835938 C 91.542969 5.851562 93.285156 5.859375 93.519531 5.914062 C 94.089844 6.054688 94.585938 6.394531 94.78125 6.769531 C 94.882812 6.984375 94.941406 26.421875 94.832031 26.929688 C 94.726562 27.472656 94.28125 27.84375 93.503906 28.03125 C 93.289062 28.085938 90.765625 28.089844 58.351562 28.109375 L 23.425781 28.121094 L 22.632812 28.222656 C 21.855469 28.320312 21.804688 28.320312 20.007812 28.320312 C 19 28.324219 18.261719 28.335938 18.371094 28.347656 C 18.476562 28.363281 19.210938 28.375 20.003906 28.375 C 21.425781 28.375 21.527344 28.375 23.144531 28.226562 C 23.585938 28.1875 29.316406 28.179688 58.332031 28.175781 C 77.394531 28.175781 93.097656 28.164062 93.234375 28.152344 C 94.003906 28.085938 94.671875 27.675781 94.910156 27.128906 C 95 26.921875 95.019531 7.0625 94.933594 6.863281 C 94.726562 6.402344 94.335938 6.085938 93.742188 5.890625 L 93.421875 5.789062 L 58.351562 5.773438 L 23.273438 5.753906 L 22.632812 5.65625 C 21.929688 5.558594 19.53125 5.503906 18.464844 5.5625 M 25.804688 6.210938 C 25.683594 6.242188 25.746094 6.265625 26.207031 6.386719 C 30.976562 7.597656 34.960938 10.730469 36.207031 14.265625 C 36.769531 15.867188 36.839844 17.261719 36.441406 18.972656 C 36.363281 19.300781 35.988281 20.265625 35.785156 20.652344 C 35.675781 20.855469 35.542969 21.109375 35.488281 21.214844 C 34.121094 23.855469 29.96875 26.648438 26.015625 27.59375 C 25.65625 27.679688 25.613281 27.710938 25.792969 27.742188 C 26.09375 27.800781 92.382812 27.765625 92.65625 27.710938 C 93.351562 27.570312 93.828125 27.257812 94.011719 26.8125 C 94.085938 26.640625 94.089844 25.65625 94.082031 16.90625 L 94.066406 7.171875 L 93.910156 6.957031 C 93.664062 6.621094 93.324219 6.402344 92.796875 6.253906 C 92.5625 6.191406 26.042969 6.144531 25.804688 6.210938 M 92.769531 6.347656 C 93.351562 6.484375 93.773438 6.808594 93.917969 7.21875 C 94.023438 7.527344 94.023438 26.453125 93.917969 26.738281 C 93.738281 27.222656 93.214844 27.546875 92.457031 27.660156 C 92.152344 27.703125 25.878906 27.71875 25.953125 27.671875 C 25.980469 27.660156 26.125 27.617188 26.273438 27.582031 C 29.945312 26.746094 34.292969 23.785156 35.582031 21.261719 C 35.644531 21.15625 35.773438 20.914062 35.875 20.722656 C 36.296875 19.933594 36.597656 18.992188 36.738281 18.007812 C 36.800781 17.535156 36.773438 15.8125 36.691406 15.511719 C 36.667969 15.414062 36.605469 15.167969 36.558594 14.984375 C 36.515625 14.800781 36.457031 14.597656 36.433594 14.542969 C 36.386719 14.4375 36.203125 13.933594 36.140625 13.742188 C 36.117188 13.679688 36.003906 13.453125 35.894531 13.238281 C 35.78125 13.023438 35.652344 12.78125 35.617188 12.710938 C 35.539062 12.554688 34.859375 11.585938 34.71875 11.421875 C 33.339844 9.867188 32.035156 8.804688 30.578125 8.054688 C 30.433594 7.984375 30.105469 7.8125 29.847656 7.675781 C 29.191406 7.347656 28.160156 6.917969 27.5 6.707031 C 26.441406 6.363281 26.265625 6.3125 26.171875 6.3125 C 26.117188 6.3125 26.078125 6.296875 26.078125 6.277344 C 26.078125 6.253906 37.078125 6.246094 59.253906 6.253906 L 92.433594 6.265625 L 92.769531 6.347656 M 10.460938 8.386719 C 9.78125 8.46875 9.605469 9.015625 10.152344 9.359375 C 10.261719 9.429688 10.269531 9.457031 10.238281 9.632812 C 10.210938 9.808594 10.160156 10.21875 10.011719 11.410156 C 9.921875 12.1875 9.9375 12.164062 9.453125 11.988281 C 9.140625 11.871094 9.089844 11.839844 9.03125 11.71875 C 8.949219 11.542969 8.738281 11.40625 8.484375 11.375 C 7.625 11.238281 7.347656 12.097656 8.191406 12.285156 C 8.386719 12.328125 8.550781 12.523438 8.398438 12.523438 C 8.15625 12.523438 7.746094 12.324219 7.714844 12.1875 C 7.597656 11.6875 6.542969 11.585938 6.214844 12.039062 C 5.972656 12.382812 6.265625 12.75 6.847656 12.839844 C 6.949219 12.863281 7.007812 12.917969 7.164062 13.160156 C 7.265625 13.324219 7.394531 13.519531 7.4375 13.59375 C 7.554688 13.773438 8.449219 15.164062 8.617188 15.425781 C 8.679688 15.542969 8.839844 15.78125 8.953125 15.953125 L 9.171875 16.28125 L 9.175781 16.753906 C 9.175781 17.511719 9.378906 18.109375 9.871094 18.78125 C 10.140625 19.140625 10.289062 19.265625 11.625 20.230469 C 12.335938 20.746094 13.628906 21.6875 14.5 22.320312 C 15.375 22.949219 16.277344 23.609375 16.515625 23.777344 C 16.746094 23.945312 17.515625 24.507812 18.21875 25.019531 C 18.925781 25.53125 19.851562 26.203125 20.277344 26.507812 C 20.699219 26.8125 21.140625 27.132812 21.242188 27.21875 C 21.636719 27.519531 21.707031 27.5 22.578125 26.863281 C 23.265625 26.363281 23.828125 25.957031 24.71875 25.320312 C 25.015625 25.105469 25.472656 24.78125 25.730469 24.589844 C 25.984375 24.40625 26.429688 24.085938 26.71875 23.878906 C 27.007812 23.675781 27.429688 23.367188 27.664062 23.203125 C 27.894531 23.03125 28.996094 22.238281 30.117188 21.4375 C 31.234375 20.628906 32.273438 19.886719 32.417969 19.777344 C 35.09375 17.84375 34.699219 14.75 31.574219 13.167969 C 28.261719 11.503906 23.386719 12.425781 21.832031 15.011719 C 21.707031 15.21875 21.65625 15.21875 21.492188 14.957031 C 21.113281 14.386719 20.730469 14.023438 19.992188 13.519531 C 19.710938 13.335938 19.480469 13.164062 19.480469 13.140625 C 19.480469 13.109375 19.351562 12.894531 18.949219 12.285156 C 18.894531 12.207031 18.6875 11.878906 18.488281 11.574219 C 18.292969 11.265625 18.082031 10.9375 18.015625 10.835938 C 17.953125 10.734375 17.894531 10.648438 17.894531 10.644531 C 17.894531 10.636719 17.832031 10.527344 17.75 10.414062 C 17.300781 9.738281 17.3125 9.78125 17.453125 9.5625 C 17.851562 8.941406 16.566406 8.472656 16.0625 9.042969 C 15.90625 9.222656 15.925781 9.507812 16.09375 9.660156 L 16.222656 9.78125 L 16.128906 10.003906 C 16.027344 10.25 15.953125 10.292969 15.859375 10.183594 C 15.8125 10.117188 15.816406 10.070312 15.886719 9.929688 C 16.007812 9.691406 15.960938 9.539062 15.738281 9.402344 C 15.15625 9.054688 14.3125 9.480469 14.667969 9.945312 C 14.796875 10.105469 14.796875 10.160156 14.683594 10.457031 C 14.628906 10.59375 14.566406 10.675781 14.515625 10.6875 C 14.480469 10.691406 13.808594 10.355469 13.035156 9.949219 C 11.226562 8.988281 11.402344 9.097656 11.402344 8.90625 C 11.402344 8.554688 10.976562 8.320312 10.460938 8.386719 M 10.996094 8.488281 C 11.226562 8.582031 11.355469 8.742188 11.355469 8.9375 C 11.355469 9.128906 11.175781 9.015625 13.015625 9.996094 C 14.613281 10.847656 14.585938 10.835938 14.695312 10.578125 C 14.902344 10.085938 14.898438 10.101562 14.773438 9.976562 C 14.46875 9.691406 14.75 9.335938 15.273438 9.335938 C 15.753906 9.335938 16.023438 9.664062 15.792969 9.976562 C 15.726562 10.054688 15.730469 10.082031 15.8125 10.207031 C 15.957031 10.433594 16.042969 10.394531 16.179688 10.058594 C 16.289062 9.796875 16.285156 9.765625 16.136719 9.609375 C 15.730469 9.203125 16.386719 8.671875 17.027344 8.878906 C 17.429688 9.007812 17.570312 9.3125 17.351562 9.605469 L 17.25 9.742188 L 17.46875 10.085938 C 17.589844 10.285156 17.785156 10.574219 17.886719 10.742188 C 17.992188 10.910156 18.242188 11.300781 18.441406 11.613281 C 18.636719 11.917969 18.867188 12.269531 18.949219 12.390625 C 19.09375 12.597656 19.148438 12.695312 19.367188 13.078125 C 19.429688 13.195312 19.546875 13.296875 19.78125 13.441406 C 20.539062 13.902344 21.210938 14.5625 21.570312 15.195312 C 21.644531 15.335938 21.730469 15.296875 21.886719 15.035156 C 23.65625 12.210938 29.089844 11.460938 32.21875 13.613281 C 34.660156 15.289062 34.78125 17.953125 32.5 19.652344 C 32.109375 19.941406 29.398438 21.886719 28.628906 22.4375 C 28.304688 22.667969 27.429688 23.296875 26.691406 23.832031 C 25.957031 24.363281 24.910156 25.113281 24.363281 25.507812 C 23.824219 25.90625 23.03125 26.464844 22.617188 26.773438 C 21.574219 27.523438 21.785156 27.542969 20.496094 26.605469 C 19.953125 26.207031 19.105469 25.59375 18.617188 25.238281 C 18.128906 24.878906 17.199219 24.210938 16.558594 23.746094 C 15.917969 23.28125 14.972656 22.589844 14.449219 22.21875 C 13.933594 21.84375 12.988281 21.160156 12.34375 20.691406 C 11.707031 20.21875 10.984375 19.703125 10.75 19.53125 C 9.753906 18.816406 9.222656 17.824219 9.222656 16.652344 C 9.222656 16.253906 9.21875 16.234375 9.042969 15.992188 C 8.949219 15.847656 8.839844 15.675781 8.800781 15.613281 C 8.742188 15.503906 8.132812 14.550781 7.871094 14.152344 C 7.8125 14.070312 7.703125 13.886719 7.605469 13.742188 C 7.015625 12.804688 7.046875 12.832031 6.847656 12.800781 C 6.300781 12.699219 6.054688 12.382812 6.273438 12.0625 C 6.585938 11.617188 7.464844 11.722656 7.671875 12.238281 C 7.734375 12.386719 8.429688 12.671875 8.535156 12.597656 C 8.644531 12.523438 8.429688 12.296875 8.199219 12.234375 C 7.519531 12.054688 7.617188 11.40625 8.316406 11.40625 C 8.691406 11.40625 8.808594 11.472656 8.984375 11.777344 C 9.042969 11.871094 9.125 11.921875 9.40625 12.027344 C 9.992188 12.238281 9.988281 12.242188 10.066406 11.589844 C 10.089844 11.351562 10.152344 10.890625 10.1875 10.574219 C 10.234375 10.257812 10.277344 9.867188 10.289062 9.710938 L 10.324219 9.421875 L 10.144531 9.292969 C 9.535156 8.839844 10.242188 8.171875 10.996094 8.488281 M 10.515625 8.839844 C 10.414062 8.917969 10.46875 9.011719 10.609375 9.011719 C 10.714844 9.011719 10.730469 8.996094 10.730469 8.914062 C 10.730469 8.796875 10.613281 8.757812 10.515625 8.839844 M 16.609375 9.25 C 16.554688 9.296875 16.554688 9.324219 16.601562 9.386719 C 16.664062 9.484375 16.789062 9.484375 16.871094 9.394531 C 16.984375 9.273438 16.738281 9.144531 16.609375 9.25 M 10.917969 9.476562 C 10.886719 9.5 10.851562 9.578125 10.851562 9.65625 C 10.851562 9.738281 10.824219 10.027344 10.785156 10.316406 C 10.746094 10.605469 10.683594 11.050781 10.652344 11.300781 C 10.628906 11.558594 10.566406 11.96875 10.53125 12.214844 C 10.492188 12.464844 10.460938 12.761719 10.460938 12.878906 C 10.460938 13.328125 10.324219 13.582031 10.078125 13.582031 C 10.011719 13.582031 9.445312 13.402344 8.820312 13.183594 C 8.199219 12.960938 7.671875 12.789062 7.65625 12.804688 C 7.632812 12.820312 7.699219 12.933594 7.921875 13.273438 C 7.976562 13.355469 8.082031 13.523438 8.15625 13.644531 C 8.300781 13.882812 8.367188 13.980469 8.652344 14.410156 L 8.839844 14.683594 L 8.925781 14.464844 C 9.078125 14.089844 9.242188 14.070312 9.847656 14.335938 C 10.3125 14.550781 10.371094 14.617188 10.3125 14.832031 C 10.238281 15.085938 10.273438 15.128906 10.496094 15.035156 C 10.542969 15.015625 10.757812 14.953125 10.96875 14.886719 C 11.4375 14.746094 11.441406 14.734375 11 14.558594 C 10.617188 14.402344 10.542969 14.320312 10.585938 14.125 C 10.808594 13.164062 10.855469 13.136719 11.699219 13.476562 C 12.402344 13.773438 12.417969 13.789062 12.277344 14.253906 C 12.199219 14.507812 12.21875 14.515625 12.527344 14.417969 C 13.566406 14.105469 13.527344 14.152344 12.917969 13.886719 C 12.308594 13.617188 12.316406 13.632812 12.445312 13.164062 C 12.503906 12.953125 12.558594 12.726562 12.578125 12.664062 C 12.671875 12.269531 12.851562 12.257812 13.703125 12.609375 C 14.492188 12.9375 14.503906 12.949219 14.425781 13.316406 C 14.390625 13.46875 14.351562 13.660156 14.339844 13.738281 L 14.316406 13.886719 L 14.605469 13.800781 C 15.617188 13.492188 15.578125 13.53125 15.121094 13.324219 C 14.703125 13.140625 14.652344 13.070312 14.726562 12.78125 C 14.753906 12.671875 14.796875 12.492188 14.820312 12.398438 C 14.882812 12.136719 15.011719 12.015625 15.230469 12.015625 C 15.316406 12.015625 16.300781 12.449219 16.402344 12.519531 C 16.460938 12.574219 16.457031 12.726562 16.378906 13.113281 L 16.347656 13.273438 L 16.539062 13.21875 C 16.644531 13.1875 16.898438 13.113281 17.101562 13.042969 L 17.476562 12.925781 L 17.328125 12.847656 C 16.921875 12.652344 16.890625 12.605469 16.925781 12.363281 C 17.011719 11.761719 17.214844 11.628906 17.730469 11.832031 C 17.851562 11.882812 17.964844 11.914062 17.980469 11.898438 C 18 11.890625 17.425781 10.957031 16.953125 10.242188 C 16.789062 9.992188 16.769531 10.007812 16.535156 10.605469 C 15.9375 12.09375 16.003906 12.054688 15.09375 11.574219 C 14.820312 11.433594 13.898438 10.941406 13.035156 10.488281 C 11 9.410156 11.054688 9.433594 11.011719 9.433594 C 10.992188 9.433594 10.949219 9.453125 10.917969 9.476562 M 6.3125 10.464844 C 6.195312 10.554688 5.746094 11.082031 5.8125 11.03125 C 5.886719 10.976562 6.402344 10.421875 6.371094 10.421875 C 6.363281 10.421875 6.335938 10.441406 6.3125 10.464844 M 15.25 10.613281 C 15.101562 10.949219 15.101562 10.988281 15.25 11.085938 C 15.652344 11.34375 15.800781 11.148438 15.535156 10.71875 C 15.363281 10.433594 15.347656 10.425781 15.25 10.613281 M 5.652344 11.175781 C 5.484375 11.355469 5.394531 11.472656 5.417969 11.472656 C 5.449219 11.472656 5.757812 11.125 5.734375 11.117188 C 5.726562 11.109375 5.691406 11.140625 5.652344 11.175781 M 5.324219 11.550781 C 5.214844 11.65625 5.09375 11.847656 5.121094 11.867188 C 5.140625 11.878906 5.152344 11.871094 5.152344 11.851562 C 5.152344 11.832031 5.210938 11.746094 5.28125 11.671875 C 5.394531 11.550781 5.429688 11.441406 5.324219 11.550781 M 4.863281 12.191406 C 4.804688 12.273438 4.757812 12.339844 4.757812 12.351562 C 4.757812 12.382812 4.882812 12.246094 4.949219 12.144531 C 5.039062 12 4.972656 12.035156 4.863281 12.191406 M 6.820312 12.203125 C 6.757812 12.234375 6.742188 12.265625 6.761719 12.308594 C 6.804688 12.398438 6.929688 12.441406 7.023438 12.386719 C 7.191406 12.285156 7 12.105469 6.820312 12.203125 M 9.105469 12.375 C 9.035156 12.429688 9.386719 12.863281 9.542969 12.917969 C 9.753906 12.992188 9.761719 12.984375 9.796875 12.769531 L 9.832031 12.597656 L 9.609375 12.519531 C 9.28125 12.398438 9.132812 12.363281 9.105469 12.375 M 4.621094 12.566406 C 4.558594 12.660156 4.519531 12.746094 4.527344 12.753906 C 4.539062 12.757812 4.59375 12.6875 4.652344 12.589844 C 4.714844 12.492188 4.75 12.414062 4.742188 12.398438 C 4.734375 12.390625 4.671875 12.464844 4.621094 12.566406 M 15.414062 12.78125 C 15.414062 12.988281 15.683594 13.078125 15.742188 12.894531 C 15.769531 12.804688 15.757812 12.773438 15.667969 12.722656 C 15.488281 12.625 15.414062 12.644531 15.414062 12.78125 M 26.3125 12.871094 C 24.164062 13.265625 22.539062 14.4375 22.058594 15.921875 C 21.96875 16.210938 21.964844 16.21875 21.8125 16.257812 C 21.542969 16.335938 21.367188 16.230469 21.292969 15.933594 C 21.085938 15.105469 20.128906 14.046875 19.183594 13.59375 L 18.996094 13.503906 L 18.753906 13.574219 C 18.625 13.609375 18.335938 13.691406 18.128906 13.761719 C 17.914062 13.828125 17.730469 13.882812 17.726562 13.882812 C 17.703125 13.882812 16.449219 14.257812 16.078125 14.375 C 15.933594 14.417969 15.800781 14.464844 15.792969 14.464844 C 15.78125 14.464844 15.578125 14.523438 15.347656 14.59375 C 15.105469 14.671875 14.90625 14.730469 14.894531 14.730469 C 14.875 14.730469 13.628906 15.105469 13.25 15.222656 C 13.101562 15.269531 12.972656 15.304688 12.964844 15.304688 C 12.957031 15.304688 12.800781 15.355469 12.628906 15.40625 C 12.457031 15.460938 12.136719 15.5625 11.914062 15.628906 C 10.644531 16 9.882812 16.234375 9.855469 16.269531 C 9.628906 16.519531 9.835938 17.621094 10.226562 18.261719 C 10.554688 18.804688 10.75 18.992188 11.792969 19.738281 C 12.164062 20.003906 12.613281 20.328125 15.167969 22.179688 C 15.859375 22.683594 16.652344 23.261719 16.929688 23.457031 C 17.199219 23.652344 18.140625 24.332031 19.015625 24.96875 C 21 26.414062 21.621094 26.847656 21.679688 26.847656 C 21.707031 26.847656 21.960938 26.679688 22.25 26.464844 C 22.542969 26.261719 24.574219 24.796875 26.769531 23.222656 C 32.914062 18.796875 32.574219 19.058594 32.941406 18.550781 C 33.835938 17.296875 33.761719 15.839844 32.746094 14.683594 C 31.449219 13.199219 28.703125 12.425781 26.3125 12.871094 M 13.148438 13.097656 C 13.03125 13.363281 13.054688 13.414062 13.363281 13.535156 C 13.6875 13.667969 13.65625 13.679688 13.722656 13.425781 C 13.78125 13.175781 13.78125 13.175781 13.503906 13.058594 C 13.21875 12.9375 13.210938 12.9375 13.148438 13.097656 M 4.316406 13.089844 C 4.292969 13.136719 4.261719 13.195312 4.261719 13.214844 C 4.261719 13.234375 4.300781 13.203125 4.339844 13.140625 C 4.421875 13.007812 4.40625 12.960938 4.316406 13.089844 M 4.171875 13.382812 C 4.140625 13.445312 4.113281 13.515625 4.117188 13.546875 C 4.117188 13.578125 4.152344 13.53125 4.195312 13.445312 C 4.238281 13.367188 4.261719 13.289062 4.25 13.285156 C 4.238281 13.277344 4.207031 13.324219 4.171875 13.382812 M 11.335938 13.910156 C 11.21875 14.054688 11.320312 14.226562 11.53125 14.226562 C 11.621094 14.226562 11.660156 14.054688 11.589844 13.996094 C 11.511719 13.929688 11.367188 13.875 11.335938 13.910156 M 3.632812 14.851562 C 3.632812 14.929688 3.644531 14.953125 3.65625 14.910156 C 3.664062 14.863281 3.664062 14.804688 3.65625 14.773438 C 3.640625 14.742188 3.632812 14.773438 3.632812 14.851562 M 9.226562 15.308594 C 9.246094 15.335938 9.277344 15.363281 9.320312 15.371094 C 9.351562 15.375 9.371094 15.371094 9.359375 15.34375 C 9.351562 15.3125 9.308594 15.285156 9.273438 15.277344 C 9.234375 15.269531 9.21875 15.28125 9.226562 15.308594 M 3.433594 15.816406 C 3.433594 15.882812 3.441406 15.910156 3.453125 15.878906 C 3.472656 15.84375 3.472656 15.789062 3.453125 15.757812 C 3.441406 15.722656 3.433594 15.75 3.433594 15.816406 M 3.394531 16.921875 C 3.394531 17.367188 3.402344 17.546875 3.40625 17.316406 C 3.417969 17.085938 3.417969 16.722656 3.40625 16.503906 C 3.402344 16.285156 3.394531 16.472656 3.394531 16.921875 M 3.433594 18.007812 C 3.433594 18.082031 3.441406 18.109375 3.453125 18.066406 C 3.472656 18.019531 3.472656 17.960938 3.453125 17.929688 C 3.441406 17.894531 3.433594 17.929688 3.433594 18.007812 M 3.480469 18.332031 C 3.480469 18.394531 3.492188 18.417969 3.503906 18.390625 C 3.515625 18.359375 3.515625 18.304688 3.503906 18.273438 C 3.492188 18.242188 3.480469 18.269531 3.480469 18.332031 M 3.632812 19.027344 C 3.632812 19.101562 3.644531 19.128906 3.65625 19.082031 C 3.664062 19.042969 3.664062 18.980469 3.65625 18.953125 C 3.640625 18.921875 3.632812 18.953125 3.632812 19.027344 M 3.675781 19.230469 C 3.675781 19.265625 3.691406 19.324219 3.71875 19.371094 C 3.773438 19.449219 3.773438 19.367188 3.71875 19.242188 C 3.683594 19.175781 3.675781 19.171875 3.675781 19.230469 M 4.015625 20.15625 C 4.011719 20.214844 4.222656 20.636719 4.25 20.625 C 4.257812 20.617188 4.214844 20.5 4.144531 20.363281 C 4.074219 20.222656 4.015625 20.128906 4.015625 20.15625 M 4.261719 20.667969 C 4.261719 20.679688 4.296875 20.75 4.332031 20.824219 C 4.375 20.898438 4.40625 20.929688 4.40625 20.894531 C 4.40625 20.835938 4.269531 20.617188 4.261719 20.667969 M 4.511719 21.164062 C 4.511719 21.1875 4.566406 21.277344 4.632812 21.371094 C 4.699219 21.464844 4.75 21.523438 4.75 21.5 C 4.75 21.457031 4.519531 21.121094 4.511719 21.164062 M 4.765625 21.574219 C 4.765625 21.589844 4.816406 21.671875 4.882812 21.757812 C 4.949219 21.84375 5 21.894531 5 21.878906 C 5 21.863281 4.949219 21.777344 4.882812 21.691406 C 4.816406 21.605469 4.765625 21.550781 4.765625 21.574219 M 5.117188 22.082031 C 5.179688 22.164062 5.226562 22.222656 5.242188 22.222656 C 5.265625 22.199219 5.066406 21.929688 5.03125 21.929688 C 5.023438 21.929688 5.054688 21.996094 5.117188 22.082031 M 5.253906 22.285156 C 5.253906 22.316406 5.46875 22.539062 5.484375 22.53125 C 5.5 22.523438 5.457031 22.457031 5.398438 22.390625 C 5.300781 22.28125 5.253906 22.242188 5.253906 22.285156 M 5.582031 22.679688 C 5.703125 22.835938 6.382812 23.546875 6.441406 23.570312 C 6.464844 23.582031 6.339844 23.441406 6.148438 23.242188 C 5.960938 23.054688 5.761719 22.828125 5.703125 22.753906 C 5.636719 22.667969 5.566406 22.59375 5.542969 22.585938 C 5.519531 22.570312 5.53125 22.617188 5.582031 22.679688 M 6.59375 23.726562 C 6.652344 23.78125 6.710938 23.832031 6.722656 23.832031 C 6.738281 23.832031 6.699219 23.78125 6.644531 23.726562 C 6.585938 23.675781 6.527344 23.625 6.515625 23.625 C 6.496094 23.625 6.53125 23.675781 6.59375 23.726562 M 6.878906 23.988281 C 7.191406 24.285156 8.027344 24.90625 8.554688 25.257812 C 8.710938 25.355469 8.546875 25.226562 8.183594 24.96875 C 7.820312 24.703125 7.355469 24.347656 7.152344 24.175781 C 6.785156 23.863281 6.609375 23.746094 6.878906 23.988281 M 8.949219 25.492188 C 9.042969 25.5625 9.582031 25.875 9.960938 26.066406 C 10.058594 26.117188 10.277344 26.226562 10.453125 26.324219 C 10.871094 26.539062 11.054688 26.621094 11.085938 26.601562 C 11.097656 26.597656 11.035156 26.558594 10.949219 26.523438 C 10.746094 26.441406 9.375 25.730469 9.222656 25.625 C 9.046875 25.511719 8.867188 25.421875 8.949219 25.492188 M 11.152344 26.625 C 11.152344 26.632812 11.238281 26.667969 11.335938 26.710938 L 11.53125 26.785156 L 11.378906 26.695312 C 11.238281 26.621094 11.152344 26.59375 11.152344 26.625 M 11.550781 26.796875 C 11.550781 26.835938 12.828125 27.292969 12.925781 27.289062 C 12.945312 27.285156 12.835938 27.242188 12.671875 27.191406 C 12.222656 27.035156 11.730469 26.84375 11.675781 26.8125 C 11.628906 26.78125 11.550781 26.773438 11.550781 26.796875 M 13.066406 27.335938 C 13.257812 27.425781 13.988281 27.636719 14.046875 27.617188 C 14.085938 27.605469 14.082031 27.59375 14.035156 27.59375 C 13.984375 27.59375 13.351562 27.410156 13.125 27.324219 C 13 27.277344 12.949219 27.28125 13.066406 27.335938 M 14.128906 27.644531 C 14.128906 27.667969 14.78125 27.800781 14.800781 27.789062 C 14.820312 27.777344 14.222656 27.632812 14.160156 27.632812 C 14.140625 27.632812 14.128906 27.636719 14.128906 27.644531 M 14.996094 27.851562 C 15.230469 27.925781 15.523438 27.976562 15.550781 27.960938 C 15.570312 27.945312 14.960938 27.796875 14.886719 27.800781 C 14.867188 27.800781 14.914062 27.824219 14.996094 27.851562 M 15.617188 27.980469 C 15.660156 28.007812 16.515625 28.144531 16.535156 28.128906 C 16.546875 28.121094 16.453125 28.097656 16.324219 28.078125 C 16.191406 28.054688 16.019531 28.019531 15.933594 28 C 15.785156 27.96875 15.578125 27.957031 15.617188 27.980469 M 16.734375 28.171875 C 16.894531 28.210938 17.46875 28.269531 17.875 28.292969 C 18.421875 28.324219 17.453125 28.203125 16.753906 28.152344 L 16.582031 28.140625 L 16.734375 28.171875 "/>
</g>
</svg>
