<?xml version="1.0" encoding="UTF-8"?>
<svg xmlns="http://www.w3.org/2000/svg" xmlns:xlink="http://www.w3.org/1999/xlink" width="22pt" height="22pt" viewBox="0 0 22 22" version="1.1">
<defs>
<linearGradient id="linear0" gradientUnits="userSpaceOnUse" x1="512.001" y1="0.978" x2="512.001" y2="1025.023" gradientTransform="matrix(0.0212533,0,0,0.0212533,0,0)">
<stop offset="0" style="stop-color:rgb(38.039216%,99.215686%,49.019608%);stop-opacity:1;"/>
<stop offset="1" style="stop-color:rgb(16.862745%,72.156863%,14.901961%);stop-opacity:1;"/>
</linearGradient>
</defs>
<g id="surface1">
<path style=" stroke:none;fill-rule:nonzero;fill:url(#linear0);" d="M 21.761719 16.261719 C 21.761719 16.382812 21.761719 16.636719 21.75 16.839844 C 21.734375 17.328125 21.695312 17.957031 21.636719 18.246094 C 21.546875 18.675781 21.414062 19.085938 21.242188 19.421875 C 21.039062 19.824219 20.777344 20.183594 20.464844 20.492188 C 20.152344 20.804688 19.796875 21.066406 19.398438 21.269531 C 19.054688 21.441406 18.644531 21.574219 18.210938 21.660156 C 17.925781 21.71875 17.300781 21.757812 16.8125 21.773438 C 16.617188 21.78125 16.359375 21.785156 16.242188 21.785156 L 5.523438 21.78125 C 5.402344 21.78125 5.144531 21.78125 4.945312 21.773438 C 4.457031 21.753906 3.824219 21.714844 3.539062 21.65625 C 3.109375 21.570312 2.699219 21.4375 2.359375 21.265625 C 1.960938 21.058594 1.601562 20.796875 1.292969 20.484375 C 0.980469 20.175781 0.722656 19.816406 0.519531 19.417969 C 0.34375 19.074219 0.210938 18.667969 0.121094 18.234375 C 0.0664062 17.949219 0.03125 17.324219 0.0117188 16.835938 C 0.00390625 16.636719 0 16.378906 0 16.257812 L 0.00390625 5.542969 C 0.00390625 5.425781 0.00390625 5.164062 0.0117188 4.964844 C 0.03125 4.476562 0.0703125 3.847656 0.125 3.558594 C 0.214844 3.128906 0.347656 2.722656 0.519531 2.382812 C 0.726562 1.980469 0.984375 1.621094 1.296875 1.3125 C 1.609375 1.003906 1.964844 0.742188 2.367188 0.539062 C 2.707031 0.363281 3.117188 0.230469 3.550781 0.144531 C 3.835938 0.0859375 4.460938 0.0507812 4.949219 0.03125 C 5.144531 0.0234375 5.40625 0.0234375 5.523438 0.0234375 L 16.242188 0.0234375 C 16.359375 0.0234375 16.617188 0.0273438 16.816406 0.03125 C 17.304688 0.0507812 17.9375 0.0898438 18.222656 0.148438 C 18.65625 0.234375 19.0625 0.367188 19.402344 0.542969 C 19.804688 0.746094 20.160156 1.007812 20.472656 1.320312 C 20.785156 1.628906 21.042969 1.988281 21.246094 2.390625 C 21.417969 2.730469 21.554688 3.140625 21.640625 3.570312 C 21.695312 3.859375 21.734375 4.484375 21.753906 4.96875 C 21.761719 5.167969 21.761719 5.425781 21.761719 5.542969 Z M 21.761719 16.261719 "/>
<path style=" stroke:none;fill-rule:nonzero;fill:rgb(100%,100%,100%);fill-opacity:1;" d="M 16.648438 5.171875 C 15.171875 3.695312 13.214844 2.882812 11.128906 2.882812 C 6.824219 2.882812 3.324219 6.378906 3.324219 10.683594 C 3.324219 12.058594 3.679688 13.402344 4.363281 14.582031 L 3.257812 18.625 L 7.394531 17.542969 C 8.535156 18.160156 9.816406 18.492188 11.125 18.492188 L 11.128906 18.492188 C 15.429688 18.492188 18.929688 14.992188 18.929688 10.691406 C 18.929688 8.601562 18.121094 6.644531 16.648438 5.171875 Z M 11.128906 17.171875 L 11.125 17.171875 C 9.957031 17.171875 8.820312 16.859375 7.820312 16.269531 L 7.585938 16.128906 L 5.132812 16.773438 L 5.785156 14.378906 L 5.632812 14.132812 C 4.984375 13.101562 4.640625 11.910156 4.640625 10.683594 C 4.640625 7.109375 7.550781 4.199219 11.128906 4.199219 C 12.863281 4.203125 14.492188 4.875 15.714844 6.101562 C 16.9375 7.328125 17.613281 8.957031 17.613281 10.691406 C 17.613281 14.265625 14.703125 17.171875 11.128906 17.171875 Z M 14.683594 12.316406 C 14.488281 12.21875 13.53125 11.75 13.355469 11.683594 C 13.171875 11.617188 13.042969 11.585938 12.914062 11.78125 C 12.785156 11.976562 12.410156 12.414062 12.296875 12.542969 C 12.183594 12.675781 12.070312 12.691406 11.871094 12.59375 C 11.679688 12.496094 11.050781 12.289062 10.304688 11.625 C 9.726562 11.109375 9.332031 10.46875 9.222656 10.277344 C 9.105469 10.082031 9.207031 9.976562 9.304688 9.878906 C 9.394531 9.789062 9.5 9.652344 9.601562 9.535156 C 9.695312 9.421875 9.730469 9.339844 9.792969 9.207031 C 9.859375 9.082031 9.828125 8.96875 9.777344 8.871094 C 9.730469 8.773438 9.339844 7.8125 9.175781 7.421875 C 9.019531 7.039062 8.855469 7.09375 8.738281 7.085938 C 8.621094 7.082031 8.492188 7.078125 8.363281 7.078125 C 8.230469 7.078125 8.023438 7.128906 7.84375 7.324219 C 7.664062 7.519531 7.160156 7.992188 7.160156 8.949219 C 7.160156 9.910156 7.859375 10.835938 7.957031 10.96875 C 8.054688 11.097656 9.332031 13.066406 11.289062 13.910156 C 11.753906 14.109375 12.117188 14.230469 12.398438 14.320312 C 12.867188 14.46875 13.292969 14.449219 13.628906 14.398438 C 14.003906 14.34375 14.78125 13.925781 14.945312 13.472656 C 15.109375 13.015625 15.109375 12.625 15.058594 12.542969 C 15.007812 12.464844 14.878906 12.414062 14.683594 12.316406 Z M 14.683594 12.316406 "/>
</g>
</svg>
